<?xml version="1.0" encoding="utf-8" standalone="no"?>
<!DOCTYPE svg PUBLIC "-//W3C//DTD SVG 1.1//EN"
  "http://www.w3.org/Graphics/SVG/1.1/DTD/svg11.dtd">
<svg xmlns:xlink="http://www.w3.org/1999/xlink" width="921.6pt" height="691.2pt" viewBox="0 0 921.6 691.2" xmlns="http://www.w3.org/2000/svg" version="1.1">
 <metadata>
  <rdf:RDF xmlns:dc="http://purl.org/dc/elements/1.1/" xmlns:cc="http://creativecommons.org/ns#" xmlns:rdf="http://www.w3.org/1999/02/22-rdf-syntax-ns#">
   <cc:Work>
    <dc:type rdf:resource="http://purl.org/dc/dcmitype/StillImage"/>
    <dc:date>2023-04-25T10:35:00.936626</dc:date>
    <dc:format>image/svg+xml</dc:format>
    <dc:creator>
     <cc:Agent>
      <dc:title>Matplotlib v3.5.1, https://matplotlib.org/</dc:title>
     </cc:Agent>
    </dc:creator>
   </cc:Work>
  </rdf:RDF>
 </metadata>
 <defs>
  <style type="text/css">*{stroke-linejoin: round; stroke-linecap: butt}</style>
 </defs>
 <g id="figure_1">
  <g id="patch_1">
   <path d="M 0 691.2 
L 921.6 691.2 
L 921.6 0 
L 0 0 
z
" style="fill: #ffffff"/>
  </g>
  <g id="axes_1">
   <g id="patch_2">
    <path d="M 127.42 583.245 
L 882.406777 583.245 
L 882.406777 51.573 
L 127.42 51.573 
z
" style="fill: #ffffff"/>
   </g>
   <g id="matplotlib.axis_1">
    <g id="xtick_1">
     <g id="line2d_1">
      <defs>
       <path id="m23dcedf30d" d="M 0 0 
L 0 3.5 
" style="stroke: #000000; stroke-width: 0.8"/>
      </defs>
      <g>
       <use xlink:href="#m23dcedf30d" x="161.737581" y="583.245" style="stroke: #000000; stroke-width: 0.8"/>
      </g>
     </g>
     <g id="text_1">
      <!-- 0 -->
      <g transform="translate(151.557581 614.56)scale(0.32 -0.32)">
       <defs>
        <path id="DejaVuSerif-30" d="M 2034 219 
Q 2513 219 2750 744 
Q 2988 1269 2988 2328 
Q 2988 3391 2750 3916 
Q 2513 4441 2034 4441 
Q 1556 4441 1318 3916 
Q 1081 3391 1081 2328 
Q 1081 1269 1318 744 
Q 1556 219 2034 219 
z
M 2034 -91 
Q 1275 -91 848 546 
Q 422 1184 422 2328 
Q 422 3475 848 4112 
Q 1275 4750 2034 4750 
Q 2797 4750 3222 4112 
Q 3647 3475 3647 2328 
Q 3647 1184 3222 546 
Q 2797 -91 2034 -91 
z
" transform="scale(0.015625)"/>
       </defs>
       <use xlink:href="#DejaVuSerif-30"/>
      </g>
     </g>
    </g>
    <g id="xtick_2">
     <g id="line2d_2">
      <g>
       <use xlink:href="#m23dcedf30d" x="300.394473" y="583.245" style="stroke: #000000; stroke-width: 0.8"/>
      </g>
     </g>
     <g id="text_2">
      <!-- 20 -->
      <g transform="translate(280.034473 614.56)scale(0.32 -0.32)">
       <defs>
        <path id="DejaVuSerif-32" d="M 819 3553 
L 469 3553 
L 469 4384 
Q 803 4563 1142 4656 
Q 1481 4750 1806 4750 
Q 2534 4750 2956 4397 
Q 3378 4044 3378 3438 
Q 3378 2753 2422 1800 
Q 2347 1728 2309 1691 
L 1131 513 
L 3078 513 
L 3078 1088 
L 3444 1088 
L 3444 0 
L 434 0 
L 434 341 
L 1850 1753 
Q 2319 2222 2519 2614 
Q 2719 3006 2719 3438 
Q 2719 3909 2473 4175 
Q 2228 4441 1797 4441 
Q 1350 4441 1106 4219 
Q 863 3997 819 3553 
z
" transform="scale(0.015625)"/>
       </defs>
       <use xlink:href="#DejaVuSerif-32"/>
       <use xlink:href="#DejaVuSerif-30" x="63.623047"/>
      </g>
     </g>
    </g>
    <g id="xtick_3">
     <g id="line2d_3">
      <g>
       <use xlink:href="#m23dcedf30d" x="439.051365" y="583.245" style="stroke: #000000; stroke-width: 0.8"/>
      </g>
     </g>
     <g id="text_3">
      <!-- 40 -->
      <g transform="translate(418.691365 614.56)scale(0.32 -0.32)">
       <defs>
        <path id="DejaVuSerif-34" d="M 2234 1581 
L 2234 4063 
L 641 1581 
L 2234 1581 
z
M 3609 0 
L 1484 0 
L 1484 331 
L 2234 331 
L 2234 1247 
L 197 1247 
L 197 1588 
L 2241 4750 
L 2859 4750 
L 2859 1581 
L 3750 1581 
L 3750 1247 
L 2859 1247 
L 2859 331 
L 3609 331 
L 3609 0 
z
" transform="scale(0.015625)"/>
       </defs>
       <use xlink:href="#DejaVuSerif-34"/>
       <use xlink:href="#DejaVuSerif-30" x="63.623047"/>
      </g>
     </g>
    </g>
    <g id="xtick_4">
     <g id="line2d_4">
      <g>
       <use xlink:href="#m23dcedf30d" x="577.708257" y="583.245" style="stroke: #000000; stroke-width: 0.8"/>
      </g>
     </g>
     <g id="text_4">
      <!-- 60 -->
      <g transform="translate(557.348257 614.56)scale(0.32 -0.32)">
       <defs>
        <path id="DejaVuSerif-36" d="M 2094 219 
Q 2534 219 2771 542 
Q 3009 866 3009 1472 
Q 3009 2078 2771 2401 
Q 2534 2725 2094 2725 
Q 1647 2725 1412 2412 
Q 1178 2100 1178 1509 
Q 1178 888 1415 553 
Q 1653 219 2094 219 
z
M 1075 2569 
Q 1288 2803 1556 2918 
Q 1825 3034 2163 3034 
Q 2859 3034 3264 2615 
Q 3669 2197 3669 1472 
Q 3669 763 3233 336 
Q 2797 -91 2069 -91 
Q 1278 -91 853 498 
Q 428 1088 428 2181 
Q 428 3406 931 4078 
Q 1434 4750 2350 4750 
Q 2597 4750 2869 4703 
Q 3141 4656 3425 4563 
L 3425 3794 
L 3072 3794 
Q 3034 4109 2831 4275 
Q 2628 4441 2284 4441 
Q 1678 4441 1381 3981 
Q 1084 3522 1075 2569 
z
" transform="scale(0.015625)"/>
       </defs>
       <use xlink:href="#DejaVuSerif-36"/>
       <use xlink:href="#DejaVuSerif-30" x="63.623047"/>
      </g>
     </g>
    </g>
    <g id="xtick_5">
     <g id="line2d_5">
      <g>
       <use xlink:href="#m23dcedf30d" x="716.365149" y="583.245" style="stroke: #000000; stroke-width: 0.8"/>
      </g>
     </g>
     <g id="text_5">
      <!-- 80 -->
      <g transform="translate(696.005149 614.56)scale(0.32 -0.32)">
       <defs>
        <path id="DejaVuSerif-38" d="M 2981 1275 
Q 2981 1775 2732 2051 
Q 2484 2328 2034 2328 
Q 1584 2328 1336 2051 
Q 1088 1775 1088 1275 
Q 1088 772 1336 495 
Q 1584 219 2034 219 
Q 2484 219 2732 495 
Q 2981 772 2981 1275 
z
M 2853 3541 
Q 2853 3966 2637 4203 
Q 2422 4441 2034 4441 
Q 1650 4441 1433 4203 
Q 1216 3966 1216 3541 
Q 1216 3113 1433 2875 
Q 1650 2638 2034 2638 
Q 2422 2638 2637 2875 
Q 2853 3113 2853 3541 
z
M 2516 2484 
Q 3047 2413 3344 2092 
Q 3641 1772 3641 1275 
Q 3641 619 3225 264 
Q 2809 -91 2034 -91 
Q 1263 -91 845 264 
Q 428 619 428 1275 
Q 428 1772 725 2092 
Q 1022 2413 1556 2484 
Q 1084 2569 832 2842 
Q 581 3116 581 3541 
Q 581 4103 968 4426 
Q 1356 4750 2034 4750 
Q 2713 4750 3100 4426 
Q 3488 4103 3488 3541 
Q 3488 3116 3236 2842 
Q 2984 2569 2516 2484 
z
" transform="scale(0.015625)"/>
       </defs>
       <use xlink:href="#DejaVuSerif-38"/>
       <use xlink:href="#DejaVuSerif-30" x="63.623047"/>
      </g>
     </g>
    </g>
    <g id="xtick_6">
     <g id="line2d_6">
      <g>
       <use xlink:href="#m23dcedf30d" x="855.022041" y="583.245" style="stroke: #000000; stroke-width: 0.8"/>
      </g>
     </g>
     <g id="text_6">
      <!-- 100 -->
      <g transform="translate(824.482041 614.56)scale(0.32 -0.32)">
       <defs>
        <path id="DejaVuSerif-31" d="M 909 0 
L 909 331 
L 1722 331 
L 1722 4213 
L 781 3603 
L 781 4013 
L 1919 4750 
L 2350 4750 
L 2350 331 
L 3163 331 
L 3163 0 
L 909 0 
z
" transform="scale(0.015625)"/>
       </defs>
       <use xlink:href="#DejaVuSerif-31"/>
       <use xlink:href="#DejaVuSerif-30" x="63.623047"/>
       <use xlink:href="#DejaVuSerif-30" x="127.246094"/>
      </g>
     </g>
    </g>
    <g id="text_7">
     <!-- Scaling Factor -->
     <g transform="translate(387.353388 649.53)scale(0.32 -0.32)">
      <defs>
       <path id="DejaVuSerif-53" d="M 594 225 
L 594 1288 
L 953 1284 
Q 969 753 1261 498 
Q 1553 244 2150 244 
Q 2706 244 2998 464 
Q 3291 684 3291 1106 
Q 3291 1444 3114 1625 
Q 2938 1806 2369 1978 
L 1753 2163 
Q 1084 2366 811 2669 
Q 538 2972 538 3500 
Q 538 4094 959 4422 
Q 1381 4750 2144 4750 
Q 2469 4750 2856 4679 
Q 3244 4609 3681 4475 
L 3681 3481 
L 3328 3481 
Q 3275 3975 2998 4195 
Q 2722 4416 2156 4416 
Q 1663 4416 1405 4214 
Q 1147 4013 1147 3628 
Q 1147 3294 1340 3103 
Q 1534 2913 2163 2725 
L 2741 2553 
Q 3375 2363 3645 2067 
Q 3916 1772 3916 1275 
Q 3916 597 3481 253 
Q 3047 -91 2188 -91 
Q 1803 -91 1404 -12 
Q 1006 66 594 225 
z
" transform="scale(0.015625)"/>
       <path id="DejaVuSerif-63" d="M 3291 997 
Q 3169 466 2822 187 
Q 2475 -91 1925 -91 
Q 1200 -91 759 389 
Q 319 869 319 1663 
Q 319 2459 759 2936 
Q 1200 3413 1925 3413 
Q 2241 3413 2553 3339 
Q 2866 3266 3181 3116 
L 3181 2266 
L 2847 2266 
Q 2781 2703 2561 2903 
Q 2341 3103 1931 3103 
Q 1466 3103 1228 2742 
Q 991 2381 991 1663 
Q 991 944 1227 581 
Q 1463 219 1931 219 
Q 2303 219 2525 412 
Q 2747 606 2828 997 
L 3291 997 
z
" transform="scale(0.015625)"/>
       <path id="DejaVuSerif-61" d="M 2547 1044 
L 2547 1747 
L 1806 1747 
Q 1378 1747 1168 1562 
Q 959 1378 959 997 
Q 959 650 1171 447 
Q 1384 244 1747 244 
Q 2106 244 2326 466 
Q 2547 688 2547 1044 
z
M 3122 2075 
L 3122 331 
L 3634 331 
L 3634 0 
L 2547 0 
L 2547 359 
Q 2356 128 2106 18 
Q 1856 -91 1522 -91 
Q 969 -91 644 203 
Q 319 497 319 997 
Q 319 1513 691 1797 
Q 1063 2081 1741 2081 
L 2547 2081 
L 2547 2309 
Q 2547 2688 2317 2895 
Q 2088 3103 1672 3103 
Q 1328 3103 1125 2947 
Q 922 2791 872 2484 
L 575 2484 
L 575 3156 
Q 875 3284 1158 3348 
Q 1441 3413 1709 3413 
Q 2400 3413 2761 3070 
Q 3122 2728 3122 2075 
z
" transform="scale(0.015625)"/>
       <path id="DejaVuSerif-6c" d="M 1313 331 
L 1856 331 
L 1856 0 
L 184 0 
L 184 331 
L 738 331 
L 738 4531 
L 184 4531 
L 184 4863 
L 1313 4863 
L 1313 331 
z
" transform="scale(0.015625)"/>
       <path id="DejaVuSerif-69" d="M 622 4353 
Q 622 4497 726 4603 
Q 831 4709 978 4709 
Q 1122 4709 1226 4603 
Q 1331 4497 1331 4353 
Q 1331 4206 1228 4103 
Q 1125 4000 978 4000 
Q 831 4000 726 4103 
Q 622 4206 622 4353 
z
M 1356 331 
L 1900 331 
L 1900 0 
L 231 0 
L 231 331 
L 781 331 
L 781 2988 
L 231 2988 
L 231 3322 
L 1356 3322 
L 1356 331 
z
" transform="scale(0.015625)"/>
       <path id="DejaVuSerif-6e" d="M 263 0 
L 263 331 
L 781 331 
L 781 2988 
L 231 2988 
L 231 3322 
L 1356 3322 
L 1356 2731 
Q 1516 3069 1770 3241 
Q 2025 3413 2363 3413 
Q 2913 3413 3172 3097 
Q 3431 2781 3431 2113 
L 3431 331 
L 3944 331 
L 3944 0 
L 2356 0 
L 2356 331 
L 2853 331 
L 2853 1931 
Q 2853 2541 2703 2767 
Q 2553 2994 2175 2994 
Q 1775 2994 1565 2701 
Q 1356 2409 1356 1850 
L 1356 331 
L 1856 331 
L 1856 0 
L 263 0 
z
" transform="scale(0.015625)"/>
       <path id="DejaVuSerif-67" d="M 3359 2988 
L 3359 72 
Q 3359 -644 2965 -1033 
Q 2572 -1422 1844 -1422 
Q 1516 -1422 1216 -1362 
Q 916 -1303 641 -1184 
L 641 -488 
L 941 -488 
Q 997 -813 1206 -963 
Q 1416 -1113 1806 -1113 
Q 2313 -1113 2548 -827 
Q 2784 -541 2784 72 
L 2784 519 
Q 2616 206 2355 57 
Q 2094 -91 1709 -91 
Q 1097 -91 708 395 
Q 319 881 319 1663 
Q 319 2444 706 2928 
Q 1094 3413 1709 3413 
Q 2094 3413 2355 3264 
Q 2616 3116 2784 2803 
L 2784 3322 
L 3909 3322 
L 3909 2988 
L 3359 2988 
z
M 2784 1825 
Q 2784 2422 2554 2737 
Q 2325 3053 1888 3053 
Q 1444 3053 1217 2703 
Q 991 2353 991 1663 
Q 991 975 1217 622 
Q 1444 269 1888 269 
Q 2325 269 2554 583 
Q 2784 897 2784 1497 
L 2784 1825 
z
" transform="scale(0.015625)"/>
       <path id="DejaVuSerif-20" transform="scale(0.015625)"/>
       <path id="DejaVuSerif-46" d="M 353 0 
L 353 331 
L 947 331 
L 947 4331 
L 353 4331 
L 353 4666 
L 4172 4666 
L 4172 3628 
L 3788 3628 
L 3788 4281 
L 1581 4281 
L 1581 2719 
L 3175 2719 
L 3175 3303 
L 3559 3303 
L 3559 1753 
L 3175 1753 
L 3175 2338 
L 1581 2338 
L 1581 331 
L 2328 331 
L 2328 0 
L 353 0 
z
" transform="scale(0.015625)"/>
       <path id="DejaVuSerif-74" d="M 691 2988 
L 184 2988 
L 184 3322 
L 691 3322 
L 691 4353 
L 1269 4353 
L 1269 3322 
L 2350 3322 
L 2350 2988 
L 1269 2988 
L 1269 878 
Q 1269 456 1350 337 
Q 1431 219 1650 219 
Q 1875 219 1978 351 
Q 2081 484 2088 781 
L 2522 781 
Q 2497 328 2275 118 
Q 2053 -91 1600 -91 
Q 1103 -91 897 129 
Q 691 350 691 878 
L 691 2988 
z
" transform="scale(0.015625)"/>
       <path id="DejaVuSerif-6f" d="M 1925 219 
Q 2388 219 2623 584 
Q 2859 950 2859 1663 
Q 2859 2375 2623 2739 
Q 2388 3103 1925 3103 
Q 1463 3103 1227 2739 
Q 991 2375 991 1663 
Q 991 950 1228 584 
Q 1466 219 1925 219 
z
M 1925 -91 
Q 1200 -91 759 389 
Q 319 869 319 1663 
Q 319 2456 758 2934 
Q 1197 3413 1925 3413 
Q 2653 3413 3092 2934 
Q 3531 2456 3531 1663 
Q 3531 869 3092 389 
Q 2653 -91 1925 -91 
z
" transform="scale(0.015625)"/>
       <path id="DejaVuSerif-72" d="M 3059 3328 
L 3059 2497 
L 2728 2497 
Q 2713 2744 2591 2866 
Q 2469 2988 2234 2988 
Q 1809 2988 1582 2694 
Q 1356 2400 1356 1850 
L 1356 331 
L 2022 331 
L 2022 0 
L 263 0 
L 263 331 
L 781 331 
L 781 2994 
L 231 2994 
L 231 3322 
L 1356 3322 
L 1356 2731 
Q 1525 3078 1790 3245 
Q 2056 3413 2438 3413 
Q 2578 3413 2733 3391 
Q 2888 3369 3059 3328 
z
" transform="scale(0.015625)"/>
      </defs>
      <use xlink:href="#DejaVuSerif-53"/>
      <use xlink:href="#DejaVuSerif-63" x="68.505859"/>
      <use xlink:href="#DejaVuSerif-61" x="124.511719"/>
      <use xlink:href="#DejaVuSerif-6c" x="184.130859"/>
      <use xlink:href="#DejaVuSerif-69" x="216.113281"/>
      <use xlink:href="#DejaVuSerif-6e" x="248.095703"/>
      <use xlink:href="#DejaVuSerif-67" x="312.5"/>
      <use xlink:href="#DejaVuSerif-20" x="376.513672"/>
      <use xlink:href="#DejaVuSerif-46" x="408.300781"/>
      <use xlink:href="#DejaVuSerif-61" x="470.935547"/>
      <use xlink:href="#DejaVuSerif-63" x="530.554688"/>
      <use xlink:href="#DejaVuSerif-74" x="586.560547"/>
      <use xlink:href="#DejaVuSerif-6f" x="626.746094"/>
      <use xlink:href="#DejaVuSerif-72" x="686.951172"/>
     </g>
    </g>
   </g>
   <g id="matplotlib.axis_2">
    <g id="ytick_1">
     <g id="line2d_7">
      <defs>
       <path id="m3ffeb1aea6" d="M 0 0 
L -3.5 0 
" style="stroke: #000000; stroke-width: 0.8"/>
      </defs>
      <g>
       <use xlink:href="#m3ffeb1aea6" x="127.42" y="559.078091" style="stroke: #000000; stroke-width: 0.8"/>
      </g>
     </g>
     <g id="text_8">
      <!-- 0.0 -->
      <g transform="translate(69.53 571.235591)scale(0.32 -0.32)">
       <defs>
        <path id="DejaVuSerif-2e" d="M 603 325 
Q 603 500 722 622 
Q 841 744 1019 744 
Q 1191 744 1312 622 
Q 1434 500 1434 325 
Q 1434 153 1312 31 
Q 1191 -91 1019 -91 
Q 841 -91 722 29 
Q 603 150 603 325 
z
" transform="scale(0.015625)"/>
       </defs>
       <use xlink:href="#DejaVuSerif-30"/>
       <use xlink:href="#DejaVuSerif-2e" x="63.623047"/>
       <use xlink:href="#DejaVuSerif-30" x="95.410156"/>
      </g>
     </g>
    </g>
    <g id="ytick_2">
     <g id="line2d_8">
      <g>
       <use xlink:href="#m3ffeb1aea6" x="127.42" y="462.410455" style="stroke: #000000; stroke-width: 0.8"/>
      </g>
     </g>
     <g id="text_9">
      <!-- 0.2 -->
      <g transform="translate(69.53 474.567955)scale(0.32 -0.32)">
       <use xlink:href="#DejaVuSerif-30"/>
       <use xlink:href="#DejaVuSerif-2e" x="63.623047"/>
       <use xlink:href="#DejaVuSerif-32" x="95.410156"/>
      </g>
     </g>
    </g>
    <g id="ytick_3">
     <g id="line2d_9">
      <g>
       <use xlink:href="#m3ffeb1aea6" x="127.42" y="365.742818" style="stroke: #000000; stroke-width: 0.8"/>
      </g>
     </g>
     <g id="text_10">
      <!-- 0.4 -->
      <g transform="translate(69.53 377.900318)scale(0.32 -0.32)">
       <use xlink:href="#DejaVuSerif-30"/>
       <use xlink:href="#DejaVuSerif-2e" x="63.623047"/>
       <use xlink:href="#DejaVuSerif-34" x="95.410156"/>
      </g>
     </g>
    </g>
    <g id="ytick_4">
     <g id="line2d_10">
      <g>
       <use xlink:href="#m3ffeb1aea6" x="127.42" y="269.075182" style="stroke: #000000; stroke-width: 0.8"/>
      </g>
     </g>
     <g id="text_11">
      <!-- 0.6 -->
      <g transform="translate(69.53 281.232682)scale(0.32 -0.32)">
       <use xlink:href="#DejaVuSerif-30"/>
       <use xlink:href="#DejaVuSerif-2e" x="63.623047"/>
       <use xlink:href="#DejaVuSerif-36" x="95.410156"/>
      </g>
     </g>
    </g>
    <g id="ytick_5">
     <g id="line2d_11">
      <g>
       <use xlink:href="#m3ffeb1aea6" x="127.42" y="172.407545" style="stroke: #000000; stroke-width: 0.8"/>
      </g>
     </g>
     <g id="text_12">
      <!-- 0.8 -->
      <g transform="translate(69.53 184.565045)scale(0.32 -0.32)">
       <use xlink:href="#DejaVuSerif-30"/>
       <use xlink:href="#DejaVuSerif-2e" x="63.623047"/>
       <use xlink:href="#DejaVuSerif-38" x="95.410156"/>
      </g>
     </g>
    </g>
    <g id="ytick_6">
     <g id="line2d_12">
      <g>
       <use xlink:href="#m3ffeb1aea6" x="127.42" y="75.739909" style="stroke: #000000; stroke-width: 0.8"/>
      </g>
     </g>
     <g id="text_13">
      <!-- 1.0 -->
      <g transform="translate(69.53 87.897409)scale(0.32 -0.32)">
       <use xlink:href="#DejaVuSerif-31"/>
       <use xlink:href="#DejaVuSerif-2e" x="63.623047"/>
       <use xlink:href="#DejaVuSerif-30" x="95.410156"/>
      </g>
     </g>
    </g>
    <g id="text_14">
     <!-- Metric Result / max(Metric Result) -->
     <g transform="translate(58.875 600.534)rotate(-90)scale(0.32 -0.32)">
      <defs>
       <path id="DejaVuSerif-4d" d="M 353 0 
L 353 331 
L 947 331 
L 947 4331 
L 319 4331 
L 319 4666 
L 1678 4666 
L 3316 1344 
L 4953 4666 
L 6228 4666 
L 6228 4331 
L 5606 4331 
L 5606 331 
L 6203 331 
L 6203 0 
L 4378 0 
L 4378 331 
L 4972 331 
L 4972 3938 
L 3372 684 
L 2931 684 
L 1331 3938 
L 1331 331 
L 1925 331 
L 1925 0 
L 353 0 
z
" transform="scale(0.015625)"/>
       <path id="DejaVuSerif-65" d="M 3469 1600 
L 991 1600 
L 991 1575 
Q 991 903 1244 561 
Q 1497 219 1991 219 
Q 2369 219 2611 417 
Q 2853 616 2950 1006 
L 3413 1006 
Q 3275 459 2904 184 
Q 2534 -91 1931 -91 
Q 1203 -91 761 389 
Q 319 869 319 1663 
Q 319 2450 753 2931 
Q 1188 3413 1894 3413 
Q 2647 3413 3050 2948 
Q 3453 2484 3469 1600 
z
M 2791 1931 
Q 2772 2513 2545 2808 
Q 2319 3103 1894 3103 
Q 1497 3103 1269 2806 
Q 1041 2509 991 1931 
L 2791 1931 
z
" transform="scale(0.015625)"/>
       <path id="DejaVuSerif-52" d="M 3066 2316 
Q 3284 2256 3442 2114 
Q 3600 1972 3725 1716 
L 4403 331 
L 4972 331 
L 4972 0 
L 3872 0 
L 3144 1484 
Q 2934 1916 2759 2042 
Q 2584 2169 2278 2169 
L 1581 2169 
L 1581 331 
L 2241 331 
L 2241 0 
L 353 0 
L 353 331 
L 947 331 
L 947 4331 
L 353 4331 
L 353 4666 
L 2719 4666 
Q 3400 4666 3770 4341 
Q 4141 4016 4141 3419 
Q 4141 2938 3870 2661 
Q 3600 2384 3066 2316 
z
M 1581 2503 
L 2503 2503 
Q 2975 2503 3200 2726 
Q 3425 2950 3425 3419 
Q 3425 3888 3200 4109 
Q 2975 4331 2503 4331 
L 1581 4331 
L 1581 2503 
z
" transform="scale(0.015625)"/>
       <path id="DejaVuSerif-73" d="M 359 184 
L 359 959 
L 691 959 
Q 703 588 923 403 
Q 1144 219 1575 219 
Q 1963 219 2166 364 
Q 2369 509 2369 788 
Q 2369 1006 2220 1140 
Q 2072 1275 1594 1428 
L 1178 1569 
Q 750 1706 558 1912 
Q 366 2119 366 2438 
Q 366 2894 700 3153 
Q 1034 3413 1625 3413 
Q 1888 3413 2178 3344 
Q 2469 3275 2778 3144 
L 2778 2419 
L 2447 2419 
Q 2434 2741 2221 2922 
Q 2009 3103 1644 3103 
Q 1281 3103 1095 2975 
Q 909 2847 909 2591 
Q 909 2381 1050 2254 
Q 1191 2128 1613 1997 
L 2069 1856 
Q 2541 1709 2748 1489 
Q 2956 1269 2956 922 
Q 2956 450 2595 179 
Q 2234 -91 1600 -91 
Q 1278 -91 972 -22 
Q 666 47 359 184 
z
" transform="scale(0.015625)"/>
       <path id="DejaVuSerif-75" d="M 2266 3322 
L 3341 3322 
L 3341 331 
L 3884 331 
L 3884 0 
L 2766 0 
L 2766 588 
Q 2606 256 2353 82 
Q 2100 -91 1766 -91 
Q 1213 -91 952 223 
Q 691 538 691 1209 
L 691 2988 
L 172 2988 
L 172 3322 
L 1269 3322 
L 1269 1388 
Q 1269 781 1417 556 
Q 1566 331 1947 331 
Q 2347 331 2556 625 
Q 2766 919 2766 1478 
L 2766 2988 
L 2266 2988 
L 2266 3322 
z
" transform="scale(0.015625)"/>
       <path id="DejaVuSerif-2f" d="M 1656 4666 
L 2156 4666 
L 500 -594 
L 0 -594 
L 1656 4666 
z
" transform="scale(0.015625)"/>
       <path id="DejaVuSerif-6d" d="M 3316 2675 
Q 3481 3041 3739 3227 
Q 3997 3413 4341 3413 
Q 4863 3413 5119 3089 
Q 5375 2766 5375 2113 
L 5375 331 
L 5894 331 
L 5894 0 
L 4300 0 
L 4300 331 
L 4800 331 
L 4800 2047 
Q 4800 2556 4650 2772 
Q 4500 2988 4153 2988 
Q 3769 2988 3567 2697 
Q 3366 2406 3366 1850 
L 3366 331 
L 3866 331 
L 3866 0 
L 2291 0 
L 2291 331 
L 2791 331 
L 2791 2069 
Q 2791 2566 2641 2777 
Q 2491 2988 2144 2988 
Q 1759 2988 1557 2697 
Q 1356 2406 1356 1850 
L 1356 331 
L 1856 331 
L 1856 0 
L 263 0 
L 263 331 
L 781 331 
L 781 2994 
L 231 2994 
L 231 3322 
L 1356 3322 
L 1356 2731 
Q 1516 3063 1762 3238 
Q 2009 3413 2322 3413 
Q 2709 3413 2968 3220 
Q 3228 3028 3316 2675 
z
" transform="scale(0.015625)"/>
       <path id="DejaVuSerif-78" d="M 1863 2028 
L 2559 2988 
L 2113 2988 
L 2113 3322 
L 3391 3322 
L 3391 2988 
L 2950 2988 
L 2059 1759 
L 3097 331 
L 3531 331 
L 3531 0 
L 1997 0 
L 1997 331 
L 2419 331 
L 1697 1325 
L 972 331 
L 1403 331 
L 1403 0 
L 141 0 
L 141 331 
L 581 331 
L 1497 1594 
L 488 2988 
L 78 2988 
L 78 3322 
L 1563 3322 
L 1563 2988 
L 1166 2988 
L 1863 2028 
z
" transform="scale(0.015625)"/>
       <path id="DejaVuSerif-28" d="M 2041 -997 
Q 1281 -656 893 83 
Q 506 822 506 1931 
Q 506 3044 893 3783 
Q 1281 4522 2041 4863 
L 2041 4556 
Q 1559 4225 1350 3623 
Q 1141 3022 1141 1931 
Q 1141 844 1350 242 
Q 1559 -359 2041 -691 
L 2041 -997 
z
" transform="scale(0.015625)"/>
       <path id="DejaVuSerif-29" d="M 453 -997 
L 453 -691 
Q 934 -359 1145 242 
Q 1356 844 1356 1931 
Q 1356 3022 1145 3623 
Q 934 4225 453 4556 
L 453 4863 
Q 1216 4522 1603 3783 
Q 1991 3044 1991 1931 
Q 1991 822 1603 83 
Q 1216 -656 453 -997 
z
" transform="scale(0.015625)"/>
      </defs>
      <use xlink:href="#DejaVuSerif-4d"/>
      <use xlink:href="#DejaVuSerif-65" x="102.392578"/>
      <use xlink:href="#DejaVuSerif-74" x="161.572266"/>
      <use xlink:href="#DejaVuSerif-72" x="201.757812"/>
      <use xlink:href="#DejaVuSerif-69" x="249.560547"/>
      <use xlink:href="#DejaVuSerif-63" x="281.542969"/>
      <use xlink:href="#DejaVuSerif-20" x="337.548828"/>
      <use xlink:href="#DejaVuSerif-52" x="369.335938"/>
      <use xlink:href="#DejaVuSerif-65" x="444.628906"/>
      <use xlink:href="#DejaVuSerif-73" x="503.808594"/>
      <use xlink:href="#DejaVuSerif-75" x="555.126953"/>
      <use xlink:href="#DejaVuSerif-6c" x="619.53125"/>
      <use xlink:href="#DejaVuSerif-74" x="651.513672"/>
      <use xlink:href="#DejaVuSerif-20" x="691.699219"/>
      <use xlink:href="#DejaVuSerif-2f" x="723.486328"/>
      <use xlink:href="#DejaVuSerif-20" x="757.177734"/>
      <use xlink:href="#DejaVuSerif-6d" x="788.964844"/>
      <use xlink:href="#DejaVuSerif-61" x="883.789062"/>
      <use xlink:href="#DejaVuSerif-78" x="943.408203"/>
      <use xlink:href="#DejaVuSerif-28" x="999.804688"/>
      <use xlink:href="#DejaVuSerif-4d" x="1038.818359"/>
      <use xlink:href="#DejaVuSerif-65" x="1141.210938"/>
      <use xlink:href="#DejaVuSerif-74" x="1200.390625"/>
      <use xlink:href="#DejaVuSerif-72" x="1240.576172"/>
      <use xlink:href="#DejaVuSerif-69" x="1288.378906"/>
      <use xlink:href="#DejaVuSerif-63" x="1320.361328"/>
      <use xlink:href="#DejaVuSerif-20" x="1376.367188"/>
      <use xlink:href="#DejaVuSerif-52" x="1408.154297"/>
      <use xlink:href="#DejaVuSerif-65" x="1483.447266"/>
      <use xlink:href="#DejaVuSerif-73" x="1542.626953"/>
      <use xlink:href="#DejaVuSerif-75" x="1593.945312"/>
      <use xlink:href="#DejaVuSerif-6c" x="1658.349609"/>
      <use xlink:href="#DejaVuSerif-74" x="1690.332031"/>
      <use xlink:href="#DejaVuSerif-29" x="1730.517578"/>
     </g>
    </g>
   </g>
   <g id="line2d_13">
    <path d="M 161.737581 559.078091 
L 168.670425 554.244709 
L 175.60327 549.411327 
L 182.536115 544.577945 
L 189.468959 539.744564 
L 196.401804 534.427844 
L 203.334648 529.594462 
L 210.267493 524.76108 
L 217.200338 519.927698 
L 224.133182 515.094316 
L 231.066027 510.260935 
L 237.998871 505.427553 
L 244.931716 500.594171 
L 251.864561 495.760789 
L 258.797405 490.927407 
L 265.73025 485.610687 
L 272.663094 480.777305 
L 279.595939 475.943924 
L 286.528784 471.110542 
L 293.461628 466.27716 
L 300.394473 461.443778 
L 307.327317 456.610396 
L 314.260162 451.777015 
L 321.193007 446.943633 
L 328.125851 442.110251 
L 335.058696 436.793531 
L 341.99154 431.960149 
L 348.924385 427.126767 
L 355.85723 422.293385 
L 362.790074 417.460004 
L 369.722919 412.626622 
L 376.655763 407.79324 
L 383.588608 402.959858 
L 390.521453 398.126476 
L 397.454297 393.293095 
L 404.387142 387.976375 
L 411.319986 383.142993 
L 418.252831 378.309611 
L 425.185676 373.476229 
L 432.11852 368.642847 
L 439.051365 363.809465 
L 445.984209 358.976084 
L 452.917054 354.142702 
L 459.849899 349.30932 
L 466.782743 344.475938 
L 473.715588 339.159218 
L 480.648432 334.325836 
L 487.581277 329.492455 
L 494.514122 324.659073 
L 501.446966 319.825691 
L 508.379811 314.992309 
L 515.312655 310.158927 
L 522.2455 305.325545 
L 529.178345 300.492164 
L 536.111189 295.658782 
L 543.044034 290.342062 
L 549.976878 285.50868 
L 556.909723 280.675298 
L 563.842568 275.841916 
L 570.775412 271.008535 
L 577.708257 266.175153 
L 584.641101 261.341771 
L 591.573946 256.508389 
L 598.506791 251.675007 
L 605.439635 246.841625 
L 612.37248 241.524905 
L 619.305324 236.691524 
L 626.238169 231.858142 
L 633.171014 227.02476 
L 640.103858 222.191378 
L 647.036703 217.357996 
L 653.969547 212.524615 
L 660.902392 207.691233 
L 667.835237 202.857851 
L 674.768081 198.024469 
L 681.700926 192.707749 
L 688.63377 187.874367 
L 695.566615 183.040985 
L 702.49946 178.207604 
L 709.432304 173.374222 
L 716.365149 168.54084 
L 723.297993 163.707458 
L 730.230838 158.874076 
L 737.163683 154.040695 
L 744.096527 149.207313 
L 751.029372 143.890593 
L 757.962216 139.057211 
L 764.895061 134.223829 
L 771.827906 129.390447 
L 778.76075 124.557065 
L 785.693595 119.723684 
L 792.626439 114.890302 
L 799.559284 110.05692 
L 806.492128 105.223538 
L 813.424973 100.390156 
L 820.357818 95.073436 
L 827.290662 90.240055 
L 834.223507 85.406673 
L 841.156351 80.573291 
L 848.089196 75.739909 
" clip-path="url(#pc7f63443db)" style="fill: none; stroke: #ff00ff; stroke-width: 1.5; stroke-linecap: square"/>
    <defs>
     <path id="md837fb00f7" d="M 0 8 
C 2.121625 8 4.156639 7.15707 5.656854 5.656854 
C 7.15707 4.156639 8 2.121625 8 0 
C 8 -2.121625 7.15707 -4.156639 5.656854 -5.656854 
C 4.156639 -7.15707 2.121625 -8 0 -8 
C -2.121625 -8 -4.156639 -7.15707 -5.656854 -5.656854 
C -7.15707 -4.156639 -8 -2.121625 -8 0 
C -8 2.121625 -7.15707 4.156639 -5.656854 5.656854 
C -4.156639 7.15707 -2.121625 8 0 8 
z
" style="stroke: #ff00ff"/>
    </defs>
    <g clip-path="url(#pc7f63443db)">
     <use xlink:href="#md837fb00f7" x="161.737581" y="559.078091" style="fill: #ff00ff; stroke: #ff00ff"/>
     <use xlink:href="#md837fb00f7" x="237.998871" y="505.427553" style="fill: #ff00ff; stroke: #ff00ff"/>
     <use xlink:href="#md837fb00f7" x="314.260162" y="451.777015" style="fill: #ff00ff; stroke: #ff00ff"/>
     <use xlink:href="#md837fb00f7" x="390.521453" y="398.126476" style="fill: #ff00ff; stroke: #ff00ff"/>
     <use xlink:href="#md837fb00f7" x="466.782743" y="344.475938" style="fill: #ff00ff; stroke: #ff00ff"/>
     <use xlink:href="#md837fb00f7" x="536.111189" y="295.658782" style="fill: #ff00ff; stroke: #ff00ff"/>
     <use xlink:href="#md837fb00f7" x="612.37248" y="241.524905" style="fill: #ff00ff; stroke: #ff00ff"/>
     <use xlink:href="#md837fb00f7" x="688.63377" y="187.874367" style="fill: #ff00ff; stroke: #ff00ff"/>
     <use xlink:href="#md837fb00f7" x="764.895061" y="134.223829" style="fill: #ff00ff; stroke: #ff00ff"/>
     <use xlink:href="#md837fb00f7" x="841.156351" y="80.573291" style="fill: #ff00ff; stroke: #ff00ff"/>
    </g>
   </g>
   <g id="line2d_14">
    <path d="M 161.737581 559.078091 
L 168.670425 520.894375 
L 175.60327 487.060702 
L 182.536115 457.093735 
L 189.468959 430.026796 
L 196.401804 405.859887 
L 203.334648 384.109669 
L 210.267493 364.292804 
L 217.200338 345.925953 
L 224.133182 329.492455 
L 231.066027 314.508971 
L 237.998871 300.492164 
L 244.931716 287.925371 
L 251.864561 276.325255 
L 258.797405 265.208476 
L 265.73025 255.541713 
L 272.663094 245.874949 
L 279.595939 237.174862 
L 286.528784 228.958113 
L 293.461628 221.70804 
L 300.394473 214.457967 
L 307.327317 207.691233 
L 314.260162 201.407836 
L 321.193007 195.607778 
L 328.125851 190.291058 
L 335.058696 184.974338 
L 341.99154 180.140956 
L 348.924385 175.307575 
L 355.85723 170.957531 
L 362.790074 167.090825 
L 369.722919 163.22412 
L 376.655763 159.357415 
L 383.588608 155.974047 
L 390.521453 152.59068 
L 397.454297 149.207313 
L 404.387142 146.307284 
L 411.319986 143.407255 
L 418.252831 140.507225 
L 425.185676 138.090535 
L 432.11852 135.190505 
L 439.051365 132.773815 
L 445.984209 130.840462 
L 452.917054 128.423771 
L 459.849899 126.490418 
L 466.782743 124.073727 
L 473.715588 122.140375 
L 480.648432 120.69036 
L 487.581277 118.757007 
L 494.514122 116.823655 
L 501.446966 115.37364 
L 508.379811 113.923625 
L 515.312655 111.990273 
L 522.2455 110.540258 
L 529.178345 109.090244 
L 536.111189 108.123567 
L 543.044034 106.673553 
L 549.976878 105.223538 
L 556.909723 104.256862 
L 563.842568 102.806847 
L 570.775412 101.840171 
L 577.708257 100.873495 
L 584.641101 99.42348 
L 591.573946 98.456804 
L 598.506791 97.490127 
L 605.439635 96.523451 
L 612.37248 95.556775 
L 619.305324 94.590098 
L 626.238169 94.10676 
L 633.171014 93.140084 
L 640.103858 92.173407 
L 647.036703 91.206731 
L 653.969547 90.723393 
L 660.902392 89.756716 
L 667.835237 89.273378 
L 674.768081 88.306702 
L 681.700926 87.823364 
L 688.63377 86.856687 
L 695.566615 86.373349 
L 702.49946 85.890011 
L 709.432304 85.406673 
L 716.365149 84.439996 
L 723.297993 83.956658 
L 730.230838 83.47332 
L 737.163683 82.989982 
L 744.096527 82.506644 
L 751.029372 82.023305 
L 757.962216 81.539967 
L 764.895061 81.056629 
L 771.827906 80.573291 
L 778.76075 80.089953 
L 785.693595 79.606615 
L 792.626439 79.123276 
L 799.559284 78.639938 
L 806.492128 78.1566 
L 813.424973 77.673262 
L 820.357818 77.189924 
L 827.290662 76.706585 
L 834.223507 76.706585 
L 841.156351 76.223247 
L 848.089196 75.739909 
" clip-path="url(#pc7f63443db)" style="fill: none; stroke: #0000ff; stroke-width: 1.5; stroke-linecap: square"/>
    <defs>
     <path id="m878b4602ca" d="M -2.666667 8 
L 2.666667 8 
L 2.666667 2.666667 
L 8 2.666667 
L 8 -2.666667 
L 2.666667 -2.666667 
L 2.666667 -8 
L -2.666667 -8 
L -2.666667 -2.666667 
L -8 -2.666667 
L -8 2.666667 
L -2.666667 2.666667 
z
" style="stroke: #0000ff; stroke-linejoin: miter"/>
    </defs>
    <g clip-path="url(#pc7f63443db)">
     <use xlink:href="#m878b4602ca" x="161.737581" y="559.078091" style="fill: #0000ff; stroke: #0000ff; stroke-linejoin: miter"/>
     <use xlink:href="#m878b4602ca" x="182.536115" y="457.093735" style="fill: #0000ff; stroke: #0000ff; stroke-linejoin: miter"/>
     <use xlink:href="#m878b4602ca" x="210.267493" y="364.292804" style="fill: #0000ff; stroke: #0000ff; stroke-linejoin: miter"/>
     <use xlink:href="#m878b4602ca" x="251.864561" y="276.325255" style="fill: #0000ff; stroke: #0000ff; stroke-linejoin: miter"/>
     <use xlink:href="#m878b4602ca" x="307.327317" y="207.691233" style="fill: #0000ff; stroke: #0000ff; stroke-linejoin: miter"/>
     <use xlink:href="#m878b4602ca" x="383.588608" y="155.974047" style="fill: #0000ff; stroke: #0000ff; stroke-linejoin: miter"/>
     <use xlink:href="#m878b4602ca" x="473.715588" y="122.140375" style="fill: #0000ff; stroke: #0000ff; stroke-linejoin: miter"/>
     <use xlink:href="#m878b4602ca" x="563.842568" y="102.806847" style="fill: #0000ff; stroke: #0000ff; stroke-linejoin: miter"/>
     <use xlink:href="#m878b4602ca" x="653.969547" y="90.723393" style="fill: #0000ff; stroke: #0000ff; stroke-linejoin: miter"/>
     <use xlink:href="#m878b4602ca" x="744.096527" y="82.506644" style="fill: #0000ff; stroke: #0000ff; stroke-linejoin: miter"/>
     <use xlink:href="#m878b4602ca" x="834.223507" y="76.706585" style="fill: #0000ff; stroke: #0000ff; stroke-linejoin: miter"/>
    </g>
   </g>
   <g id="line2d_15">
    <path d="M 161.737581 559.078091 
L 168.670425 554.244709 
L 175.60327 549.411327 
L 182.536115 544.577945 
L 189.468959 539.261225 
L 196.401804 534.427844 
L 203.334648 529.594462 
L 210.267493 524.76108 
L 217.200338 519.927698 
L 224.133182 515.094316 
L 231.066027 510.260935 
L 237.998871 505.427553 
L 244.931716 500.594171 
L 251.864561 495.760789 
L 258.797405 490.444069 
L 265.73025 485.610687 
L 272.663094 480.777305 
L 279.595939 475.943924 
L 286.528784 471.110542 
L 293.461628 466.27716 
L 300.394473 461.443778 
L 307.327317 456.610396 
L 314.260162 451.777015 
L 321.193007 446.460295 
L 328.125851 441.626913 
L 335.058696 436.793531 
L 341.99154 431.960149 
L 348.924385 427.126767 
L 355.85723 422.293385 
L 362.790074 417.460004 
L 369.722919 412.626622 
L 376.655763 407.79324 
L 383.588608 402.959858 
L 390.521453 397.643138 
L 397.454297 392.809756 
L 404.387142 387.976375 
L 411.319986 383.142993 
L 418.252831 378.309611 
L 425.185676 373.476229 
L 432.11852 368.642847 
L 439.051365 363.809465 
L 445.984209 358.976084 
L 452.917054 354.142702 
L 459.849899 348.825982 
L 466.782743 343.9926 
L 473.715588 339.159218 
L 480.648432 334.325836 
L 487.581277 329.492455 
L 494.514122 324.659073 
L 501.446966 319.825691 
L 508.379811 314.992309 
L 515.312655 310.158927 
L 522.2455 305.325545 
L 529.178345 300.008825 
L 536.111189 295.175444 
L 543.044034 290.342062 
L 549.976878 285.50868 
L 556.909723 280.675298 
L 563.842568 275.841916 
L 570.775412 271.008535 
L 577.708257 266.175153 
L 584.641101 261.341771 
L 591.573946 256.508389 
L 598.506791 251.191669 
L 605.439635 246.358287 
L 612.37248 241.524905 
L 619.305324 236.691524 
L 626.238169 231.858142 
L 633.171014 227.02476 
L 640.103858 222.191378 
L 647.036703 217.357996 
L 653.969547 212.524615 
L 660.902392 207.691233 
L 667.835237 202.374513 
L 674.768081 197.541131 
L 681.700926 192.707749 
L 688.63377 187.874367 
L 695.566615 183.040985 
L 702.49946 178.207604 
L 709.432304 173.374222 
L 716.365149 168.54084 
L 723.297993 163.707458 
L 730.230838 158.874076 
L 737.163683 154.040695 
L 744.096527 148.723975 
L 751.029372 143.890593 
L 757.962216 139.057211 
L 764.895061 134.223829 
L 771.827906 129.390447 
L 778.76075 124.557065 
L 785.693595 119.723684 
L 792.626439 114.890302 
L 799.559284 110.05692 
L 806.492128 105.223538 
L 813.424973 99.906818 
L 820.357818 95.073436 
L 827.290662 90.240055 
L 834.223507 85.406673 
L 841.156351 80.573291 
L 848.089196 75.739909 
" clip-path="url(#pc7f63443db)" style="fill: none; stroke: #ffa500; stroke-width: 1.5; stroke-linecap: square"/>
    <defs>
     <path id="m9358b31c4e" d="M 0 -8 
L -1.796112 -2.472136 
L -7.608452 -2.472136 
L -2.90617 0.944272 
L -4.702282 6.472136 
L -0 3.055728 
L 4.702282 6.472136 
L 2.90617 0.944272 
L 7.608452 -2.472136 
L 1.796112 -2.472136 
z
" style="stroke: #ffa500; stroke-linejoin: bevel"/>
    </defs>
    <g clip-path="url(#pc7f63443db)">
     <use xlink:href="#m9358b31c4e" x="189.468959" y="539.261225" style="fill: #ffa500; stroke: #ffa500; stroke-linejoin: bevel"/>
     <use xlink:href="#m9358b31c4e" x="265.73025" y="485.610687" style="fill: #ffa500; stroke: #ffa500; stroke-linejoin: bevel"/>
     <use xlink:href="#m9358b31c4e" x="341.99154" y="431.960149" style="fill: #ffa500; stroke: #ffa500; stroke-linejoin: bevel"/>
     <use xlink:href="#m9358b31c4e" x="418.252831" y="378.309611" style="fill: #ffa500; stroke: #ffa500; stroke-linejoin: bevel"/>
     <use xlink:href="#m9358b31c4e" x="494.514122" y="324.659073" style="fill: #ffa500; stroke: #ffa500; stroke-linejoin: bevel"/>
     <use xlink:href="#m9358b31c4e" x="570.775412" y="271.008535" style="fill: #ffa500; stroke: #ffa500; stroke-linejoin: bevel"/>
     <use xlink:href="#m9358b31c4e" x="647.036703" y="217.357996" style="fill: #ffa500; stroke: #ffa500; stroke-linejoin: bevel"/>
     <use xlink:href="#m9358b31c4e" x="723.297993" y="163.707458" style="fill: #ffa500; stroke: #ffa500; stroke-linejoin: bevel"/>
     <use xlink:href="#m9358b31c4e" x="792.626439" y="114.890302" style="fill: #ffa500; stroke: #ffa500; stroke-linejoin: bevel"/>
    </g>
   </g>
   <g id="line2d_16">
    <path d="M 161.737581 559.078091 
L 168.670425 554.244709 
L 175.60327 549.411327 
L 182.536115 544.577945 
L 189.468959 539.744564 
L 196.401804 534.427844 
L 203.334648 529.594462 
L 210.267493 524.76108 
L 217.200338 519.927698 
L 224.133182 515.094316 
L 231.066027 510.260935 
L 237.998871 505.427553 
L 244.931716 500.594171 
L 251.864561 495.760789 
L 258.797405 490.927407 
L 265.73025 485.610687 
L 272.663094 480.777305 
L 279.595939 475.943924 
L 286.528784 471.110542 
L 293.461628 466.27716 
L 300.394473 461.443778 
L 307.327317 456.610396 
L 314.260162 451.777015 
L 321.193007 446.943633 
L 328.125851 442.110251 
L 335.058696 436.793531 
L 341.99154 431.960149 
L 348.924385 427.126767 
L 355.85723 422.293385 
L 362.790074 417.460004 
L 369.722919 412.626622 
L 376.655763 407.79324 
L 383.588608 402.959858 
L 390.521453 398.126476 
L 397.454297 393.293095 
L 404.387142 387.976375 
L 411.319986 383.142993 
L 418.252831 378.309611 
L 425.185676 373.476229 
L 432.11852 368.642847 
L 439.051365 363.809465 
L 445.984209 358.976084 
L 452.917054 354.142702 
L 459.849899 349.30932 
L 466.782743 344.475938 
L 473.715588 339.159218 
L 480.648432 334.325836 
L 487.581277 329.492455 
L 494.514122 324.659073 
L 501.446966 319.825691 
L 508.379811 314.992309 
L 515.312655 310.158927 
L 522.2455 305.325545 
L 529.178345 300.492164 
L 536.111189 295.658782 
L 543.044034 290.342062 
L 549.976878 285.50868 
L 556.909723 280.675298 
L 563.842568 275.841916 
L 570.775412 271.008535 
L 577.708257 266.175153 
L 584.641101 261.341771 
L 591.573946 256.508389 
L 598.506791 251.675007 
L 605.439635 246.841625 
L 612.37248 241.524905 
L 619.305324 236.691524 
L 626.238169 231.858142 
L 633.171014 227.02476 
L 640.103858 222.191378 
L 647.036703 217.357996 
L 653.969547 212.524615 
L 660.902392 207.691233 
L 667.835237 202.857851 
L 674.768081 198.024469 
L 681.700926 192.707749 
L 688.63377 187.874367 
L 695.566615 183.040985 
L 702.49946 178.207604 
L 709.432304 173.374222 
L 716.365149 168.54084 
L 723.297993 163.707458 
L 730.230838 158.874076 
L 737.163683 154.040695 
L 744.096527 149.207313 
L 751.029372 143.890593 
L 757.962216 139.057211 
L 764.895061 134.223829 
L 771.827906 129.390447 
L 778.76075 124.557065 
L 785.693595 119.723684 
L 792.626439 114.890302 
L 799.559284 110.05692 
L 806.492128 105.223538 
L 813.424973 100.390156 
L 820.357818 95.073436 
L 827.290662 90.240055 
L 834.223507 85.406673 
L 841.156351 80.573291 
L 848.089196 75.739909 
" clip-path="url(#pc7f63443db)" style="fill: none; stroke: #008000; stroke-width: 1.5; stroke-linecap: square"/>
    <defs>
     <path id="m785bd50977" d="M -4 8 
L 0 4 
L 4 8 
L 8 4 
L 4 0 
L 8 -4 
L 4 -8 
L 0 -4 
L -4 -8 
L -8 -4 
L -4 0 
L -8 4 
z
" style="stroke: #008000; stroke-linejoin: miter"/>
    </defs>
    <g clip-path="url(#pc7f63443db)">
     <use xlink:href="#m785bd50977" x="210.267493" y="524.76108" style="fill: #008000; stroke: #008000; stroke-linejoin: miter"/>
     <use xlink:href="#m785bd50977" x="279.595939" y="475.943924" style="fill: #008000; stroke: #008000; stroke-linejoin: miter"/>
     <use xlink:href="#m785bd50977" x="355.85723" y="422.293385" style="fill: #008000; stroke: #008000; stroke-linejoin: miter"/>
     <use xlink:href="#m785bd50977" x="432.11852" y="368.642847" style="fill: #008000; stroke: #008000; stroke-linejoin: miter"/>
     <use xlink:href="#m785bd50977" x="508.379811" y="314.992309" style="fill: #008000; stroke: #008000; stroke-linejoin: miter"/>
     <use xlink:href="#m785bd50977" x="584.641101" y="261.341771" style="fill: #008000; stroke: #008000; stroke-linejoin: miter"/>
     <use xlink:href="#m785bd50977" x="660.902392" y="207.691233" style="fill: #008000; stroke: #008000; stroke-linejoin: miter"/>
     <use xlink:href="#m785bd50977" x="737.163683" y="154.040695" style="fill: #008000; stroke: #008000; stroke-linejoin: miter"/>
     <use xlink:href="#m785bd50977" x="813.424973" y="100.390156" style="fill: #008000; stroke: #008000; stroke-linejoin: miter"/>
    </g>
   </g>
   <g id="line2d_17">
    <path d="M 161.737581 559.078091 
L 168.670425 553.278033 
L 175.60327 547.961313 
L 182.536115 542.644593 
L 189.468959 537.327873 
L 196.401804 531.527815 
L 203.334648 526.211095 
L 210.267493 520.894375 
L 217.200338 515.577655 
L 224.133182 510.744273 
L 231.066027 505.427553 
L 237.998871 500.110833 
L 244.931716 494.794113 
L 251.864561 489.960731 
L 258.797405 484.644011 
L 265.73025 479.327291 
L 272.663094 474.493909 
L 279.595939 469.177189 
L 286.528784 464.343807 
L 293.461628 459.027087 
L 300.394473 454.193705 
L 307.327317 448.876985 
L 314.260162 444.043604 
L 321.193007 439.210222 
L 328.125851 433.893502 
L 335.058696 429.06012 
L 341.99154 424.226738 
L 348.924385 419.393356 
L 355.85723 414.076636 
L 362.790074 409.243255 
L 369.722919 404.409873 
L 376.655763 399.576491 
L 383.588608 394.743109 
L 390.521453 389.909727 
L 397.454297 384.593007 
L 404.387142 379.759625 
L 411.319986 374.926244 
L 418.252831 370.092862 
L 425.185676 365.25948 
L 432.11852 360.426098 
L 439.051365 355.592716 
L 445.984209 350.759335 
L 452.917054 345.925953 
L 459.849899 341.092571 
L 466.782743 336.259189 
L 473.715588 331.425807 
L 480.648432 326.592425 
L 487.581277 321.759044 
L 494.514122 316.925662 
L 501.446966 312.09228 
L 508.379811 307.258898 
L 515.312655 302.425516 
L 522.2455 297.592135 
L 529.178345 292.758753 
L 536.111189 288.408709 
L 543.044034 283.575327 
L 549.976878 278.741945 
L 556.909723 273.908564 
L 563.842568 269.075182 
L 570.775412 264.2418 
L 577.708257 259.408418 
L 584.641101 255.058375 
L 591.573946 250.224993 
L 598.506791 245.391611 
L 605.439635 240.558229 
L 612.37248 235.724847 
L 619.305324 230.891465 
L 626.238169 226.541422 
L 633.171014 221.70804 
L 640.103858 216.874658 
L 647.036703 212.041276 
L 653.969547 207.207895 
L 660.902392 202.857851 
L 667.835237 198.024469 
L 674.768081 193.191087 
L 681.700926 188.357705 
L 688.63377 184.007662 
L 695.566615 179.17428 
L 702.49946 174.340898 
L 709.432304 169.507516 
L 716.365149 165.157473 
L 723.297993 160.324091 
L 730.230838 155.490709 
L 737.163683 150.657327 
L 744.096527 146.307284 
L 751.029372 141.473902 
L 757.962216 136.64052 
L 764.895061 131.807138 
L 771.827906 127.457095 
L 778.76075 122.623713 
L 785.693595 117.790331 
L 792.626439 113.440287 
L 799.559284 108.606905 
L 806.492128 103.773524 
L 813.424973 98.940142 
L 820.357818 94.590098 
L 827.290662 89.756716 
L 834.223507 84.923335 
L 841.156351 80.573291 
L 848.089196 75.739909 
" clip-path="url(#pc7f63443db)" style="fill: none; stroke: #ff0000; stroke-width: 1.5; stroke-linecap: square"/>
    <defs>
     <path id="m932f432087" d="M -8 8 
L 8 8 
L 8 -8 
L -8 -8 
z
" style="stroke: #ff0000; stroke-linejoin: miter"/>
    </defs>
    <g clip-path="url(#pc7f63443db)">
     <use xlink:href="#m932f432087" x="217.200338" y="515.577655" style="fill: #ff0000; stroke: #ff0000; stroke-linejoin: miter"/>
     <use xlink:href="#m932f432087" x="293.461628" y="459.027087" style="fill: #ff0000; stroke: #ff0000; stroke-linejoin: miter"/>
     <use xlink:href="#m932f432087" x="369.722919" y="404.409873" style="fill: #ff0000; stroke: #ff0000; stroke-linejoin: miter"/>
     <use xlink:href="#m932f432087" x="445.984209" y="350.759335" style="fill: #ff0000; stroke: #ff0000; stroke-linejoin: miter"/>
     <use xlink:href="#m932f432087" x="522.2455" y="297.592135" style="fill: #ff0000; stroke: #ff0000; stroke-linejoin: miter"/>
     <use xlink:href="#m932f432087" x="598.506791" y="245.391611" style="fill: #ff0000; stroke: #ff0000; stroke-linejoin: miter"/>
     <use xlink:href="#m932f432087" x="674.768081" y="193.191087" style="fill: #ff0000; stroke: #ff0000; stroke-linejoin: miter"/>
     <use xlink:href="#m932f432087" x="751.029372" y="141.473902" style="fill: #ff0000; stroke: #ff0000; stroke-linejoin: miter"/>
     <use xlink:href="#m932f432087" x="827.290662" y="89.756716" style="fill: #ff0000; stroke: #ff0000; stroke-linejoin: miter"/>
    </g>
   </g>
   <g id="line2d_18">
    <path d="M 161.737581 559.078091 
L 168.670425 539.744564 
L 175.60327 520.894375 
L 182.536115 503.010862 
L 189.468959 486.094025 
L 196.401804 470.143865 
L 203.334648 454.677044 
L 210.267493 439.69356 
L 217.200338 425.676753 
L 224.133182 412.143284 
L 231.066027 399.576491 
L 237.998871 387.493036 
L 244.931716 375.89292 
L 251.864561 364.776142 
L 258.797405 354.142702 
L 265.73025 343.9926 
L 272.663094 334.325836 
L 279.595939 325.142411 
L 286.528784 315.958985 
L 293.461628 307.742236 
L 300.394473 299.525487 
L 307.327317 291.792076 
L 314.260162 284.058665 
L 321.193007 276.808593 
L 328.125851 270.041858 
L 335.058696 263.275124 
L 341.99154 256.991727 
L 348.924385 250.708331 
L 355.85723 244.908273 
L 362.790074 239.108215 
L 369.722919 233.791495 
L 376.655763 228.474775 
L 383.588608 223.641393 
L 390.521453 218.324673 
L 397.454297 213.974629 
L 404.387142 209.141247 
L 411.319986 204.791204 
L 418.252831 200.44116 
L 425.185676 196.574455 
L 432.11852 192.224411 
L 439.051365 188.357705 
L 445.984209 184.491 
L 452.917054 181.107633 
L 459.849899 177.724265 
L 466.782743 174.340898 
L 473.715588 170.957531 
L 480.648432 167.574164 
L 487.581277 164.674135 
L 494.514122 161.290767 
L 501.446966 158.390738 
L 508.379811 155.974047 
L 515.312655 153.074018 
L 522.2455 150.173989 
L 529.178345 147.757298 
L 536.111189 145.340607 
L 543.044034 142.440578 
L 549.976878 140.023887 
L 556.909723 138.090535 
L 563.842568 135.673844 
L 570.775412 133.257153 
L 577.708257 131.3238 
L 584.641101 128.907109 
L 591.573946 126.973756 
L 598.506791 125.040404 
L 605.439635 123.107051 
L 612.37248 121.173698 
L 619.305324 119.240345 
L 626.238169 117.306993 
L 633.171014 115.37364 
L 640.103858 113.923625 
L 647.036703 111.990273 
L 653.969547 110.540258 
L 660.902392 109.090244 
L 667.835237 107.156891 
L 674.768081 105.706876 
L 681.700926 104.256862 
L 688.63377 102.806847 
L 695.566615 101.356833 
L 702.49946 99.906818 
L 709.432304 98.456804 
L 716.365149 97.006789 
L 723.297993 95.556775 
L 730.230838 94.590098 
L 737.163683 93.140084 
L 744.096527 91.690069 
L 751.029372 90.723393 
L 757.962216 89.273378 
L 764.895061 88.306702 
L 771.827906 87.340025 
L 778.76075 85.890011 
L 785.693595 84.923335 
L 792.626439 83.956658 
L 799.559284 82.506644 
L 806.492128 81.539967 
L 813.424973 80.573291 
L 820.357818 79.606615 
L 827.290662 78.639938 
L 834.223507 77.673262 
L 841.156351 76.706585 
L 848.089196 75.739909 
" clip-path="url(#pc7f63443db)" style="fill: none; stroke: #a52a2a; stroke-width: 1.5; stroke-linecap: square"/>
    <defs>
     <path id="m6daccd2808" d="M 0 -8 
L -8 8 
L 8 8 
z
" style="stroke: #a52a2a; stroke-linejoin: miter"/>
    </defs>
    <g clip-path="url(#pc7f63443db)">
     <use xlink:href="#m6daccd2808" x="196.401804" y="470.143865" style="fill: #a52a2a; stroke: #a52a2a; stroke-linejoin: miter"/>
     <use xlink:href="#m6daccd2808" x="237.998871" y="387.493036" style="fill: #a52a2a; stroke: #a52a2a; stroke-linejoin: miter"/>
     <use xlink:href="#m6daccd2808" x="286.528784" y="315.958985" style="fill: #a52a2a; stroke: #a52a2a; stroke-linejoin: miter"/>
     <use xlink:href="#m6daccd2808" x="348.924385" y="250.708331" style="fill: #a52a2a; stroke: #a52a2a; stroke-linejoin: miter"/>
     <use xlink:href="#m6daccd2808" x="425.185676" y="196.574455" style="fill: #a52a2a; stroke: #a52a2a; stroke-linejoin: miter"/>
     <use xlink:href="#m6daccd2808" x="508.379811" y="155.974047" style="fill: #a52a2a; stroke: #a52a2a; stroke-linejoin: miter"/>
     <use xlink:href="#m6daccd2808" x="598.506791" y="125.040404" style="fill: #a52a2a; stroke: #a52a2a; stroke-linejoin: miter"/>
     <use xlink:href="#m6daccd2808" x="688.63377" y="102.806847" style="fill: #a52a2a; stroke: #a52a2a; stroke-linejoin: miter"/>
     <use xlink:href="#m6daccd2808" x="778.76075" y="85.890011" style="fill: #a52a2a; stroke: #a52a2a; stroke-linejoin: miter"/>
    </g>
   </g>
   <g id="patch_3">
    <path d="M 127.42 583.245 
L 127.42 51.573 
" style="fill: none; stroke: #000000; stroke-width: 0.8; stroke-linejoin: miter; stroke-linecap: square"/>
   </g>
   <g id="patch_4">
    <path d="M 882.406777 583.245 
L 882.406777 51.573 
" style="fill: none; stroke: #000000; stroke-width: 0.8; stroke-linejoin: miter; stroke-linecap: square"/>
   </g>
   <g id="patch_5">
    <path d="M 127.42 583.245 
L 882.406777 583.245 
" style="fill: none; stroke: #000000; stroke-width: 0.8; stroke-linejoin: miter; stroke-linecap: square"/>
   </g>
   <g id="patch_6">
    <path d="M 127.42 51.573 
L 882.406777 51.573 
" style="fill: none; stroke: #000000; stroke-width: 0.8; stroke-linejoin: miter; stroke-linecap: square"/>
   </g>
   <g id="legend_1">
    <g id="patch_7">
     <path d="M 595.836777 567.245 
L 860.006777 567.245 
Q 866.406777 567.245 866.406777 560.845 
L 866.406777 277.54 
Q 866.406777 271.14 860.006777 271.14 
L 595.836777 271.14 
Q 589.436777 271.14 589.436777 277.54 
L 589.436777 560.845 
Q 589.436777 567.245 595.836777 567.245 
z
" style="fill: #ffffff; opacity: 0.8; stroke: #cccccc; stroke-linejoin: miter"/>
    </g>
    <g id="line2d_19">
     <path d="M 602.236777 297.055 
L 634.236777 297.055 
L 666.236777 297.055 
" style="fill: none; stroke: #ff00ff; stroke-width: 1.5; stroke-linecap: square"/>
     <g>
      <use xlink:href="#md837fb00f7" x="634.236777" y="297.055" style="fill: #ff00ff; stroke: #ff00ff"/>
     </g>
    </g>
    <g id="text_15">
     <!-- GWD -->
     <g transform="translate(691.836777 308.255)scale(0.32 -0.32)">
      <defs>
       <path id="DejaVuSerif-47" d="M 4097 3272 
Q 3988 3856 3641 4136 
Q 3294 4416 2675 4416 
Q 1869 4416 1472 3897 
Q 1075 3378 1075 2328 
Q 1075 1300 1484 772 
Q 1894 244 2688 244 
Q 3041 244 3362 331 
Q 3684 419 3975 594 
L 3975 1797 
L 3097 1797 
L 3097 2131 
L 4609 2131 
L 4609 391 
Q 4194 150 3714 29 
Q 3234 -91 2688 -91 
Q 1631 -91 995 570 
Q 359 1231 359 2328 
Q 359 3434 996 4092 
Q 1634 4750 2713 4750 
Q 3113 4750 3539 4658 
Q 3966 4566 4447 4378 
L 4447 3272 
L 4097 3272 
z
" transform="scale(0.015625)"/>
       <path id="DejaVuSerif-57" d="M 4878 0 
L 4366 0 
L 3297 3794 
L 2228 0 
L 1716 0 
L 494 4331 
L 31 4331 
L 31 4666 
L 1734 4666 
L 1734 4331 
L 1153 4331 
L 2125 884 
L 3188 4666 
L 3694 4666 
L 4775 844 
L 5753 4331 
L 5216 4331 
L 5216 4666 
L 6559 4666 
L 6559 4331 
L 6100 4331 
L 4878 0 
z
" transform="scale(0.015625)"/>
       <path id="DejaVuSerif-44" d="M 1581 331 
L 2163 331 
Q 3072 331 3558 850 
Q 4044 1369 4044 2338 
Q 4044 3306 3559 3818 
Q 3075 4331 2163 4331 
L 1581 4331 
L 1581 331 
z
M 353 0 
L 353 331 
L 947 331 
L 947 4331 
L 353 4331 
L 353 4666 
L 2209 4666 
Q 3416 4666 4089 4050 
Q 4763 3434 4763 2338 
Q 4763 1238 4088 619 
Q 3413 0 2209 0 
L 353 0 
z
" transform="scale(0.015625)"/>
      </defs>
      <use xlink:href="#DejaVuSerif-47"/>
      <use xlink:href="#DejaVuSerif-57" x="79.882812"/>
      <use xlink:href="#DejaVuSerif-44" x="182.666016"/>
     </g>
    </g>
    <g id="line2d_20">
     <path d="M 602.236777 344.025 
L 634.236777 344.025 
L 666.236777 344.025 
" style="fill: none; stroke: #0000ff; stroke-width: 1.5; stroke-linecap: square"/>
     <g>
      <use xlink:href="#m878b4602ca" x="634.236777" y="344.025" style="fill: #0000ff; stroke: #0000ff; stroke-linejoin: miter"/>
     </g>
    </g>
    <g id="text_16">
     <!-- 1 - GIoU -->
     <g transform="translate(691.836777 355.225)scale(0.32 -0.32)">
      <defs>
       <path id="DejaVuSerif-2d" d="M 281 1959 
L 1881 1959 
L 1881 1472 
L 281 1472 
L 281 1959 
z
" transform="scale(0.015625)"/>
       <path id="DejaVuSerif-49" d="M 1581 331 
L 2175 331 
L 2175 0 
L 353 0 
L 353 331 
L 947 331 
L 947 4331 
L 353 4331 
L 353 4666 
L 2175 4666 
L 2175 4331 
L 1581 4331 
L 1581 331 
z
" transform="scale(0.015625)"/>
       <path id="DejaVuSerif-55" d="M 897 4331 
L 300 4331 
L 300 4666 
L 2125 4666 
L 2125 4331 
L 1528 4331 
L 1528 1919 
Q 1528 1025 1820 672 
Q 2113 319 2828 319 
Q 3544 319 3836 672 
Q 4128 1025 4128 1919 
L 4128 4331 
L 3531 4331 
L 3531 4666 
L 5106 4666 
L 5106 4331 
L 4513 4331 
L 4513 1856 
Q 4513 791 4103 350 
Q 3694 -91 2713 -91 
Q 1731 -91 1314 353 
Q 897 797 897 1856 
L 897 4331 
z
" transform="scale(0.015625)"/>
      </defs>
      <use xlink:href="#DejaVuSerif-31"/>
      <use xlink:href="#DejaVuSerif-20" x="63.623047"/>
      <use xlink:href="#DejaVuSerif-2d" x="95.410156"/>
      <use xlink:href="#DejaVuSerif-20" x="129.199219"/>
      <use xlink:href="#DejaVuSerif-47" x="160.986328"/>
      <use xlink:href="#DejaVuSerif-49" x="240.869141"/>
      <use xlink:href="#DejaVuSerif-6f" x="280.371094"/>
      <use xlink:href="#DejaVuSerif-55" x="340.576172"/>
     </g>
    </g>
    <g id="line2d_21">
     <path d="M 602.236777 390.995 
L 634.236777 390.995 
L 666.236777 390.995 
" style="fill: none; stroke: #ffa500; stroke-width: 1.5; stroke-linecap: square"/>
     <g>
      <use xlink:href="#m9358b31c4e" x="634.236777" y="390.995" style="fill: #ffa500; stroke: #ffa500; stroke-linejoin: bevel"/>
     </g>
    </g>
    <g id="text_17">
     <!-- OSPA-100 -->
     <g transform="translate(691.836777 402.195)scale(0.32 -0.32)">
      <defs>
       <path id="DejaVuSerif-4f" d="M 2625 244 
Q 3391 244 3781 770 
Q 4172 1297 4172 2328 
Q 4172 3363 3781 3889 
Q 3391 4416 2625 4416 
Q 1856 4416 1465 3889 
Q 1075 3363 1075 2328 
Q 1075 1297 1465 770 
Q 1856 244 2625 244 
z
M 2625 -91 
Q 2150 -91 1751 65 
Q 1353 222 1050 525 
Q 700 875 529 1319 
Q 359 1763 359 2328 
Q 359 2894 529 3339 
Q 700 3784 1050 4134 
Q 1356 4441 1750 4595 
Q 2144 4750 2625 4750 
Q 3641 4750 4266 4084 
Q 4891 3419 4891 2328 
Q 4891 1769 4719 1320 
Q 4547 872 4197 525 
Q 3891 219 3497 64 
Q 3103 -91 2625 -91 
z
" transform="scale(0.015625)"/>
       <path id="DejaVuSerif-50" d="M 1581 2375 
L 2406 2375 
Q 2872 2375 3115 2626 
Q 3359 2878 3359 3353 
Q 3359 3831 3115 4081 
Q 2872 4331 2406 4331 
L 1581 4331 
L 1581 2375 
z
M 353 0 
L 353 331 
L 947 331 
L 947 4331 
L 353 4331 
L 353 4666 
L 2559 4666 
Q 3259 4666 3668 4311 
Q 4078 3956 4078 3353 
Q 4078 2753 3668 2397 
Q 3259 2041 2559 2041 
L 1581 2041 
L 1581 331 
L 2303 331 
L 2303 0 
L 353 0 
z
" transform="scale(0.015625)"/>
       <path id="DejaVuSerif-41" d="M 1281 1691 
L 2994 1691 
L 2138 3909 
L 1281 1691 
z
M -38 0 
L -38 331 
L 372 331 
L 2034 4666 
L 2559 4666 
L 4225 331 
L 4684 331 
L 4684 0 
L 2988 0 
L 2988 331 
L 3506 331 
L 3116 1356 
L 1153 1356 
L 763 331 
L 1275 331 
L 1275 0 
L -38 0 
z
" transform="scale(0.015625)"/>
      </defs>
      <use xlink:href="#DejaVuSerif-4f"/>
      <use xlink:href="#DejaVuSerif-53" x="81.982422"/>
      <use xlink:href="#DejaVuSerif-50" x="150.488281"/>
      <use xlink:href="#DejaVuSerif-41" x="208.648438"/>
      <use xlink:href="#DejaVuSerif-2d" x="280.865234"/>
      <use xlink:href="#DejaVuSerif-31" x="314.654297"/>
      <use xlink:href="#DejaVuSerif-30" x="378.277344"/>
      <use xlink:href="#DejaVuSerif-30" x="441.900391"/>
     </g>
    </g>
    <g id="line2d_22">
     <path d="M 602.236777 437.965 
L 634.236777 437.965 
L 666.236777 437.965 
" style="fill: none; stroke: #008000; stroke-width: 1.5; stroke-linecap: square"/>
     <g>
      <use xlink:href="#m785bd50977" x="634.236777" y="437.965" style="fill: #008000; stroke: #008000; stroke-linejoin: miter"/>
     </g>
    </g>
    <g id="text_18">
     <!-- GWS -->
     <g transform="translate(691.836777 449.165)scale(0.32 -0.32)">
      <use xlink:href="#DejaVuSerif-47"/>
      <use xlink:href="#DejaVuSerif-57" x="79.882812"/>
      <use xlink:href="#DejaVuSerif-53" x="182.666016"/>
     </g>
    </g>
    <g id="line2d_23">
     <path d="M 602.236777 489.165 
L 634.236777 489.165 
L 666.236777 489.165 
" style="fill: none; stroke: #ff0000; stroke-width: 1.5; stroke-linecap: square"/>
     <g>
      <use xlink:href="#m932f432087" x="634.236777" y="489.165" style="fill: #ff0000; stroke: #ff0000; stroke-linejoin: miter"/>
     </g>
    </g>
    <g id="text_19">
     <!-- $\sqrt{\mathrm{KLD}}$ -->
     <g transform="translate(691.836777 500.365)scale(0.32 -0.32)">
      <defs>
       <path id="STIXSizeOneSym-Regular-221a" d="M 6970 9933 
L 3373 -1888 
L 3104 -1888 
L 1626 2918 
Q 1555 3149 1465 3251 
Q 1376 3354 1229 3354 
Q 1011 3354 794 3181 
L 717 3309 
L 1766 4115 
L 1926 4115 
L 3379 -602 
L 3405 -602 
L 6605 9933 
L 6970 9933 
z
" transform="scale(0.015625)"/>
       <path id="DejaVuSans-4b" d="M 628 4666 
L 1259 4666 
L 1259 2694 
L 3353 4666 
L 4166 4666 
L 1850 2491 
L 4331 0 
L 3500 0 
L 1259 2247 
L 1259 0 
L 628 0 
L 628 4666 
z
" transform="scale(0.015625)"/>
       <path id="DejaVuSans-4c" d="M 628 4666 
L 1259 4666 
L 1259 531 
L 3531 531 
L 3531 0 
L 628 0 
L 628 4666 
z
" transform="scale(0.015625)"/>
       <path id="DejaVuSans-44" d="M 1259 4147 
L 1259 519 
L 2022 519 
Q 2988 519 3436 956 
Q 3884 1394 3884 2338 
Q 3884 3275 3436 3711 
Q 2988 4147 2022 4147 
L 1259 4147 
z
M 628 4666 
L 1925 4666 
Q 3281 4666 3915 4102 
Q 4550 3538 4550 2338 
Q 4550 1131 3912 565 
Q 3275 0 1925 0 
L 628 0 
L 628 4666 
z
" transform="scale(0.015625)"/>
      </defs>
      <use xlink:href="#STIXSizeOneSym-Regular-221a" transform="translate(0 17.09375)scale(0.563912)"/>
      <use xlink:href="#DejaVuSans-4b" transform="translate(72.088364 0.84375)"/>
      <use xlink:href="#DejaVuSans-4c" transform="translate(137.664536 0.84375)"/>
      <use xlink:href="#DejaVuSans-44" transform="translate(193.377426 0.84375)"/>
      <path d="M 59.588364 97.5 
L 59.588364 103.75 
L 282.879379 103.75 
L 282.879379 97.5 
L 59.588364 97.5 
z
"/>
     </g>
    </g>
    <g id="line2d_24">
     <path d="M 602.236777 536.135 
L 634.236777 536.135 
L 666.236777 536.135 
" style="fill: none; stroke: #a52a2a; stroke-width: 1.5; stroke-linecap: square"/>
     <g>
      <use xlink:href="#m6daccd2808" x="634.236777" y="536.135" style="fill: #a52a2a; stroke: #a52a2a; stroke-linejoin: miter"/>
     </g>
    </g>
    <g id="text_20">
     <!-- Hellinger -->
     <g transform="translate(691.836777 547.335)scale(0.32 -0.32)">
      <defs>
       <path id="DejaVuSerif-48" d="M 353 0 
L 353 331 
L 947 331 
L 947 4331 
L 353 4331 
L 353 4666 
L 2175 4666 
L 2175 4331 
L 1581 4331 
L 1581 2719 
L 4000 2719 
L 4000 4331 
L 3406 4331 
L 3406 4666 
L 5228 4666 
L 5228 4331 
L 4634 4331 
L 4634 331 
L 5228 331 
L 5228 0 
L 3406 0 
L 3406 331 
L 4000 331 
L 4000 2338 
L 1581 2338 
L 1581 331 
L 2175 331 
L 2175 0 
L 353 0 
z
" transform="scale(0.015625)"/>
      </defs>
      <use xlink:href="#DejaVuSerif-48"/>
      <use xlink:href="#DejaVuSerif-65" x="87.207031"/>
      <use xlink:href="#DejaVuSerif-6c" x="146.386719"/>
      <use xlink:href="#DejaVuSerif-6c" x="178.369141"/>
      <use xlink:href="#DejaVuSerif-69" x="210.351562"/>
      <use xlink:href="#DejaVuSerif-6e" x="242.333984"/>
      <use xlink:href="#DejaVuSerif-67" x="306.738281"/>
      <use xlink:href="#DejaVuSerif-65" x="370.751953"/>
      <use xlink:href="#DejaVuSerif-72" x="429.931641"/>
     </g>
    </g>
   </g>
  </g>
 </g>
 <defs>
  <clipPath id="pc7f63443db">
   <rect x="127.42" y="51.573" width="754.986777" height="531.672"/>
  </clipPath>
 </defs>
</svg>
