<?xml version="1.0" encoding="utf-8" standalone="no"?>
<!DOCTYPE svg PUBLIC "-//W3C//DTD SVG 1.1//EN"
  "http://www.w3.org/Graphics/SVG/1.1/DTD/svg11.dtd">
<svg xmlns:xlink="http://www.w3.org/1999/xlink" width="921.6pt" height="691.2pt" viewBox="0 0 921.6 691.2" xmlns="http://www.w3.org/2000/svg" version="1.1">
 <metadata>
  <rdf:RDF xmlns:dc="http://purl.org/dc/elements/1.1/" xmlns:cc="http://creativecommons.org/ns#" xmlns:rdf="http://www.w3.org/1999/02/22-rdf-syntax-ns#">
   <cc:Work>
    <dc:type rdf:resource="http://purl.org/dc/dcmitype/StillImage"/>
    <dc:date>2023-04-25T10:35:04.762861</dc:date>
    <dc:format>image/svg+xml</dc:format>
    <dc:creator>
     <cc:Agent>
      <dc:title>Matplotlib v3.5.1, https://matplotlib.org/</dc:title>
     </cc:Agent>
    </dc:creator>
   </cc:Work>
  </rdf:RDF>
 </metadata>
 <defs>
  <style type="text/css">*{stroke-linejoin: round; stroke-linecap: butt}</style>
 </defs>
 <g id="figure_1">
  <g id="patch_1">
   <path d="M 0 691.2 
L 921.6 691.2 
L 921.6 0 
L 0 0 
z
" style="fill: #ffffff"/>
  </g>
  <g id="axes_1">
   <g id="patch_2">
    <path d="M 127.42 583.245 
L 887.04 583.245 
L 887.04 51.573 
L 127.42 51.573 
z
" style="fill: #ffffff"/>
   </g>
   <g id="matplotlib.axis_1">
    <g id="xtick_1">
     <g id="line2d_1">
      <defs>
       <path id="m6306c31a21" d="M 0 0 
L 0 3.5 
" style="stroke: #000000; stroke-width: 0.8"/>
      </defs>
      <g>
       <use xlink:href="#m6306c31a21" x="238.677475" y="583.245" style="stroke: #000000; stroke-width: 0.8"/>
      </g>
     </g>
     <g id="text_1">
      <!-- 2 -->
      <g transform="translate(228.497475 614.56)scale(0.32 -0.32)">
       <defs>
        <path id="DejaVuSerif-32" d="M 819 3553 
L 469 3553 
L 469 4384 
Q 803 4563 1142 4656 
Q 1481 4750 1806 4750 
Q 2534 4750 2956 4397 
Q 3378 4044 3378 3438 
Q 3378 2753 2422 1800 
Q 2347 1728 2309 1691 
L 1131 513 
L 3078 513 
L 3078 1088 
L 3444 1088 
L 3444 0 
L 434 0 
L 434 341 
L 1850 1753 
Q 2319 2222 2519 2614 
Q 2719 3006 2719 3438 
Q 2719 3909 2473 4175 
Q 2228 4441 1797 4441 
Q 1350 4441 1106 4219 
Q 863 3997 819 3553 
z
" transform="scale(0.015625)"/>
       </defs>
       <use xlink:href="#DejaVuSerif-32"/>
      </g>
     </g>
    </g>
    <g id="xtick_2">
     <g id="line2d_2">
      <g>
       <use xlink:href="#m6306c31a21" x="392.136061" y="583.245" style="stroke: #000000; stroke-width: 0.8"/>
      </g>
     </g>
     <g id="text_2">
      <!-- 4 -->
      <g transform="translate(381.956061 614.56)scale(0.32 -0.32)">
       <defs>
        <path id="DejaVuSerif-34" d="M 2234 1581 
L 2234 4063 
L 641 1581 
L 2234 1581 
z
M 3609 0 
L 1484 0 
L 1484 331 
L 2234 331 
L 2234 1247 
L 197 1247 
L 197 1588 
L 2241 4750 
L 2859 4750 
L 2859 1581 
L 3750 1581 
L 3750 1247 
L 2859 1247 
L 2859 331 
L 3609 331 
L 3609 0 
z
" transform="scale(0.015625)"/>
       </defs>
       <use xlink:href="#DejaVuSerif-34"/>
      </g>
     </g>
    </g>
    <g id="xtick_3">
     <g id="line2d_3">
      <g>
       <use xlink:href="#m6306c31a21" x="545.594646" y="583.245" style="stroke: #000000; stroke-width: 0.8"/>
      </g>
     </g>
     <g id="text_3">
      <!-- 6 -->
      <g transform="translate(535.414646 614.56)scale(0.32 -0.32)">
       <defs>
        <path id="DejaVuSerif-36" d="M 2094 219 
Q 2534 219 2771 542 
Q 3009 866 3009 1472 
Q 3009 2078 2771 2401 
Q 2534 2725 2094 2725 
Q 1647 2725 1412 2412 
Q 1178 2100 1178 1509 
Q 1178 888 1415 553 
Q 1653 219 2094 219 
z
M 1075 2569 
Q 1288 2803 1556 2918 
Q 1825 3034 2163 3034 
Q 2859 3034 3264 2615 
Q 3669 2197 3669 1472 
Q 3669 763 3233 336 
Q 2797 -91 2069 -91 
Q 1278 -91 853 498 
Q 428 1088 428 2181 
Q 428 3406 931 4078 
Q 1434 4750 2350 4750 
Q 2597 4750 2869 4703 
Q 3141 4656 3425 4563 
L 3425 3794 
L 3072 3794 
Q 3034 4109 2831 4275 
Q 2628 4441 2284 4441 
Q 1678 4441 1381 3981 
Q 1084 3522 1075 2569 
z
" transform="scale(0.015625)"/>
       </defs>
       <use xlink:href="#DejaVuSerif-36"/>
      </g>
     </g>
    </g>
    <g id="xtick_4">
     <g id="line2d_4">
      <g>
       <use xlink:href="#m6306c31a21" x="699.053232" y="583.245" style="stroke: #000000; stroke-width: 0.8"/>
      </g>
     </g>
     <g id="text_4">
      <!-- 8 -->
      <g transform="translate(688.873232 614.56)scale(0.32 -0.32)">
       <defs>
        <path id="DejaVuSerif-38" d="M 2981 1275 
Q 2981 1775 2732 2051 
Q 2484 2328 2034 2328 
Q 1584 2328 1336 2051 
Q 1088 1775 1088 1275 
Q 1088 772 1336 495 
Q 1584 219 2034 219 
Q 2484 219 2732 495 
Q 2981 772 2981 1275 
z
M 2853 3541 
Q 2853 3966 2637 4203 
Q 2422 4441 2034 4441 
Q 1650 4441 1433 4203 
Q 1216 3966 1216 3541 
Q 1216 3113 1433 2875 
Q 1650 2638 2034 2638 
Q 2422 2638 2637 2875 
Q 2853 3113 2853 3541 
z
M 2516 2484 
Q 3047 2413 3344 2092 
Q 3641 1772 3641 1275 
Q 3641 619 3225 264 
Q 2809 -91 2034 -91 
Q 1263 -91 845 264 
Q 428 619 428 1275 
Q 428 1772 725 2092 
Q 1022 2413 1556 2484 
Q 1084 2569 832 2842 
Q 581 3116 581 3541 
Q 581 4103 968 4426 
Q 1356 4750 2034 4750 
Q 2713 4750 3100 4426 
Q 3488 4103 3488 3541 
Q 3488 3116 3236 2842 
Q 2984 2569 2516 2484 
z
" transform="scale(0.015625)"/>
       </defs>
       <use xlink:href="#DejaVuSerif-38"/>
      </g>
     </g>
    </g>
    <g id="xtick_5">
     <g id="line2d_5">
      <g>
       <use xlink:href="#m6306c31a21" x="852.511818" y="583.245" style="stroke: #000000; stroke-width: 0.8"/>
      </g>
     </g>
     <g id="text_5">
      <!-- 10 -->
      <g transform="translate(832.151818 614.56)scale(0.32 -0.32)">
       <defs>
        <path id="DejaVuSerif-31" d="M 909 0 
L 909 331 
L 1722 331 
L 1722 4213 
L 781 3603 
L 781 4013 
L 1919 4750 
L 2350 4750 
L 2350 331 
L 3163 331 
L 3163 0 
L 909 0 
z
" transform="scale(0.015625)"/>
        <path id="DejaVuSerif-30" d="M 2034 219 
Q 2513 219 2750 744 
Q 2988 1269 2988 2328 
Q 2988 3391 2750 3916 
Q 2513 4441 2034 4441 
Q 1556 4441 1318 3916 
Q 1081 3391 1081 2328 
Q 1081 1269 1318 744 
Q 1556 219 2034 219 
z
M 2034 -91 
Q 1275 -91 848 546 
Q 422 1184 422 2328 
Q 422 3475 848 4112 
Q 1275 4750 2034 4750 
Q 2797 4750 3222 4112 
Q 3647 3475 3647 2328 
Q 3647 1184 3222 546 
Q 2797 -91 2034 -91 
z
" transform="scale(0.015625)"/>
       </defs>
       <use xlink:href="#DejaVuSerif-31"/>
       <use xlink:href="#DejaVuSerif-30" x="63.623047"/>
      </g>
     </g>
    </g>
    <g id="text_6">
     <!-- Scaling Factor -->
     <g transform="translate(389.67 649.53)scale(0.32 -0.32)">
      <defs>
       <path id="DejaVuSerif-53" d="M 594 225 
L 594 1288 
L 953 1284 
Q 969 753 1261 498 
Q 1553 244 2150 244 
Q 2706 244 2998 464 
Q 3291 684 3291 1106 
Q 3291 1444 3114 1625 
Q 2938 1806 2369 1978 
L 1753 2163 
Q 1084 2366 811 2669 
Q 538 2972 538 3500 
Q 538 4094 959 4422 
Q 1381 4750 2144 4750 
Q 2469 4750 2856 4679 
Q 3244 4609 3681 4475 
L 3681 3481 
L 3328 3481 
Q 3275 3975 2998 4195 
Q 2722 4416 2156 4416 
Q 1663 4416 1405 4214 
Q 1147 4013 1147 3628 
Q 1147 3294 1340 3103 
Q 1534 2913 2163 2725 
L 2741 2553 
Q 3375 2363 3645 2067 
Q 3916 1772 3916 1275 
Q 3916 597 3481 253 
Q 3047 -91 2188 -91 
Q 1803 -91 1404 -12 
Q 1006 66 594 225 
z
" transform="scale(0.015625)"/>
       <path id="DejaVuSerif-63" d="M 3291 997 
Q 3169 466 2822 187 
Q 2475 -91 1925 -91 
Q 1200 -91 759 389 
Q 319 869 319 1663 
Q 319 2459 759 2936 
Q 1200 3413 1925 3413 
Q 2241 3413 2553 3339 
Q 2866 3266 3181 3116 
L 3181 2266 
L 2847 2266 
Q 2781 2703 2561 2903 
Q 2341 3103 1931 3103 
Q 1466 3103 1228 2742 
Q 991 2381 991 1663 
Q 991 944 1227 581 
Q 1463 219 1931 219 
Q 2303 219 2525 412 
Q 2747 606 2828 997 
L 3291 997 
z
" transform="scale(0.015625)"/>
       <path id="DejaVuSerif-61" d="M 2547 1044 
L 2547 1747 
L 1806 1747 
Q 1378 1747 1168 1562 
Q 959 1378 959 997 
Q 959 650 1171 447 
Q 1384 244 1747 244 
Q 2106 244 2326 466 
Q 2547 688 2547 1044 
z
M 3122 2075 
L 3122 331 
L 3634 331 
L 3634 0 
L 2547 0 
L 2547 359 
Q 2356 128 2106 18 
Q 1856 -91 1522 -91 
Q 969 -91 644 203 
Q 319 497 319 997 
Q 319 1513 691 1797 
Q 1063 2081 1741 2081 
L 2547 2081 
L 2547 2309 
Q 2547 2688 2317 2895 
Q 2088 3103 1672 3103 
Q 1328 3103 1125 2947 
Q 922 2791 872 2484 
L 575 2484 
L 575 3156 
Q 875 3284 1158 3348 
Q 1441 3413 1709 3413 
Q 2400 3413 2761 3070 
Q 3122 2728 3122 2075 
z
" transform="scale(0.015625)"/>
       <path id="DejaVuSerif-6c" d="M 1313 331 
L 1856 331 
L 1856 0 
L 184 0 
L 184 331 
L 738 331 
L 738 4531 
L 184 4531 
L 184 4863 
L 1313 4863 
L 1313 331 
z
" transform="scale(0.015625)"/>
       <path id="DejaVuSerif-69" d="M 622 4353 
Q 622 4497 726 4603 
Q 831 4709 978 4709 
Q 1122 4709 1226 4603 
Q 1331 4497 1331 4353 
Q 1331 4206 1228 4103 
Q 1125 4000 978 4000 
Q 831 4000 726 4103 
Q 622 4206 622 4353 
z
M 1356 331 
L 1900 331 
L 1900 0 
L 231 0 
L 231 331 
L 781 331 
L 781 2988 
L 231 2988 
L 231 3322 
L 1356 3322 
L 1356 331 
z
" transform="scale(0.015625)"/>
       <path id="DejaVuSerif-6e" d="M 263 0 
L 263 331 
L 781 331 
L 781 2988 
L 231 2988 
L 231 3322 
L 1356 3322 
L 1356 2731 
Q 1516 3069 1770 3241 
Q 2025 3413 2363 3413 
Q 2913 3413 3172 3097 
Q 3431 2781 3431 2113 
L 3431 331 
L 3944 331 
L 3944 0 
L 2356 0 
L 2356 331 
L 2853 331 
L 2853 1931 
Q 2853 2541 2703 2767 
Q 2553 2994 2175 2994 
Q 1775 2994 1565 2701 
Q 1356 2409 1356 1850 
L 1356 331 
L 1856 331 
L 1856 0 
L 263 0 
z
" transform="scale(0.015625)"/>
       <path id="DejaVuSerif-67" d="M 3359 2988 
L 3359 72 
Q 3359 -644 2965 -1033 
Q 2572 -1422 1844 -1422 
Q 1516 -1422 1216 -1362 
Q 916 -1303 641 -1184 
L 641 -488 
L 941 -488 
Q 997 -813 1206 -963 
Q 1416 -1113 1806 -1113 
Q 2313 -1113 2548 -827 
Q 2784 -541 2784 72 
L 2784 519 
Q 2616 206 2355 57 
Q 2094 -91 1709 -91 
Q 1097 -91 708 395 
Q 319 881 319 1663 
Q 319 2444 706 2928 
Q 1094 3413 1709 3413 
Q 2094 3413 2355 3264 
Q 2616 3116 2784 2803 
L 2784 3322 
L 3909 3322 
L 3909 2988 
L 3359 2988 
z
M 2784 1825 
Q 2784 2422 2554 2737 
Q 2325 3053 1888 3053 
Q 1444 3053 1217 2703 
Q 991 2353 991 1663 
Q 991 975 1217 622 
Q 1444 269 1888 269 
Q 2325 269 2554 583 
Q 2784 897 2784 1497 
L 2784 1825 
z
" transform="scale(0.015625)"/>
       <path id="DejaVuSerif-20" transform="scale(0.015625)"/>
       <path id="DejaVuSerif-46" d="M 353 0 
L 353 331 
L 947 331 
L 947 4331 
L 353 4331 
L 353 4666 
L 4172 4666 
L 4172 3628 
L 3788 3628 
L 3788 4281 
L 1581 4281 
L 1581 2719 
L 3175 2719 
L 3175 3303 
L 3559 3303 
L 3559 1753 
L 3175 1753 
L 3175 2338 
L 1581 2338 
L 1581 331 
L 2328 331 
L 2328 0 
L 353 0 
z
" transform="scale(0.015625)"/>
       <path id="DejaVuSerif-74" d="M 691 2988 
L 184 2988 
L 184 3322 
L 691 3322 
L 691 4353 
L 1269 4353 
L 1269 3322 
L 2350 3322 
L 2350 2988 
L 1269 2988 
L 1269 878 
Q 1269 456 1350 337 
Q 1431 219 1650 219 
Q 1875 219 1978 351 
Q 2081 484 2088 781 
L 2522 781 
Q 2497 328 2275 118 
Q 2053 -91 1600 -91 
Q 1103 -91 897 129 
Q 691 350 691 878 
L 691 2988 
z
" transform="scale(0.015625)"/>
       <path id="DejaVuSerif-6f" d="M 1925 219 
Q 2388 219 2623 584 
Q 2859 950 2859 1663 
Q 2859 2375 2623 2739 
Q 2388 3103 1925 3103 
Q 1463 3103 1227 2739 
Q 991 2375 991 1663 
Q 991 950 1228 584 
Q 1466 219 1925 219 
z
M 1925 -91 
Q 1200 -91 759 389 
Q 319 869 319 1663 
Q 319 2456 758 2934 
Q 1197 3413 1925 3413 
Q 2653 3413 3092 2934 
Q 3531 2456 3531 1663 
Q 3531 869 3092 389 
Q 2653 -91 1925 -91 
z
" transform="scale(0.015625)"/>
       <path id="DejaVuSerif-72" d="M 3059 3328 
L 3059 2497 
L 2728 2497 
Q 2713 2744 2591 2866 
Q 2469 2988 2234 2988 
Q 1809 2988 1582 2694 
Q 1356 2400 1356 1850 
L 1356 331 
L 2022 331 
L 2022 0 
L 263 0 
L 263 331 
L 781 331 
L 781 2994 
L 231 2994 
L 231 3322 
L 1356 3322 
L 1356 2731 
Q 1525 3078 1790 3245 
Q 2056 3413 2438 3413 
Q 2578 3413 2733 3391 
Q 2888 3369 3059 3328 
z
" transform="scale(0.015625)"/>
      </defs>
      <use xlink:href="#DejaVuSerif-53"/>
      <use xlink:href="#DejaVuSerif-63" x="68.505859"/>
      <use xlink:href="#DejaVuSerif-61" x="124.511719"/>
      <use xlink:href="#DejaVuSerif-6c" x="184.130859"/>
      <use xlink:href="#DejaVuSerif-69" x="216.113281"/>
      <use xlink:href="#DejaVuSerif-6e" x="248.095703"/>
      <use xlink:href="#DejaVuSerif-67" x="312.5"/>
      <use xlink:href="#DejaVuSerif-20" x="376.513672"/>
      <use xlink:href="#DejaVuSerif-46" x="408.300781"/>
      <use xlink:href="#DejaVuSerif-61" x="470.935547"/>
      <use xlink:href="#DejaVuSerif-63" x="530.554688"/>
      <use xlink:href="#DejaVuSerif-74" x="586.560547"/>
      <use xlink:href="#DejaVuSerif-6f" x="626.746094"/>
      <use xlink:href="#DejaVuSerif-72" x="686.951172"/>
     </g>
    </g>
   </g>
   <g id="matplotlib.axis_2">
    <g id="ytick_1">
     <g id="line2d_6">
      <defs>
       <path id="m94397df4e6" d="M 0 0 
L -3.5 0 
" style="stroke: #000000; stroke-width: 0.8"/>
      </defs>
      <g>
       <use xlink:href="#m94397df4e6" x="127.42" y="505.373848" style="stroke: #000000; stroke-width: 0.8"/>
      </g>
     </g>
     <g id="text_7">
      <!-- 0.2 -->
      <g transform="translate(69.53 517.531348)scale(0.32 -0.32)">
       <defs>
        <path id="DejaVuSerif-2e" d="M 603 325 
Q 603 500 722 622 
Q 841 744 1019 744 
Q 1191 744 1312 622 
Q 1434 500 1434 325 
Q 1434 153 1312 31 
Q 1191 -91 1019 -91 
Q 841 -91 722 29 
Q 603 150 603 325 
z
" transform="scale(0.015625)"/>
       </defs>
       <use xlink:href="#DejaVuSerif-30"/>
       <use xlink:href="#DejaVuSerif-2e" x="63.623047"/>
       <use xlink:href="#DejaVuSerif-32" x="95.410156"/>
      </g>
     </g>
    </g>
    <g id="ytick_2">
     <g id="line2d_7">
      <g>
       <use xlink:href="#m94397df4e6" x="127.42" y="397.965364" style="stroke: #000000; stroke-width: 0.8"/>
      </g>
     </g>
     <g id="text_8">
      <!-- 0.4 -->
      <g transform="translate(69.53 410.122864)scale(0.32 -0.32)">
       <use xlink:href="#DejaVuSerif-30"/>
       <use xlink:href="#DejaVuSerif-2e" x="63.623047"/>
       <use xlink:href="#DejaVuSerif-34" x="95.410156"/>
      </g>
     </g>
    </g>
    <g id="ytick_3">
     <g id="line2d_8">
      <g>
       <use xlink:href="#m94397df4e6" x="127.42" y="290.556879" style="stroke: #000000; stroke-width: 0.8"/>
      </g>
     </g>
     <g id="text_9">
      <!-- 0.6 -->
      <g transform="translate(69.53 302.714379)scale(0.32 -0.32)">
       <use xlink:href="#DejaVuSerif-30"/>
       <use xlink:href="#DejaVuSerif-2e" x="63.623047"/>
       <use xlink:href="#DejaVuSerif-36" x="95.410156"/>
      </g>
     </g>
    </g>
    <g id="ytick_4">
     <g id="line2d_9">
      <g>
       <use xlink:href="#m94397df4e6" x="127.42" y="183.148394" style="stroke: #000000; stroke-width: 0.8"/>
      </g>
     </g>
     <g id="text_10">
      <!-- 0.8 -->
      <g transform="translate(69.53 195.305894)scale(0.32 -0.32)">
       <use xlink:href="#DejaVuSerif-30"/>
       <use xlink:href="#DejaVuSerif-2e" x="63.623047"/>
       <use xlink:href="#DejaVuSerif-38" x="95.410156"/>
      </g>
     </g>
    </g>
    <g id="ytick_5">
     <g id="line2d_10">
      <g>
       <use xlink:href="#m94397df4e6" x="127.42" y="75.739909" style="stroke: #000000; stroke-width: 0.8"/>
      </g>
     </g>
     <g id="text_11">
      <!-- 1.0 -->
      <g transform="translate(69.53 87.897409)scale(0.32 -0.32)">
       <use xlink:href="#DejaVuSerif-31"/>
       <use xlink:href="#DejaVuSerif-2e" x="63.623047"/>
       <use xlink:href="#DejaVuSerif-30" x="95.410156"/>
      </g>
     </g>
    </g>
    <g id="text_12">
     <!-- Metric Result / max(Metric Result) -->
     <g transform="translate(58.875 600.534)rotate(-90)scale(0.32 -0.32)">
      <defs>
       <path id="DejaVuSerif-4d" d="M 353 0 
L 353 331 
L 947 331 
L 947 4331 
L 319 4331 
L 319 4666 
L 1678 4666 
L 3316 1344 
L 4953 4666 
L 6228 4666 
L 6228 4331 
L 5606 4331 
L 5606 331 
L 6203 331 
L 6203 0 
L 4378 0 
L 4378 331 
L 4972 331 
L 4972 3938 
L 3372 684 
L 2931 684 
L 1331 3938 
L 1331 331 
L 1925 331 
L 1925 0 
L 353 0 
z
" transform="scale(0.015625)"/>
       <path id="DejaVuSerif-65" d="M 3469 1600 
L 991 1600 
L 991 1575 
Q 991 903 1244 561 
Q 1497 219 1991 219 
Q 2369 219 2611 417 
Q 2853 616 2950 1006 
L 3413 1006 
Q 3275 459 2904 184 
Q 2534 -91 1931 -91 
Q 1203 -91 761 389 
Q 319 869 319 1663 
Q 319 2450 753 2931 
Q 1188 3413 1894 3413 
Q 2647 3413 3050 2948 
Q 3453 2484 3469 1600 
z
M 2791 1931 
Q 2772 2513 2545 2808 
Q 2319 3103 1894 3103 
Q 1497 3103 1269 2806 
Q 1041 2509 991 1931 
L 2791 1931 
z
" transform="scale(0.015625)"/>
       <path id="DejaVuSerif-52" d="M 3066 2316 
Q 3284 2256 3442 2114 
Q 3600 1972 3725 1716 
L 4403 331 
L 4972 331 
L 4972 0 
L 3872 0 
L 3144 1484 
Q 2934 1916 2759 2042 
Q 2584 2169 2278 2169 
L 1581 2169 
L 1581 331 
L 2241 331 
L 2241 0 
L 353 0 
L 353 331 
L 947 331 
L 947 4331 
L 353 4331 
L 353 4666 
L 2719 4666 
Q 3400 4666 3770 4341 
Q 4141 4016 4141 3419 
Q 4141 2938 3870 2661 
Q 3600 2384 3066 2316 
z
M 1581 2503 
L 2503 2503 
Q 2975 2503 3200 2726 
Q 3425 2950 3425 3419 
Q 3425 3888 3200 4109 
Q 2975 4331 2503 4331 
L 1581 4331 
L 1581 2503 
z
" transform="scale(0.015625)"/>
       <path id="DejaVuSerif-73" d="M 359 184 
L 359 959 
L 691 959 
Q 703 588 923 403 
Q 1144 219 1575 219 
Q 1963 219 2166 364 
Q 2369 509 2369 788 
Q 2369 1006 2220 1140 
Q 2072 1275 1594 1428 
L 1178 1569 
Q 750 1706 558 1912 
Q 366 2119 366 2438 
Q 366 2894 700 3153 
Q 1034 3413 1625 3413 
Q 1888 3413 2178 3344 
Q 2469 3275 2778 3144 
L 2778 2419 
L 2447 2419 
Q 2434 2741 2221 2922 
Q 2009 3103 1644 3103 
Q 1281 3103 1095 2975 
Q 909 2847 909 2591 
Q 909 2381 1050 2254 
Q 1191 2128 1613 1997 
L 2069 1856 
Q 2541 1709 2748 1489 
Q 2956 1269 2956 922 
Q 2956 450 2595 179 
Q 2234 -91 1600 -91 
Q 1278 -91 972 -22 
Q 666 47 359 184 
z
" transform="scale(0.015625)"/>
       <path id="DejaVuSerif-75" d="M 2266 3322 
L 3341 3322 
L 3341 331 
L 3884 331 
L 3884 0 
L 2766 0 
L 2766 588 
Q 2606 256 2353 82 
Q 2100 -91 1766 -91 
Q 1213 -91 952 223 
Q 691 538 691 1209 
L 691 2988 
L 172 2988 
L 172 3322 
L 1269 3322 
L 1269 1388 
Q 1269 781 1417 556 
Q 1566 331 1947 331 
Q 2347 331 2556 625 
Q 2766 919 2766 1478 
L 2766 2988 
L 2266 2988 
L 2266 3322 
z
" transform="scale(0.015625)"/>
       <path id="DejaVuSerif-2f" d="M 1656 4666 
L 2156 4666 
L 500 -594 
L 0 -594 
L 1656 4666 
z
" transform="scale(0.015625)"/>
       <path id="DejaVuSerif-6d" d="M 3316 2675 
Q 3481 3041 3739 3227 
Q 3997 3413 4341 3413 
Q 4863 3413 5119 3089 
Q 5375 2766 5375 2113 
L 5375 331 
L 5894 331 
L 5894 0 
L 4300 0 
L 4300 331 
L 4800 331 
L 4800 2047 
Q 4800 2556 4650 2772 
Q 4500 2988 4153 2988 
Q 3769 2988 3567 2697 
Q 3366 2406 3366 1850 
L 3366 331 
L 3866 331 
L 3866 0 
L 2291 0 
L 2291 331 
L 2791 331 
L 2791 2069 
Q 2791 2566 2641 2777 
Q 2491 2988 2144 2988 
Q 1759 2988 1557 2697 
Q 1356 2406 1356 1850 
L 1356 331 
L 1856 331 
L 1856 0 
L 263 0 
L 263 331 
L 781 331 
L 781 2994 
L 231 2994 
L 231 3322 
L 1356 3322 
L 1356 2731 
Q 1516 3063 1762 3238 
Q 2009 3413 2322 3413 
Q 2709 3413 2968 3220 
Q 3228 3028 3316 2675 
z
" transform="scale(0.015625)"/>
       <path id="DejaVuSerif-78" d="M 1863 2028 
L 2559 2988 
L 2113 2988 
L 2113 3322 
L 3391 3322 
L 3391 2988 
L 2950 2988 
L 2059 1759 
L 3097 331 
L 3531 331 
L 3531 0 
L 1997 0 
L 1997 331 
L 2419 331 
L 1697 1325 
L 972 331 
L 1403 331 
L 1403 0 
L 141 0 
L 141 331 
L 581 331 
L 1497 1594 
L 488 2988 
L 78 2988 
L 78 3322 
L 1563 3322 
L 1563 2988 
L 1166 2988 
L 1863 2028 
z
" transform="scale(0.015625)"/>
       <path id="DejaVuSerif-28" d="M 2041 -997 
Q 1281 -656 893 83 
Q 506 822 506 1931 
Q 506 3044 893 3783 
Q 1281 4522 2041 4863 
L 2041 4556 
Q 1559 4225 1350 3623 
Q 1141 3022 1141 1931 
Q 1141 844 1350 242 
Q 1559 -359 2041 -691 
L 2041 -997 
z
" transform="scale(0.015625)"/>
       <path id="DejaVuSerif-29" d="M 453 -997 
L 453 -691 
Q 934 -359 1145 242 
Q 1356 844 1356 1931 
Q 1356 3022 1145 3623 
Q 934 4225 453 4556 
L 453 4863 
Q 1216 4522 1603 3783 
Q 1991 3044 1991 1931 
Q 1991 822 1603 83 
Q 1216 -656 453 -997 
z
" transform="scale(0.015625)"/>
      </defs>
      <use xlink:href="#DejaVuSerif-4d"/>
      <use xlink:href="#DejaVuSerif-65" x="102.392578"/>
      <use xlink:href="#DejaVuSerif-74" x="161.572266"/>
      <use xlink:href="#DejaVuSerif-72" x="201.757812"/>
      <use xlink:href="#DejaVuSerif-69" x="249.560547"/>
      <use xlink:href="#DejaVuSerif-63" x="281.542969"/>
      <use xlink:href="#DejaVuSerif-20" x="337.548828"/>
      <use xlink:href="#DejaVuSerif-52" x="369.335938"/>
      <use xlink:href="#DejaVuSerif-65" x="444.628906"/>
      <use xlink:href="#DejaVuSerif-73" x="503.808594"/>
      <use xlink:href="#DejaVuSerif-75" x="555.126953"/>
      <use xlink:href="#DejaVuSerif-6c" x="619.53125"/>
      <use xlink:href="#DejaVuSerif-74" x="651.513672"/>
      <use xlink:href="#DejaVuSerif-20" x="691.699219"/>
      <use xlink:href="#DejaVuSerif-2f" x="723.486328"/>
      <use xlink:href="#DejaVuSerif-20" x="757.177734"/>
      <use xlink:href="#DejaVuSerif-6d" x="788.964844"/>
      <use xlink:href="#DejaVuSerif-61" x="883.789062"/>
      <use xlink:href="#DejaVuSerif-78" x="943.408203"/>
      <use xlink:href="#DejaVuSerif-28" x="999.804688"/>
      <use xlink:href="#DejaVuSerif-4d" x="1038.818359"/>
      <use xlink:href="#DejaVuSerif-65" x="1141.210938"/>
      <use xlink:href="#DejaVuSerif-74" x="1200.390625"/>
      <use xlink:href="#DejaVuSerif-72" x="1240.576172"/>
      <use xlink:href="#DejaVuSerif-69" x="1288.378906"/>
      <use xlink:href="#DejaVuSerif-63" x="1320.361328"/>
      <use xlink:href="#DejaVuSerif-20" x="1376.367188"/>
      <use xlink:href="#DejaVuSerif-52" x="1408.154297"/>
      <use xlink:href="#DejaVuSerif-65" x="1483.447266"/>
      <use xlink:href="#DejaVuSerif-73" x="1542.626953"/>
      <use xlink:href="#DejaVuSerif-75" x="1593.945312"/>
      <use xlink:href="#DejaVuSerif-6c" x="1658.349609"/>
      <use xlink:href="#DejaVuSerif-74" x="1690.332031"/>
      <use xlink:href="#DejaVuSerif-29" x="1730.517578"/>
     </g>
    </g>
   </g>
   <g id="line2d_11">
    <path d="M 161.948182 559.078091 
L 168.923572 554.244709 
L 175.898962 549.411327 
L 182.874353 544.577945 
L 189.849743 539.744564 
L 196.825133 534.911182 
L 203.800523 529.540758 
L 210.775914 524.707376 
L 217.751304 519.873994 
L 224.726694 515.040612 
L 231.702084 510.20723 
L 238.677475 505.373848 
L 245.652865 500.540467 
L 252.628255 495.707085 
L 259.603646 490.873703 
L 266.579036 486.040321 
L 273.554426 481.206939 
L 280.529816 475.836515 
L 287.505207 471.003133 
L 294.480597 466.169752 
L 301.455987 461.33637 
L 308.431377 456.502988 
L 315.406768 451.669606 
L 322.382158 446.836224 
L 329.357548 442.002842 
L 336.332938 437.169461 
L 343.308329 432.336079 
L 350.283719 427.502697 
L 357.259109 422.132273 
L 364.2345 417.298891 
L 371.20989 412.465509 
L 378.18528 407.632127 
L 385.16067 402.798745 
L 392.136061 397.965364 
L 399.111451 393.131982 
L 406.086841 388.2986 
L 413.062231 383.465218 
L 420.037622 378.631836 
L 427.013012 373.798455 
L 433.988402 368.42803 
L 440.963792 363.594648 
L 447.939183 358.761267 
L 454.914573 353.927885 
L 461.889963 349.094503 
L 468.865354 344.261121 
L 475.840744 339.427739 
L 482.816134 334.594358 
L 489.791524 329.760976 
L 496.766915 324.927594 
L 503.742305 320.094212 
L 510.717695 314.723788 
L 517.693085 309.890406 
L 524.668476 305.057024 
L 531.643866 300.223642 
L 538.619256 295.390261 
L 545.594646 290.556879 
L 552.570037 285.723497 
L 559.545427 280.890115 
L 566.520817 276.056733 
L 573.496208 271.223352 
L 580.471598 266.38997 
L 587.446988 261.019545 
L 594.422378 256.186164 
L 601.397769 251.352782 
L 608.373159 246.5194 
L 615.348549 241.686018 
L 622.323939 236.852636 
L 629.29933 232.019255 
L 636.27472 227.185873 
L 643.25011 222.352491 
L 650.2255 217.519109 
L 657.200891 212.685727 
L 664.176281 207.315303 
L 671.151671 202.481921 
L 678.127062 197.648539 
L 685.102452 192.815158 
L 692.077842 187.981776 
L 699.053232 183.148394 
L 706.028623 178.315012 
L 713.004013 173.48163 
L 719.979403 168.648248 
L 726.954793 163.814867 
L 733.930184 158.981485 
L 740.905574 153.611061 
L 747.880964 148.777679 
L 754.856354 143.944297 
L 761.831745 139.110915 
L 768.807135 134.277533 
L 775.782525 129.444152 
L 782.757916 124.61077 
L 789.733306 119.777388 
L 796.708696 114.944006 
L 803.684086 110.110624 
L 810.659477 105.277242 
L 817.634867 99.906818 
L 824.610257 95.073436 
L 831.585647 90.240055 
L 838.561038 85.406673 
L 845.536428 80.573291 
L 852.511818 75.739909 
" clip-path="url(#peb9ca5aaf1)" style="fill: none; stroke: #ff00ff; stroke-width: 1.5; stroke-linecap: square"/>
    <defs>
     <path id="m8299d5f9af" d="M 0 8 
C 2.121625 8 4.156639 7.15707 5.656854 5.656854 
C 7.15707 4.156639 8 2.121625 8 0 
C 8 -2.121625 7.15707 -4.156639 5.656854 -5.656854 
C 4.156639 -7.15707 2.121625 -8 0 -8 
C -2.121625 -8 -4.156639 -7.15707 -5.656854 -5.656854 
C -7.15707 -4.156639 -8 -2.121625 -8 0 
C -8 2.121625 -7.15707 4.156639 -5.656854 5.656854 
C -4.156639 7.15707 -2.121625 8 0 8 
z
" style="stroke: #ff00ff"/>
    </defs>
    <g clip-path="url(#peb9ca5aaf1)">
     <use xlink:href="#m8299d5f9af" x="161.948182" y="559.078091" style="fill: #ff00ff; stroke: #ff00ff"/>
     <use xlink:href="#m8299d5f9af" x="238.677475" y="505.373848" style="fill: #ff00ff; stroke: #ff00ff"/>
     <use xlink:href="#m8299d5f9af" x="315.406768" y="451.669606" style="fill: #ff00ff; stroke: #ff00ff"/>
     <use xlink:href="#m8299d5f9af" x="392.136061" y="397.965364" style="fill: #ff00ff; stroke: #ff00ff"/>
     <use xlink:href="#m8299d5f9af" x="468.865354" y="344.261121" style="fill: #ff00ff; stroke: #ff00ff"/>
     <use xlink:href="#m8299d5f9af" x="538.619256" y="295.390261" style="fill: #ff00ff; stroke: #ff00ff"/>
     <use xlink:href="#m8299d5f9af" x="615.348549" y="241.686018" style="fill: #ff00ff; stroke: #ff00ff"/>
     <use xlink:href="#m8299d5f9af" x="692.077842" y="187.981776" style="fill: #ff00ff; stroke: #ff00ff"/>
     <use xlink:href="#m8299d5f9af" x="768.807135" y="134.277533" style="fill: #ff00ff; stroke: #ff00ff"/>
     <use xlink:href="#m8299d5f9af" x="845.536428" y="80.573291" style="fill: #ff00ff; stroke: #ff00ff"/>
    </g>
   </g>
   <g id="line2d_12">
    <path d="M 161.948182 75.739909 
L 168.923572 75.739909 
L 175.898962 75.739909 
L 182.874353 75.739909 
L 189.849743 75.739909 
L 196.825133 75.739909 
L 203.800523 75.739909 
L 210.775914 75.739909 
L 217.751304 75.739909 
L 224.726694 75.739909 
L 231.702084 75.739909 
L 238.677475 75.739909 
L 245.652865 75.739909 
L 252.628255 75.739909 
L 259.603646 75.739909 
L 266.579036 75.739909 
L 273.554426 75.739909 
L 280.529816 75.739909 
L 287.505207 75.739909 
L 294.480597 75.739909 
L 301.455987 75.739909 
L 308.431377 75.739909 
L 315.406768 75.739909 
L 322.382158 75.739909 
L 329.357548 75.739909 
L 336.332938 75.739909 
L 343.308329 75.739909 
L 350.283719 75.739909 
L 357.259109 75.739909 
L 364.2345 75.739909 
L 371.20989 75.739909 
L 378.18528 75.739909 
L 385.16067 75.739909 
L 392.136061 75.739909 
L 399.111451 75.739909 
L 406.086841 75.739909 
L 413.062231 75.739909 
L 420.037622 75.739909 
L 427.013012 75.739909 
L 433.988402 75.739909 
L 440.963792 75.739909 
L 447.939183 75.739909 
L 454.914573 75.739909 
L 461.889963 75.739909 
L 468.865354 75.739909 
L 475.840744 75.739909 
L 482.816134 75.739909 
L 489.791524 75.739909 
L 496.766915 75.739909 
L 503.742305 75.739909 
L 510.717695 75.739909 
L 517.693085 75.739909 
L 524.668476 75.739909 
L 531.643866 75.739909 
L 538.619256 75.739909 
L 545.594646 75.739909 
L 552.570037 75.739909 
L 559.545427 75.739909 
L 566.520817 75.739909 
L 573.496208 75.739909 
L 580.471598 75.739909 
L 587.446988 75.739909 
L 594.422378 75.739909 
L 601.397769 75.739909 
L 608.373159 75.739909 
L 615.348549 75.739909 
L 622.323939 75.739909 
L 629.29933 75.739909 
L 636.27472 75.739909 
L 643.25011 75.739909 
L 650.2255 75.739909 
L 657.200891 75.739909 
L 664.176281 75.739909 
L 671.151671 75.739909 
L 678.127062 75.739909 
L 685.102452 75.739909 
L 692.077842 75.739909 
L 699.053232 75.739909 
L 706.028623 75.739909 
L 713.004013 75.739909 
L 719.979403 75.739909 
L 726.954793 75.739909 
L 733.930184 75.739909 
L 740.905574 75.739909 
L 747.880964 75.739909 
L 754.856354 75.739909 
L 761.831745 75.739909 
L 768.807135 75.739909 
L 775.782525 75.739909 
L 782.757916 75.739909 
L 789.733306 75.739909 
L 796.708696 75.739909 
L 803.684086 75.739909 
L 810.659477 75.739909 
L 817.634867 75.739909 
L 824.610257 75.739909 
L 831.585647 75.739909 
L 838.561038 75.739909 
L 845.536428 75.739909 
L 852.511818 75.739909 
" clip-path="url(#peb9ca5aaf1)" style="fill: none; stroke: #0000ff; stroke-width: 1.5; stroke-linecap: square"/>
    <defs>
     <path id="mbff6c5a86e" d="M -2.666667 8 
L 2.666667 8 
L 2.666667 2.666667 
L 8 2.666667 
L 8 -2.666667 
L 2.666667 -2.666667 
L 2.666667 -8 
L -2.666667 -8 
L -2.666667 -2.666667 
L -8 -2.666667 
L -8 2.666667 
L -2.666667 2.666667 
z
" style="stroke: #0000ff; stroke-linejoin: miter"/>
    </defs>
    <g clip-path="url(#peb9ca5aaf1)">
     <use xlink:href="#mbff6c5a86e" x="182.874353" y="75.739909" style="fill: #0000ff; stroke: #0000ff; stroke-linejoin: miter"/>
     <use xlink:href="#mbff6c5a86e" x="273.554426" y="75.739909" style="fill: #0000ff; stroke: #0000ff; stroke-linejoin: miter"/>
     <use xlink:href="#mbff6c5a86e" x="364.2345" y="75.739909" style="fill: #0000ff; stroke: #0000ff; stroke-linejoin: miter"/>
     <use xlink:href="#mbff6c5a86e" x="461.889963" y="75.739909" style="fill: #0000ff; stroke: #0000ff; stroke-linejoin: miter"/>
     <use xlink:href="#mbff6c5a86e" x="552.570037" y="75.739909" style="fill: #0000ff; stroke: #0000ff; stroke-linejoin: miter"/>
     <use xlink:href="#mbff6c5a86e" x="643.25011" y="75.739909" style="fill: #0000ff; stroke: #0000ff; stroke-linejoin: miter"/>
     <use xlink:href="#mbff6c5a86e" x="733.930184" y="75.739909" style="fill: #0000ff; stroke: #0000ff; stroke-linejoin: miter"/>
     <use xlink:href="#mbff6c5a86e" x="831.585647" y="75.739909" style="fill: #0000ff; stroke: #0000ff; stroke-linejoin: miter"/>
    </g>
   </g>
   <g id="line2d_13">
    <path d="M 161.948182 559.078091 
L 168.923572 554.244709 
L 175.898962 549.411327 
L 182.874353 544.577945 
L 189.849743 539.744564 
L 196.825133 534.911182 
L 203.800523 529.540758 
L 210.775914 524.707376 
L 217.751304 519.873994 
L 224.726694 515.040612 
L 231.702084 510.20723 
L 238.677475 505.373848 
L 245.652865 500.540467 
L 252.628255 495.707085 
L 259.603646 490.873703 
L 266.579036 486.040321 
L 273.554426 481.206939 
L 280.529816 475.836515 
L 287.505207 471.003133 
L 294.480597 466.169752 
L 301.455987 461.33637 
L 308.431377 456.502988 
L 315.406768 451.669606 
L 322.382158 446.836224 
L 329.357548 442.002842 
L 336.332938 437.169461 
L 343.308329 432.336079 
L 350.283719 427.502697 
L 357.259109 422.132273 
L 364.2345 417.298891 
L 371.20989 412.465509 
L 378.18528 407.632127 
L 385.16067 402.798745 
L 392.136061 397.965364 
L 399.111451 393.131982 
L 406.086841 388.2986 
L 413.062231 383.465218 
L 420.037622 378.631836 
L 427.013012 373.798455 
L 433.988402 368.42803 
L 440.963792 363.594648 
L 447.939183 358.761267 
L 454.914573 353.927885 
L 461.889963 349.094503 
L 468.865354 344.261121 
L 475.840744 339.427739 
L 482.816134 334.594358 
L 489.791524 329.760976 
L 496.766915 324.927594 
L 503.742305 320.094212 
L 510.717695 314.723788 
L 517.693085 309.890406 
L 524.668476 305.057024 
L 531.643866 300.223642 
L 538.619256 295.390261 
L 545.594646 290.556879 
L 552.570037 285.723497 
L 559.545427 280.890115 
L 566.520817 276.056733 
L 573.496208 271.223352 
L 580.471598 266.38997 
L 587.446988 261.019545 
L 594.422378 256.186164 
L 601.397769 251.352782 
L 608.373159 246.5194 
L 615.348549 241.686018 
L 622.323939 236.852636 
L 629.29933 232.019255 
L 636.27472 227.185873 
L 643.25011 222.352491 
L 650.2255 217.519109 
L 657.200891 212.685727 
L 664.176281 207.315303 
L 671.151671 202.481921 
L 678.127062 197.648539 
L 685.102452 192.815158 
L 692.077842 187.981776 
L 699.053232 183.148394 
L 706.028623 178.315012 
L 713.004013 173.48163 
L 719.979403 168.648248 
L 726.954793 163.814867 
L 733.930184 158.981485 
L 740.905574 153.611061 
L 747.880964 148.777679 
L 754.856354 143.944297 
L 761.831745 139.110915 
L 768.807135 134.277533 
L 775.782525 129.444152 
L 782.757916 124.61077 
L 789.733306 119.777388 
L 796.708696 114.944006 
L 803.684086 110.110624 
L 810.659477 105.277242 
L 817.634867 99.906818 
L 824.610257 95.073436 
L 831.585647 90.240055 
L 838.561038 85.406673 
L 845.536428 80.573291 
L 852.511818 75.739909 
" clip-path="url(#peb9ca5aaf1)" style="fill: none; stroke: #ffa500; stroke-width: 1.5; stroke-linecap: square"/>
    <defs>
     <path id="md8a900bd5d" d="M 0 -8 
L -1.796112 -2.472136 
L -7.608452 -2.472136 
L -2.90617 0.944272 
L -4.702282 6.472136 
L -0 3.055728 
L 4.702282 6.472136 
L 2.90617 0.944272 
L 7.608452 -2.472136 
L 1.796112 -2.472136 
z
" style="stroke: #ffa500; stroke-linejoin: bevel"/>
    </defs>
    <g clip-path="url(#peb9ca5aaf1)">
     <use xlink:href="#md8a900bd5d" x="189.849743" y="539.744564" style="fill: #ffa500; stroke: #ffa500; stroke-linejoin: bevel"/>
     <use xlink:href="#md8a900bd5d" x="266.579036" y="486.040321" style="fill: #ffa500; stroke: #ffa500; stroke-linejoin: bevel"/>
     <use xlink:href="#md8a900bd5d" x="343.308329" y="432.336079" style="fill: #ffa500; stroke: #ffa500; stroke-linejoin: bevel"/>
     <use xlink:href="#md8a900bd5d" x="420.037622" y="378.631836" style="fill: #ffa500; stroke: #ffa500; stroke-linejoin: bevel"/>
     <use xlink:href="#md8a900bd5d" x="496.766915" y="324.927594" style="fill: #ffa500; stroke: #ffa500; stroke-linejoin: bevel"/>
     <use xlink:href="#md8a900bd5d" x="573.496208" y="271.223352" style="fill: #ffa500; stroke: #ffa500; stroke-linejoin: bevel"/>
     <use xlink:href="#md8a900bd5d" x="650.2255" y="217.519109" style="fill: #ffa500; stroke: #ffa500; stroke-linejoin: bevel"/>
     <use xlink:href="#md8a900bd5d" x="726.954793" y="163.814867" style="fill: #ffa500; stroke: #ffa500; stroke-linejoin: bevel"/>
     <use xlink:href="#md8a900bd5d" x="796.708696" y="114.944006" style="fill: #ffa500; stroke: #ffa500; stroke-linejoin: bevel"/>
    </g>
   </g>
   <g id="line2d_14">
    <path d="M 161.948182 75.739909 
L 168.923572 75.739909 
L 175.898962 75.739909 
L 182.874353 75.739909 
L 189.849743 75.739909 
L 196.825133 75.739909 
L 203.800523 75.739909 
L 210.775914 75.739909 
L 217.751304 75.739909 
L 224.726694 75.739909 
L 231.702084 75.739909 
L 238.677475 75.739909 
L 245.652865 75.739909 
L 252.628255 75.739909 
L 259.603646 75.739909 
L 266.579036 75.739909 
L 273.554426 75.739909 
L 280.529816 75.739909 
L 287.505207 75.739909 
L 294.480597 75.739909 
L 301.455987 75.739909 
L 308.431377 75.739909 
L 315.406768 75.739909 
L 322.382158 75.739909 
L 329.357548 75.739909 
L 336.332938 75.739909 
L 343.308329 75.739909 
L 350.283719 75.739909 
L 357.259109 75.739909 
L 364.2345 75.739909 
L 371.20989 75.739909 
L 378.18528 75.739909 
L 385.16067 75.739909 
L 392.136061 75.739909 
L 399.111451 75.739909 
L 406.086841 75.739909 
L 413.062231 75.739909 
L 420.037622 75.739909 
L 427.013012 75.739909 
L 433.988402 75.739909 
L 440.963792 75.739909 
L 447.939183 75.739909 
L 454.914573 75.739909 
L 461.889963 75.739909 
L 468.865354 75.739909 
L 475.840744 75.739909 
L 482.816134 75.739909 
L 489.791524 75.739909 
L 496.766915 75.739909 
L 503.742305 75.739909 
L 510.717695 75.739909 
L 517.693085 75.739909 
L 524.668476 75.739909 
L 531.643866 75.739909 
L 538.619256 75.739909 
L 545.594646 75.739909 
L 552.570037 75.739909 
L 559.545427 75.739909 
L 566.520817 75.739909 
L 573.496208 75.739909 
L 580.471598 75.739909 
L 587.446988 75.739909 
L 594.422378 75.739909 
L 601.397769 75.739909 
L 608.373159 75.739909 
L 615.348549 75.739909 
L 622.323939 75.739909 
L 629.29933 75.739909 
L 636.27472 75.739909 
L 643.25011 75.739909 
L 650.2255 75.739909 
L 657.200891 75.739909 
L 664.176281 75.739909 
L 671.151671 75.739909 
L 678.127062 75.739909 
L 685.102452 75.739909 
L 692.077842 75.739909 
L 699.053232 75.739909 
L 706.028623 75.739909 
L 713.004013 75.739909 
L 719.979403 75.739909 
L 726.954793 75.739909 
L 733.930184 75.739909 
L 740.905574 75.739909 
L 747.880964 75.739909 
L 754.856354 75.739909 
L 761.831745 75.739909 
L 768.807135 75.739909 
L 775.782525 75.739909 
L 782.757916 75.739909 
L 789.733306 75.739909 
L 796.708696 75.739909 
L 803.684086 75.739909 
L 810.659477 75.739909 
L 817.634867 75.739909 
L 824.610257 75.739909 
L 831.585647 75.739909 
L 838.561038 75.739909 
L 845.536428 75.739909 
L 852.511818 75.739909 
" clip-path="url(#peb9ca5aaf1)" style="fill: none; stroke: #008000; stroke-width: 1.5; stroke-linecap: square"/>
    <defs>
     <path id="m70b5bc7759" d="M -4 8 
L 0 4 
L 4 8 
L 8 4 
L 4 0 
L 8 -4 
L 4 -8 
L 0 -4 
L -4 -8 
L -8 -4 
L -4 0 
L -8 4 
z
" style="stroke: #008000; stroke-linejoin: miter"/>
    </defs>
    <g clip-path="url(#peb9ca5aaf1)">
     <use xlink:href="#m70b5bc7759" x="217.751304" y="75.739909" style="fill: #008000; stroke: #008000; stroke-linejoin: miter"/>
     <use xlink:href="#m70b5bc7759" x="308.431377" y="75.739909" style="fill: #008000; stroke: #008000; stroke-linejoin: miter"/>
     <use xlink:href="#m70b5bc7759" x="406.086841" y="75.739909" style="fill: #008000; stroke: #008000; stroke-linejoin: miter"/>
     <use xlink:href="#m70b5bc7759" x="496.766915" y="75.739909" style="fill: #008000; stroke: #008000; stroke-linejoin: miter"/>
     <use xlink:href="#m70b5bc7759" x="587.446988" y="75.739909" style="fill: #008000; stroke: #008000; stroke-linejoin: miter"/>
     <use xlink:href="#m70b5bc7759" x="678.127062" y="75.739909" style="fill: #008000; stroke: #008000; stroke-linejoin: miter"/>
     <use xlink:href="#m70b5bc7759" x="775.782525" y="75.739909" style="fill: #008000; stroke: #008000; stroke-linejoin: miter"/>
    </g>
   </g>
   <g id="line2d_15">
    <path d="M 161.948182 75.739909 
L 168.923572 75.739909 
L 175.898962 75.739909 
L 182.874353 75.739909 
L 189.849743 75.739909 
L 196.825133 75.739909 
L 203.800523 75.739909 
L 210.775914 75.739909 
L 217.751304 75.739909 
L 224.726694 75.739909 
L 231.702084 75.739909 
L 238.677475 75.739909 
L 245.652865 75.739909 
L 252.628255 75.739909 
L 259.603646 75.739909 
L 266.579036 75.739909 
L 273.554426 75.739909 
L 280.529816 75.739909 
L 287.505207 75.739909 
L 294.480597 75.739909 
L 301.455987 75.739909 
L 308.431377 75.739909 
L 315.406768 75.739909 
L 322.382158 75.739909 
L 329.357548 75.739909 
L 336.332938 75.739909 
L 343.308329 75.739909 
L 350.283719 75.739909 
L 357.259109 75.739909 
L 364.2345 75.739909 
L 371.20989 75.739909 
L 378.18528 75.739909 
L 385.16067 75.739909 
L 392.136061 75.739909 
L 399.111451 75.739909 
L 406.086841 75.739909 
L 413.062231 75.739909 
L 420.037622 75.739909 
L 427.013012 75.739909 
L 433.988402 75.739909 
L 440.963792 75.739909 
L 447.939183 75.739909 
L 454.914573 75.739909 
L 461.889963 75.739909 
L 468.865354 75.739909 
L 475.840744 75.739909 
L 482.816134 75.739909 
L 489.791524 75.739909 
L 496.766915 75.739909 
L 503.742305 75.739909 
L 510.717695 75.739909 
L 517.693085 75.739909 
L 524.668476 75.739909 
L 531.643866 75.739909 
L 538.619256 75.739909 
L 545.594646 75.739909 
L 552.570037 75.739909 
L 559.545427 75.739909 
L 566.520817 75.739909 
L 573.496208 75.739909 
L 580.471598 75.739909 
L 587.446988 75.739909 
L 594.422378 75.739909 
L 601.397769 75.739909 
L 608.373159 75.739909 
L 615.348549 75.739909 
L 622.323939 75.739909 
L 629.29933 75.739909 
L 636.27472 75.739909 
L 643.25011 75.739909 
L 650.2255 75.739909 
L 657.200891 75.739909 
L 664.176281 75.739909 
L 671.151671 75.739909 
L 678.127062 75.739909 
L 685.102452 75.739909 
L 692.077842 75.739909 
L 699.053232 75.739909 
L 706.028623 75.739909 
L 713.004013 75.739909 
L 719.979403 75.739909 
L 726.954793 75.739909 
L 733.930184 75.739909 
L 740.905574 75.739909 
L 747.880964 75.739909 
L 754.856354 75.739909 
L 761.831745 75.739909 
L 768.807135 75.739909 
L 775.782525 75.739909 
L 782.757916 75.739909 
L 789.733306 75.739909 
L 796.708696 75.739909 
L 803.684086 75.739909 
L 810.659477 75.739909 
L 817.634867 75.739909 
L 824.610257 75.739909 
L 831.585647 75.739909 
L 838.561038 75.739909 
L 845.536428 75.739909 
L 852.511818 75.739909 
" clip-path="url(#peb9ca5aaf1)" style="fill: none; stroke: #ff0000; stroke-width: 1.5; stroke-linecap: square"/>
    <defs>
     <path id="m0f09ac1aa0" d="M -8 8 
L 8 8 
L 8 -8 
L -8 -8 
z
" style="stroke: #ff0000; stroke-linejoin: miter"/>
    </defs>
    <g clip-path="url(#peb9ca5aaf1)">
     <use xlink:href="#m0f09ac1aa0" x="238.677475" y="75.739909" style="fill: #ff0000; stroke: #ff0000; stroke-linejoin: miter"/>
     <use xlink:href="#m0f09ac1aa0" x="329.357548" y="75.739909" style="fill: #ff0000; stroke: #ff0000; stroke-linejoin: miter"/>
     <use xlink:href="#m0f09ac1aa0" x="420.037622" y="75.739909" style="fill: #ff0000; stroke: #ff0000; stroke-linejoin: miter"/>
     <use xlink:href="#m0f09ac1aa0" x="517.693085" y="75.739909" style="fill: #ff0000; stroke: #ff0000; stroke-linejoin: miter"/>
     <use xlink:href="#m0f09ac1aa0" x="608.373159" y="75.739909" style="fill: #ff0000; stroke: #ff0000; stroke-linejoin: miter"/>
     <use xlink:href="#m0f09ac1aa0" x="699.053232" y="75.739909" style="fill: #ff0000; stroke: #ff0000; stroke-linejoin: miter"/>
     <use xlink:href="#m0f09ac1aa0" x="789.733306" y="75.739909" style="fill: #ff0000; stroke: #ff0000; stroke-linejoin: miter"/>
    </g>
   </g>
   <g id="line2d_16">
    <path d="M 161.948182 75.739909 
L 168.923572 75.739909 
L 175.898962 75.739909 
L 182.874353 75.739909 
L 189.849743 75.739909 
L 196.825133 75.739909 
L 203.800523 75.739909 
L 210.775914 75.739909 
L 217.751304 75.739909 
L 224.726694 75.739909 
L 231.702084 75.739909 
L 238.677475 75.739909 
L 245.652865 75.739909 
L 252.628255 75.739909 
L 259.603646 75.739909 
L 266.579036 75.739909 
L 273.554426 75.739909 
L 280.529816 75.739909 
L 287.505207 75.739909 
L 294.480597 75.739909 
L 301.455987 75.739909 
L 308.431377 75.739909 
L 315.406768 75.739909 
L 322.382158 75.739909 
L 329.357548 75.739909 
L 336.332938 75.739909 
L 343.308329 75.739909 
L 350.283719 75.739909 
L 357.259109 75.739909 
L 364.2345 75.739909 
L 371.20989 75.739909 
L 378.18528 75.739909 
L 385.16067 75.739909 
L 392.136061 75.739909 
L 399.111451 75.739909 
L 406.086841 75.739909 
L 413.062231 75.739909 
L 420.037622 75.739909 
L 427.013012 75.739909 
L 433.988402 75.739909 
L 440.963792 75.739909 
L 447.939183 75.739909 
L 454.914573 75.739909 
L 461.889963 75.739909 
L 468.865354 75.739909 
L 475.840744 75.739909 
L 482.816134 75.739909 
L 489.791524 75.739909 
L 496.766915 75.739909 
L 503.742305 75.739909 
L 510.717695 75.739909 
L 517.693085 75.739909 
L 524.668476 75.739909 
L 531.643866 75.739909 
L 538.619256 75.739909 
L 545.594646 75.739909 
L 552.570037 75.739909 
L 559.545427 75.739909 
L 566.520817 75.739909 
L 573.496208 75.739909 
L 580.471598 75.739909 
L 587.446988 75.739909 
L 594.422378 75.739909 
L 601.397769 75.739909 
L 608.373159 75.739909 
L 615.348549 75.739909 
L 622.323939 75.739909 
L 629.29933 75.739909 
L 636.27472 75.739909 
L 643.25011 75.739909 
L 650.2255 75.739909 
L 657.200891 75.739909 
L 664.176281 75.739909 
L 671.151671 75.739909 
L 678.127062 75.739909 
L 685.102452 75.739909 
L 692.077842 75.739909 
L 699.053232 75.739909 
L 706.028623 75.739909 
L 713.004013 75.739909 
L 719.979403 75.739909 
L 726.954793 75.739909 
L 733.930184 75.739909 
L 740.905574 75.739909 
L 747.880964 75.739909 
L 754.856354 75.739909 
L 761.831745 75.739909 
L 768.807135 75.739909 
L 775.782525 75.739909 
L 782.757916 75.739909 
L 789.733306 75.739909 
L 796.708696 75.739909 
L 803.684086 75.739909 
L 810.659477 75.739909 
L 817.634867 75.739909 
L 824.610257 75.739909 
L 831.585647 75.739909 
L 838.561038 75.739909 
L 845.536428 75.739909 
L 852.511818 75.739909 
" clip-path="url(#peb9ca5aaf1)" style="fill: none; stroke: #a52a2a; stroke-width: 1.5; stroke-linecap: square"/>
    <defs>
     <path id="m61adad0941" d="M 0 -8 
L -8 8 
L 8 8 
z
" style="stroke: #a52a2a; stroke-linejoin: miter"/>
    </defs>
    <g clip-path="url(#peb9ca5aaf1)">
     <use xlink:href="#m61adad0941" x="252.628255" y="75.739909" style="fill: #a52a2a; stroke: #a52a2a; stroke-linejoin: miter"/>
     <use xlink:href="#m61adad0941" x="350.283719" y="75.739909" style="fill: #a52a2a; stroke: #a52a2a; stroke-linejoin: miter"/>
     <use xlink:href="#m61adad0941" x="440.963792" y="75.739909" style="fill: #a52a2a; stroke: #a52a2a; stroke-linejoin: miter"/>
     <use xlink:href="#m61adad0941" x="531.643866" y="75.739909" style="fill: #a52a2a; stroke: #a52a2a; stroke-linejoin: miter"/>
     <use xlink:href="#m61adad0941" x="622.323939" y="75.739909" style="fill: #a52a2a; stroke: #a52a2a; stroke-linejoin: miter"/>
     <use xlink:href="#m61adad0941" x="719.979403" y="75.739909" style="fill: #a52a2a; stroke: #a52a2a; stroke-linejoin: miter"/>
     <use xlink:href="#m61adad0941" x="810.659477" y="75.739909" style="fill: #a52a2a; stroke: #a52a2a; stroke-linejoin: miter"/>
    </g>
   </g>
   <g id="patch_3">
    <path d="M 127.42 583.245 
L 127.42 51.573 
" style="fill: none; stroke: #000000; stroke-width: 0.8; stroke-linejoin: miter; stroke-linecap: square"/>
   </g>
   <g id="patch_4">
    <path d="M 887.04 583.245 
L 887.04 51.573 
" style="fill: none; stroke: #000000; stroke-width: 0.8; stroke-linejoin: miter; stroke-linecap: square"/>
   </g>
   <g id="patch_5">
    <path d="M 127.42 583.245 
L 887.04 583.245 
" style="fill: none; stroke: #000000; stroke-width: 0.8; stroke-linejoin: miter; stroke-linecap: square"/>
   </g>
   <g id="patch_6">
    <path d="M 127.42 51.573 
L 887.04 51.573 
" style="fill: none; stroke: #000000; stroke-width: 0.8; stroke-linejoin: miter; stroke-linecap: square"/>
   </g>
   <g id="legend_1">
    <g id="patch_7">
     <path d="M 600.47 567.245 
L 864.64 567.245 
Q 871.04 567.245 871.04 560.845 
L 871.04 277.54 
Q 871.04 271.14 864.64 271.14 
L 600.47 271.14 
Q 594.07 271.14 594.07 277.54 
L 594.07 560.845 
Q 594.07 567.245 600.47 567.245 
z
" style="fill: #ffffff; opacity: 0.8; stroke: #cccccc; stroke-linejoin: miter"/>
    </g>
    <g id="line2d_17">
     <path d="M 606.87 297.055 
L 638.87 297.055 
L 670.87 297.055 
" style="fill: none; stroke: #ff00ff; stroke-width: 1.5; stroke-linecap: square"/>
     <g>
      <use xlink:href="#m8299d5f9af" x="638.87" y="297.055" style="fill: #ff00ff; stroke: #ff00ff"/>
     </g>
    </g>
    <g id="text_13">
     <!-- GWD -->
     <g transform="translate(696.47 308.255)scale(0.32 -0.32)">
      <defs>
       <path id="DejaVuSerif-47" d="M 4097 3272 
Q 3988 3856 3641 4136 
Q 3294 4416 2675 4416 
Q 1869 4416 1472 3897 
Q 1075 3378 1075 2328 
Q 1075 1300 1484 772 
Q 1894 244 2688 244 
Q 3041 244 3362 331 
Q 3684 419 3975 594 
L 3975 1797 
L 3097 1797 
L 3097 2131 
L 4609 2131 
L 4609 391 
Q 4194 150 3714 29 
Q 3234 -91 2688 -91 
Q 1631 -91 995 570 
Q 359 1231 359 2328 
Q 359 3434 996 4092 
Q 1634 4750 2713 4750 
Q 3113 4750 3539 4658 
Q 3966 4566 4447 4378 
L 4447 3272 
L 4097 3272 
z
" transform="scale(0.015625)"/>
       <path id="DejaVuSerif-57" d="M 4878 0 
L 4366 0 
L 3297 3794 
L 2228 0 
L 1716 0 
L 494 4331 
L 31 4331 
L 31 4666 
L 1734 4666 
L 1734 4331 
L 1153 4331 
L 2125 884 
L 3188 4666 
L 3694 4666 
L 4775 844 
L 5753 4331 
L 5216 4331 
L 5216 4666 
L 6559 4666 
L 6559 4331 
L 6100 4331 
L 4878 0 
z
" transform="scale(0.015625)"/>
       <path id="DejaVuSerif-44" d="M 1581 331 
L 2163 331 
Q 3072 331 3558 850 
Q 4044 1369 4044 2338 
Q 4044 3306 3559 3818 
Q 3075 4331 2163 4331 
L 1581 4331 
L 1581 331 
z
M 353 0 
L 353 331 
L 947 331 
L 947 4331 
L 353 4331 
L 353 4666 
L 2209 4666 
Q 3416 4666 4089 4050 
Q 4763 3434 4763 2338 
Q 4763 1238 4088 619 
Q 3413 0 2209 0 
L 353 0 
z
" transform="scale(0.015625)"/>
      </defs>
      <use xlink:href="#DejaVuSerif-47"/>
      <use xlink:href="#DejaVuSerif-57" x="79.882812"/>
      <use xlink:href="#DejaVuSerif-44" x="182.666016"/>
     </g>
    </g>
    <g id="line2d_18">
     <path d="M 606.87 344.025 
L 638.87 344.025 
L 670.87 344.025 
" style="fill: none; stroke: #0000ff; stroke-width: 1.5; stroke-linecap: square"/>
     <g>
      <use xlink:href="#mbff6c5a86e" x="638.87" y="344.025" style="fill: #0000ff; stroke: #0000ff; stroke-linejoin: miter"/>
     </g>
    </g>
    <g id="text_14">
     <!-- 1 - GIoU -->
     <g transform="translate(696.47 355.225)scale(0.32 -0.32)">
      <defs>
       <path id="DejaVuSerif-2d" d="M 281 1959 
L 1881 1959 
L 1881 1472 
L 281 1472 
L 281 1959 
z
" transform="scale(0.015625)"/>
       <path id="DejaVuSerif-49" d="M 1581 331 
L 2175 331 
L 2175 0 
L 353 0 
L 353 331 
L 947 331 
L 947 4331 
L 353 4331 
L 353 4666 
L 2175 4666 
L 2175 4331 
L 1581 4331 
L 1581 331 
z
" transform="scale(0.015625)"/>
       <path id="DejaVuSerif-55" d="M 897 4331 
L 300 4331 
L 300 4666 
L 2125 4666 
L 2125 4331 
L 1528 4331 
L 1528 1919 
Q 1528 1025 1820 672 
Q 2113 319 2828 319 
Q 3544 319 3836 672 
Q 4128 1025 4128 1919 
L 4128 4331 
L 3531 4331 
L 3531 4666 
L 5106 4666 
L 5106 4331 
L 4513 4331 
L 4513 1856 
Q 4513 791 4103 350 
Q 3694 -91 2713 -91 
Q 1731 -91 1314 353 
Q 897 797 897 1856 
L 897 4331 
z
" transform="scale(0.015625)"/>
      </defs>
      <use xlink:href="#DejaVuSerif-31"/>
      <use xlink:href="#DejaVuSerif-20" x="63.623047"/>
      <use xlink:href="#DejaVuSerif-2d" x="95.410156"/>
      <use xlink:href="#DejaVuSerif-20" x="129.199219"/>
      <use xlink:href="#DejaVuSerif-47" x="160.986328"/>
      <use xlink:href="#DejaVuSerif-49" x="240.869141"/>
      <use xlink:href="#DejaVuSerif-6f" x="280.371094"/>
      <use xlink:href="#DejaVuSerif-55" x="340.576172"/>
     </g>
    </g>
    <g id="line2d_19">
     <path d="M 606.87 390.995 
L 638.87 390.995 
L 670.87 390.995 
" style="fill: none; stroke: #ffa500; stroke-width: 1.5; stroke-linecap: square"/>
     <g>
      <use xlink:href="#md8a900bd5d" x="638.87" y="390.995" style="fill: #ffa500; stroke: #ffa500; stroke-linejoin: bevel"/>
     </g>
    </g>
    <g id="text_15">
     <!-- OSPA-100 -->
     <g transform="translate(696.47 402.195)scale(0.32 -0.32)">
      <defs>
       <path id="DejaVuSerif-4f" d="M 2625 244 
Q 3391 244 3781 770 
Q 4172 1297 4172 2328 
Q 4172 3363 3781 3889 
Q 3391 4416 2625 4416 
Q 1856 4416 1465 3889 
Q 1075 3363 1075 2328 
Q 1075 1297 1465 770 
Q 1856 244 2625 244 
z
M 2625 -91 
Q 2150 -91 1751 65 
Q 1353 222 1050 525 
Q 700 875 529 1319 
Q 359 1763 359 2328 
Q 359 2894 529 3339 
Q 700 3784 1050 4134 
Q 1356 4441 1750 4595 
Q 2144 4750 2625 4750 
Q 3641 4750 4266 4084 
Q 4891 3419 4891 2328 
Q 4891 1769 4719 1320 
Q 4547 872 4197 525 
Q 3891 219 3497 64 
Q 3103 -91 2625 -91 
z
" transform="scale(0.015625)"/>
       <path id="DejaVuSerif-50" d="M 1581 2375 
L 2406 2375 
Q 2872 2375 3115 2626 
Q 3359 2878 3359 3353 
Q 3359 3831 3115 4081 
Q 2872 4331 2406 4331 
L 1581 4331 
L 1581 2375 
z
M 353 0 
L 353 331 
L 947 331 
L 947 4331 
L 353 4331 
L 353 4666 
L 2559 4666 
Q 3259 4666 3668 4311 
Q 4078 3956 4078 3353 
Q 4078 2753 3668 2397 
Q 3259 2041 2559 2041 
L 1581 2041 
L 1581 331 
L 2303 331 
L 2303 0 
L 353 0 
z
" transform="scale(0.015625)"/>
       <path id="DejaVuSerif-41" d="M 1281 1691 
L 2994 1691 
L 2138 3909 
L 1281 1691 
z
M -38 0 
L -38 331 
L 372 331 
L 2034 4666 
L 2559 4666 
L 4225 331 
L 4684 331 
L 4684 0 
L 2988 0 
L 2988 331 
L 3506 331 
L 3116 1356 
L 1153 1356 
L 763 331 
L 1275 331 
L 1275 0 
L -38 0 
z
" transform="scale(0.015625)"/>
      </defs>
      <use xlink:href="#DejaVuSerif-4f"/>
      <use xlink:href="#DejaVuSerif-53" x="81.982422"/>
      <use xlink:href="#DejaVuSerif-50" x="150.488281"/>
      <use xlink:href="#DejaVuSerif-41" x="208.648438"/>
      <use xlink:href="#DejaVuSerif-2d" x="280.865234"/>
      <use xlink:href="#DejaVuSerif-31" x="314.654297"/>
      <use xlink:href="#DejaVuSerif-30" x="378.277344"/>
      <use xlink:href="#DejaVuSerif-30" x="441.900391"/>
     </g>
    </g>
    <g id="line2d_20">
     <path d="M 606.87 437.965 
L 638.87 437.965 
L 670.87 437.965 
" style="fill: none; stroke: #008000; stroke-width: 1.5; stroke-linecap: square"/>
     <g>
      <use xlink:href="#m70b5bc7759" x="638.87" y="437.965" style="fill: #008000; stroke: #008000; stroke-linejoin: miter"/>
     </g>
    </g>
    <g id="text_16">
     <!-- GWS -->
     <g transform="translate(696.47 449.165)scale(0.32 -0.32)">
      <use xlink:href="#DejaVuSerif-47"/>
      <use xlink:href="#DejaVuSerif-57" x="79.882812"/>
      <use xlink:href="#DejaVuSerif-53" x="182.666016"/>
     </g>
    </g>
    <g id="line2d_21">
     <path d="M 606.87 489.165 
L 638.87 489.165 
L 670.87 489.165 
" style="fill: none; stroke: #ff0000; stroke-width: 1.5; stroke-linecap: square"/>
     <g>
      <use xlink:href="#m0f09ac1aa0" x="638.87" y="489.165" style="fill: #ff0000; stroke: #ff0000; stroke-linejoin: miter"/>
     </g>
    </g>
    <g id="text_17">
     <!-- $\sqrt{\mathrm{KLD}}$ -->
     <g transform="translate(696.47 500.365)scale(0.32 -0.32)">
      <defs>
       <path id="STIXSizeOneSym-Regular-221a" d="M 6970 9933 
L 3373 -1888 
L 3104 -1888 
L 1626 2918 
Q 1555 3149 1465 3251 
Q 1376 3354 1229 3354 
Q 1011 3354 794 3181 
L 717 3309 
L 1766 4115 
L 1926 4115 
L 3379 -602 
L 3405 -602 
L 6605 9933 
L 6970 9933 
z
" transform="scale(0.015625)"/>
       <path id="DejaVuSans-4b" d="M 628 4666 
L 1259 4666 
L 1259 2694 
L 3353 4666 
L 4166 4666 
L 1850 2491 
L 4331 0 
L 3500 0 
L 1259 2247 
L 1259 0 
L 628 0 
L 628 4666 
z
" transform="scale(0.015625)"/>
       <path id="DejaVuSans-4c" d="M 628 4666 
L 1259 4666 
L 1259 531 
L 3531 531 
L 3531 0 
L 628 0 
L 628 4666 
z
" transform="scale(0.015625)"/>
       <path id="DejaVuSans-44" d="M 1259 4147 
L 1259 519 
L 2022 519 
Q 2988 519 3436 956 
Q 3884 1394 3884 2338 
Q 3884 3275 3436 3711 
Q 2988 4147 2022 4147 
L 1259 4147 
z
M 628 4666 
L 1925 4666 
Q 3281 4666 3915 4102 
Q 4550 3538 4550 2338 
Q 4550 1131 3912 565 
Q 3275 0 1925 0 
L 628 0 
L 628 4666 
z
" transform="scale(0.015625)"/>
      </defs>
      <use xlink:href="#STIXSizeOneSym-Regular-221a" transform="translate(0 17.09375)scale(0.563912)"/>
      <use xlink:href="#DejaVuSans-4b" transform="translate(72.088364 0.84375)"/>
      <use xlink:href="#DejaVuSans-4c" transform="translate(137.664536 0.84375)"/>
      <use xlink:href="#DejaVuSans-44" transform="translate(193.377426 0.84375)"/>
      <path d="M 59.588364 97.5 
L 59.588364 103.75 
L 282.879379 103.75 
L 282.879379 97.5 
L 59.588364 97.5 
z
"/>
     </g>
    </g>
    <g id="line2d_22">
     <path d="M 606.87 536.135 
L 638.87 536.135 
L 670.87 536.135 
" style="fill: none; stroke: #a52a2a; stroke-width: 1.5; stroke-linecap: square"/>
     <g>
      <use xlink:href="#m61adad0941" x="638.87" y="536.135" style="fill: #a52a2a; stroke: #a52a2a; stroke-linejoin: miter"/>
     </g>
    </g>
    <g id="text_18">
     <!-- Hellinger -->
     <g transform="translate(696.47 547.335)scale(0.32 -0.32)">
      <defs>
       <path id="DejaVuSerif-48" d="M 353 0 
L 353 331 
L 947 331 
L 947 4331 
L 353 4331 
L 353 4666 
L 2175 4666 
L 2175 4331 
L 1581 4331 
L 1581 2719 
L 4000 2719 
L 4000 4331 
L 3406 4331 
L 3406 4666 
L 5228 4666 
L 5228 4331 
L 4634 4331 
L 4634 331 
L 5228 331 
L 5228 0 
L 3406 0 
L 3406 331 
L 4000 331 
L 4000 2338 
L 1581 2338 
L 1581 331 
L 2175 331 
L 2175 0 
L 353 0 
z
" transform="scale(0.015625)"/>
      </defs>
      <use xlink:href="#DejaVuSerif-48"/>
      <use xlink:href="#DejaVuSerif-65" x="87.207031"/>
      <use xlink:href="#DejaVuSerif-6c" x="146.386719"/>
      <use xlink:href="#DejaVuSerif-6c" x="178.369141"/>
      <use xlink:href="#DejaVuSerif-69" x="210.351562"/>
      <use xlink:href="#DejaVuSerif-6e" x="242.333984"/>
      <use xlink:href="#DejaVuSerif-67" x="306.738281"/>
      <use xlink:href="#DejaVuSerif-65" x="370.751953"/>
      <use xlink:href="#DejaVuSerif-72" x="429.931641"/>
     </g>
    </g>
   </g>
  </g>
 </g>
 <defs>
  <clipPath id="peb9ca5aaf1">
   <rect x="127.42" y="51.573" width="759.62" height="531.672"/>
  </clipPath>
 </defs>
</svg>
