<?xml version="1.0" encoding="utf-8" standalone="no"?>
<!DOCTYPE svg PUBLIC "-//W3C//DTD SVG 1.1//EN"
  "http://www.w3.org/Graphics/SVG/1.1/DTD/svg11.dtd">
<svg xmlns:xlink="http://www.w3.org/1999/xlink" width="921.6pt" height="691.2pt" viewBox="0 0 921.6 691.2" xmlns="http://www.w3.org/2000/svg" version="1.1">
 <metadata>
  <rdf:RDF xmlns:dc="http://purl.org/dc/elements/1.1/" xmlns:cc="http://creativecommons.org/ns#" xmlns:rdf="http://www.w3.org/1999/02/22-rdf-syntax-ns#">
   <cc:Work>
    <dc:type rdf:resource="http://purl.org/dc/dcmitype/StillImage"/>
    <dc:date>2023-04-25T10:35:46.083194</dc:date>
    <dc:format>image/svg+xml</dc:format>
    <dc:creator>
     <cc:Agent>
      <dc:title>Matplotlib v3.5.1, https://matplotlib.org/</dc:title>
     </cc:Agent>
    </dc:creator>
   </cc:Work>
  </rdf:RDF>
 </metadata>
 <defs>
  <style type="text/css">*{stroke-linejoin: round; stroke-linecap: butt}</style>
 </defs>
 <g id="figure_1">
  <g id="patch_1">
   <path d="M 0 691.2 
L 921.6 691.2 
L 921.6 0 
L 0 0 
z
" style="fill: #ffffff"/>
  </g>
  <g id="axes_1">
   <g id="patch_2">
    <path d="M 127.42 582.99 
L 887.04 582.99 
L 887.04 51.573 
L 127.42 51.573 
z
" style="fill: #ffffff"/>
   </g>
   <g id="matplotlib.axis_1">
    <g id="xtick_1">
     <g id="line2d_1">
      <defs>
       <path id="m9617f78c83" d="M 0 0 
L 0 3.5 
" style="stroke: #000000; stroke-width: 0.8"/>
      </defs>
      <g>
       <use xlink:href="#m9617f78c83" x="161.948182" y="582.99" style="stroke: #000000; stroke-width: 0.8"/>
      </g>
     </g>
     <g id="text_1">
      <!-- 0 -->
      <g transform="translate(151.768182 614.305)scale(0.32 -0.32)">
       <defs>
        <path id="DejaVuSerif-30" d="M 2034 219 
Q 2513 219 2750 744 
Q 2988 1269 2988 2328 
Q 2988 3391 2750 3916 
Q 2513 4441 2034 4441 
Q 1556 4441 1318 3916 
Q 1081 3391 1081 2328 
Q 1081 1269 1318 744 
Q 1556 219 2034 219 
z
M 2034 -91 
Q 1275 -91 848 546 
Q 422 1184 422 2328 
Q 422 3475 848 4112 
Q 1275 4750 2034 4750 
Q 2797 4750 3222 4112 
Q 3647 3475 3647 2328 
Q 3647 1184 3222 546 
Q 2797 -91 2034 -91 
z
" transform="scale(0.015625)"/>
       </defs>
       <use xlink:href="#DejaVuSerif-30"/>
      </g>
     </g>
    </g>
    <g id="xtick_2">
     <g id="line2d_2">
      <g>
       <use xlink:href="#m9617f78c83" x="300.060909" y="582.99" style="stroke: #000000; stroke-width: 0.8"/>
      </g>
     </g>
     <g id="text_2">
      <!-- 2 -->
      <g transform="translate(289.880909 614.305)scale(0.32 -0.32)">
       <defs>
        <path id="DejaVuSerif-32" d="M 819 3553 
L 469 3553 
L 469 4384 
Q 803 4563 1142 4656 
Q 1481 4750 1806 4750 
Q 2534 4750 2956 4397 
Q 3378 4044 3378 3438 
Q 3378 2753 2422 1800 
Q 2347 1728 2309 1691 
L 1131 513 
L 3078 513 
L 3078 1088 
L 3444 1088 
L 3444 0 
L 434 0 
L 434 341 
L 1850 1753 
Q 2319 2222 2519 2614 
Q 2719 3006 2719 3438 
Q 2719 3909 2473 4175 
Q 2228 4441 1797 4441 
Q 1350 4441 1106 4219 
Q 863 3997 819 3553 
z
" transform="scale(0.015625)"/>
       </defs>
       <use xlink:href="#DejaVuSerif-32"/>
      </g>
     </g>
    </g>
    <g id="xtick_3">
     <g id="line2d_3">
      <g>
       <use xlink:href="#m9617f78c83" x="438.173636" y="582.99" style="stroke: #000000; stroke-width: 0.8"/>
      </g>
     </g>
     <g id="text_3">
      <!-- 4 -->
      <g transform="translate(427.993636 614.305)scale(0.32 -0.32)">
       <defs>
        <path id="DejaVuSerif-34" d="M 2234 1581 
L 2234 4063 
L 641 1581 
L 2234 1581 
z
M 3609 0 
L 1484 0 
L 1484 331 
L 2234 331 
L 2234 1247 
L 197 1247 
L 197 1588 
L 2241 4750 
L 2859 4750 
L 2859 1581 
L 3750 1581 
L 3750 1247 
L 2859 1247 
L 2859 331 
L 3609 331 
L 3609 0 
z
" transform="scale(0.015625)"/>
       </defs>
       <use xlink:href="#DejaVuSerif-34"/>
      </g>
     </g>
    </g>
    <g id="xtick_4">
     <g id="line2d_4">
      <g>
       <use xlink:href="#m9617f78c83" x="576.286364" y="582.99" style="stroke: #000000; stroke-width: 0.8"/>
      </g>
     </g>
     <g id="text_4">
      <!-- 6 -->
      <g transform="translate(566.106364 614.305)scale(0.32 -0.32)">
       <defs>
        <path id="DejaVuSerif-36" d="M 2094 219 
Q 2534 219 2771 542 
Q 3009 866 3009 1472 
Q 3009 2078 2771 2401 
Q 2534 2725 2094 2725 
Q 1647 2725 1412 2412 
Q 1178 2100 1178 1509 
Q 1178 888 1415 553 
Q 1653 219 2094 219 
z
M 1075 2569 
Q 1288 2803 1556 2918 
Q 1825 3034 2163 3034 
Q 2859 3034 3264 2615 
Q 3669 2197 3669 1472 
Q 3669 763 3233 336 
Q 2797 -91 2069 -91 
Q 1278 -91 853 498 
Q 428 1088 428 2181 
Q 428 3406 931 4078 
Q 1434 4750 2350 4750 
Q 2597 4750 2869 4703 
Q 3141 4656 3425 4563 
L 3425 3794 
L 3072 3794 
Q 3034 4109 2831 4275 
Q 2628 4441 2284 4441 
Q 1678 4441 1381 3981 
Q 1084 3522 1075 2569 
z
" transform="scale(0.015625)"/>
       </defs>
       <use xlink:href="#DejaVuSerif-36"/>
      </g>
     </g>
    </g>
    <g id="xtick_5">
     <g id="line2d_5">
      <g>
       <use xlink:href="#m9617f78c83" x="714.399091" y="582.99" style="stroke: #000000; stroke-width: 0.8"/>
      </g>
     </g>
     <g id="text_5">
      <!-- 8 -->
      <g transform="translate(704.219091 614.305)scale(0.32 -0.32)">
       <defs>
        <path id="DejaVuSerif-38" d="M 2981 1275 
Q 2981 1775 2732 2051 
Q 2484 2328 2034 2328 
Q 1584 2328 1336 2051 
Q 1088 1775 1088 1275 
Q 1088 772 1336 495 
Q 1584 219 2034 219 
Q 2484 219 2732 495 
Q 2981 772 2981 1275 
z
M 2853 3541 
Q 2853 3966 2637 4203 
Q 2422 4441 2034 4441 
Q 1650 4441 1433 4203 
Q 1216 3966 1216 3541 
Q 1216 3113 1433 2875 
Q 1650 2638 2034 2638 
Q 2422 2638 2637 2875 
Q 2853 3113 2853 3541 
z
M 2516 2484 
Q 3047 2413 3344 2092 
Q 3641 1772 3641 1275 
Q 3641 619 3225 264 
Q 2809 -91 2034 -91 
Q 1263 -91 845 264 
Q 428 619 428 1275 
Q 428 1772 725 2092 
Q 1022 2413 1556 2484 
Q 1084 2569 832 2842 
Q 581 3116 581 3541 
Q 581 4103 968 4426 
Q 1356 4750 2034 4750 
Q 2713 4750 3100 4426 
Q 3488 4103 3488 3541 
Q 3488 3116 3236 2842 
Q 2984 2569 2516 2484 
z
" transform="scale(0.015625)"/>
       </defs>
       <use xlink:href="#DejaVuSerif-38"/>
      </g>
     </g>
    </g>
    <g id="xtick_6">
     <g id="line2d_6">
      <g>
       <use xlink:href="#m9617f78c83" x="852.511818" y="582.99" style="stroke: #000000; stroke-width: 0.8"/>
      </g>
     </g>
     <g id="text_6">
      <!-- 10 -->
      <g transform="translate(832.151818 614.305)scale(0.32 -0.32)">
       <defs>
        <path id="DejaVuSerif-31" d="M 909 0 
L 909 331 
L 1722 331 
L 1722 4213 
L 781 3603 
L 781 4013 
L 1919 4750 
L 2350 4750 
L 2350 331 
L 3163 331 
L 3163 0 
L 909 0 
z
" transform="scale(0.015625)"/>
       </defs>
       <use xlink:href="#DejaVuSerif-31"/>
       <use xlink:href="#DejaVuSerif-30" x="63.623047"/>
      </g>
     </g>
    </g>
    <g id="text_7">
     <!-- Distance between Object Centers / $m$ -->
     <g transform="translate(203.87 649.28)scale(0.32 -0.32)">
      <defs>
       <path id="DejaVuSerif-44" d="M 1581 331 
L 2163 331 
Q 3072 331 3558 850 
Q 4044 1369 4044 2338 
Q 4044 3306 3559 3818 
Q 3075 4331 2163 4331 
L 1581 4331 
L 1581 331 
z
M 353 0 
L 353 331 
L 947 331 
L 947 4331 
L 353 4331 
L 353 4666 
L 2209 4666 
Q 3416 4666 4089 4050 
Q 4763 3434 4763 2338 
Q 4763 1238 4088 619 
Q 3413 0 2209 0 
L 353 0 
z
" transform="scale(0.015625)"/>
       <path id="DejaVuSerif-69" d="M 622 4353 
Q 622 4497 726 4603 
Q 831 4709 978 4709 
Q 1122 4709 1226 4603 
Q 1331 4497 1331 4353 
Q 1331 4206 1228 4103 
Q 1125 4000 978 4000 
Q 831 4000 726 4103 
Q 622 4206 622 4353 
z
M 1356 331 
L 1900 331 
L 1900 0 
L 231 0 
L 231 331 
L 781 331 
L 781 2988 
L 231 2988 
L 231 3322 
L 1356 3322 
L 1356 331 
z
" transform="scale(0.015625)"/>
       <path id="DejaVuSerif-73" d="M 359 184 
L 359 959 
L 691 959 
Q 703 588 923 403 
Q 1144 219 1575 219 
Q 1963 219 2166 364 
Q 2369 509 2369 788 
Q 2369 1006 2220 1140 
Q 2072 1275 1594 1428 
L 1178 1569 
Q 750 1706 558 1912 
Q 366 2119 366 2438 
Q 366 2894 700 3153 
Q 1034 3413 1625 3413 
Q 1888 3413 2178 3344 
Q 2469 3275 2778 3144 
L 2778 2419 
L 2447 2419 
Q 2434 2741 2221 2922 
Q 2009 3103 1644 3103 
Q 1281 3103 1095 2975 
Q 909 2847 909 2591 
Q 909 2381 1050 2254 
Q 1191 2128 1613 1997 
L 2069 1856 
Q 2541 1709 2748 1489 
Q 2956 1269 2956 922 
Q 2956 450 2595 179 
Q 2234 -91 1600 -91 
Q 1278 -91 972 -22 
Q 666 47 359 184 
z
" transform="scale(0.015625)"/>
       <path id="DejaVuSerif-74" d="M 691 2988 
L 184 2988 
L 184 3322 
L 691 3322 
L 691 4353 
L 1269 4353 
L 1269 3322 
L 2350 3322 
L 2350 2988 
L 1269 2988 
L 1269 878 
Q 1269 456 1350 337 
Q 1431 219 1650 219 
Q 1875 219 1978 351 
Q 2081 484 2088 781 
L 2522 781 
Q 2497 328 2275 118 
Q 2053 -91 1600 -91 
Q 1103 -91 897 129 
Q 691 350 691 878 
L 691 2988 
z
" transform="scale(0.015625)"/>
       <path id="DejaVuSerif-61" d="M 2547 1044 
L 2547 1747 
L 1806 1747 
Q 1378 1747 1168 1562 
Q 959 1378 959 997 
Q 959 650 1171 447 
Q 1384 244 1747 244 
Q 2106 244 2326 466 
Q 2547 688 2547 1044 
z
M 3122 2075 
L 3122 331 
L 3634 331 
L 3634 0 
L 2547 0 
L 2547 359 
Q 2356 128 2106 18 
Q 1856 -91 1522 -91 
Q 969 -91 644 203 
Q 319 497 319 997 
Q 319 1513 691 1797 
Q 1063 2081 1741 2081 
L 2547 2081 
L 2547 2309 
Q 2547 2688 2317 2895 
Q 2088 3103 1672 3103 
Q 1328 3103 1125 2947 
Q 922 2791 872 2484 
L 575 2484 
L 575 3156 
Q 875 3284 1158 3348 
Q 1441 3413 1709 3413 
Q 2400 3413 2761 3070 
Q 3122 2728 3122 2075 
z
" transform="scale(0.015625)"/>
       <path id="DejaVuSerif-6e" d="M 263 0 
L 263 331 
L 781 331 
L 781 2988 
L 231 2988 
L 231 3322 
L 1356 3322 
L 1356 2731 
Q 1516 3069 1770 3241 
Q 2025 3413 2363 3413 
Q 2913 3413 3172 3097 
Q 3431 2781 3431 2113 
L 3431 331 
L 3944 331 
L 3944 0 
L 2356 0 
L 2356 331 
L 2853 331 
L 2853 1931 
Q 2853 2541 2703 2767 
Q 2553 2994 2175 2994 
Q 1775 2994 1565 2701 
Q 1356 2409 1356 1850 
L 1356 331 
L 1856 331 
L 1856 0 
L 263 0 
z
" transform="scale(0.015625)"/>
       <path id="DejaVuSerif-63" d="M 3291 997 
Q 3169 466 2822 187 
Q 2475 -91 1925 -91 
Q 1200 -91 759 389 
Q 319 869 319 1663 
Q 319 2459 759 2936 
Q 1200 3413 1925 3413 
Q 2241 3413 2553 3339 
Q 2866 3266 3181 3116 
L 3181 2266 
L 2847 2266 
Q 2781 2703 2561 2903 
Q 2341 3103 1931 3103 
Q 1466 3103 1228 2742 
Q 991 2381 991 1663 
Q 991 944 1227 581 
Q 1463 219 1931 219 
Q 2303 219 2525 412 
Q 2747 606 2828 997 
L 3291 997 
z
" transform="scale(0.015625)"/>
       <path id="DejaVuSerif-65" d="M 3469 1600 
L 991 1600 
L 991 1575 
Q 991 903 1244 561 
Q 1497 219 1991 219 
Q 2369 219 2611 417 
Q 2853 616 2950 1006 
L 3413 1006 
Q 3275 459 2904 184 
Q 2534 -91 1931 -91 
Q 1203 -91 761 389 
Q 319 869 319 1663 
Q 319 2450 753 2931 
Q 1188 3413 1894 3413 
Q 2647 3413 3050 2948 
Q 3453 2484 3469 1600 
z
M 2791 1931 
Q 2772 2513 2545 2808 
Q 2319 3103 1894 3103 
Q 1497 3103 1269 2806 
Q 1041 2509 991 1931 
L 2791 1931 
z
" transform="scale(0.015625)"/>
       <path id="DejaVuSerif-20" transform="scale(0.015625)"/>
       <path id="DejaVuSerif-62" d="M 738 331 
L 738 4531 
L 184 4531 
L 184 4863 
L 1313 4863 
L 1313 2803 
Q 1481 3116 1742 3264 
Q 2003 3413 2388 3413 
Q 3000 3413 3387 2928 
Q 3775 2444 3775 1663 
Q 3775 881 3387 395 
Q 3000 -91 2388 -91 
Q 2003 -91 1742 57 
Q 1481 206 1313 519 
L 1313 0 
L 184 0 
L 184 331 
L 738 331 
z
M 1313 1497 
Q 1313 897 1542 583 
Q 1772 269 2209 269 
Q 2650 269 2876 622 
Q 3103 975 3103 1663 
Q 3103 2353 2876 2703 
Q 2650 3053 2209 3053 
Q 1772 3053 1542 2737 
Q 1313 2422 1313 1825 
L 1313 1497 
z
" transform="scale(0.015625)"/>
       <path id="DejaVuSerif-77" d="M 3072 3322 
L 3922 728 
L 4672 2988 
L 4191 2988 
L 4191 3322 
L 5394 3322 
L 5394 2988 
L 5025 2988 
L 4038 0 
L 3559 0 
L 2741 2484 
L 1919 0 
L 1459 0 
L 475 2988 
L 103 2988 
L 103 3322 
L 1606 3322 
L 1606 2988 
L 1069 2988 
L 1813 728 
L 2669 3322 
L 3072 3322 
z
" transform="scale(0.015625)"/>
       <path id="DejaVuSerif-4f" d="M 2625 244 
Q 3391 244 3781 770 
Q 4172 1297 4172 2328 
Q 4172 3363 3781 3889 
Q 3391 4416 2625 4416 
Q 1856 4416 1465 3889 
Q 1075 3363 1075 2328 
Q 1075 1297 1465 770 
Q 1856 244 2625 244 
z
M 2625 -91 
Q 2150 -91 1751 65 
Q 1353 222 1050 525 
Q 700 875 529 1319 
Q 359 1763 359 2328 
Q 359 2894 529 3339 
Q 700 3784 1050 4134 
Q 1356 4441 1750 4595 
Q 2144 4750 2625 4750 
Q 3641 4750 4266 4084 
Q 4891 3419 4891 2328 
Q 4891 1769 4719 1320 
Q 4547 872 4197 525 
Q 3891 219 3497 64 
Q 3103 -91 2625 -91 
z
" transform="scale(0.015625)"/>
       <path id="DejaVuSerif-6a" d="M 641 4353 
Q 641 4497 745 4603 
Q 850 4709 997 4709 
Q 1141 4709 1245 4603 
Q 1350 4497 1350 4353 
Q 1350 4206 1248 4103 
Q 1147 4000 997 4000 
Q 850 4000 745 4103 
Q 641 4206 641 4353 
z
M 781 2988 
L 238 2988 
L 238 3322 
L 1356 3322 
L 1356 -325 
Q 1356 -838 1051 -1130 
Q 747 -1422 213 -1422 
Q -13 -1422 -217 -1370 
Q -422 -1319 -616 -1216 
L -616 -531 
L -319 -531 
Q -297 -831 -164 -972 
Q -31 -1113 225 -1113 
Q 509 -1113 645 -920 
Q 781 -728 781 -325 
L 781 2988 
z
" transform="scale(0.015625)"/>
       <path id="DejaVuSerif-43" d="M 4513 1234 
Q 4306 581 3820 245 
Q 3334 -91 2591 -91 
Q 2134 -91 1743 65 
Q 1353 222 1050 525 
Q 700 875 529 1320 
Q 359 1766 359 2328 
Q 359 3416 987 4083 
Q 1616 4750 2644 4750 
Q 3025 4750 3456 4650 
Q 3888 4550 4384 4347 
L 4384 3272 
L 4031 3272 
Q 3916 3859 3567 4137 
Q 3219 4416 2591 4416 
Q 1844 4416 1459 3886 
Q 1075 3356 1075 2328 
Q 1075 1303 1459 773 
Q 1844 244 2591 244 
Q 3113 244 3450 492 
Q 3788 741 3938 1234 
L 4513 1234 
z
" transform="scale(0.015625)"/>
       <path id="DejaVuSerif-72" d="M 3059 3328 
L 3059 2497 
L 2728 2497 
Q 2713 2744 2591 2866 
Q 2469 2988 2234 2988 
Q 1809 2988 1582 2694 
Q 1356 2400 1356 1850 
L 1356 331 
L 2022 331 
L 2022 0 
L 263 0 
L 263 331 
L 781 331 
L 781 2994 
L 231 2994 
L 231 3322 
L 1356 3322 
L 1356 2731 
Q 1525 3078 1790 3245 
Q 2056 3413 2438 3413 
Q 2578 3413 2733 3391 
Q 2888 3369 3059 3328 
z
" transform="scale(0.015625)"/>
       <path id="DejaVuSerif-2f" d="M 1656 4666 
L 2156 4666 
L 500 -594 
L 0 -594 
L 1656 4666 
z
" transform="scale(0.015625)"/>
       <path id="DejaVuSans-Oblique-6d" d="M 5747 2113 
L 5338 0 
L 4763 0 
L 5166 2094 
Q 5191 2228 5203 2325 
Q 5216 2422 5216 2491 
Q 5216 2772 5059 2928 
Q 4903 3084 4622 3084 
Q 4203 3084 3875 2770 
Q 3547 2456 3450 1953 
L 3066 0 
L 2491 0 
L 2900 2094 
Q 2925 2209 2937 2307 
Q 2950 2406 2950 2484 
Q 2950 2769 2794 2926 
Q 2638 3084 2363 3084 
Q 1938 3084 1609 2770 
Q 1281 2456 1184 1953 
L 800 0 
L 225 0 
L 909 3500 
L 1484 3500 
L 1375 2956 
Q 1609 3263 1923 3423 
Q 2238 3584 2597 3584 
Q 2978 3584 3223 3384 
Q 3469 3184 3519 2828 
Q 3781 3197 4126 3390 
Q 4472 3584 4856 3584 
Q 5306 3584 5551 3325 
Q 5797 3066 5797 2591 
Q 5797 2488 5784 2364 
Q 5772 2241 5747 2113 
z
" transform="scale(0.015625)"/>
      </defs>
      <use xlink:href="#DejaVuSerif-44" transform="translate(0 0.015625)"/>
      <use xlink:href="#DejaVuSerif-69" transform="translate(80.175781 0.015625)"/>
      <use xlink:href="#DejaVuSerif-73" transform="translate(112.158203 0.015625)"/>
      <use xlink:href="#DejaVuSerif-74" transform="translate(163.476562 0.015625)"/>
      <use xlink:href="#DejaVuSerif-61" transform="translate(203.662109 0.015625)"/>
      <use xlink:href="#DejaVuSerif-6e" transform="translate(263.28125 0.015625)"/>
      <use xlink:href="#DejaVuSerif-63" transform="translate(327.685547 0.015625)"/>
      <use xlink:href="#DejaVuSerif-65" transform="translate(383.691406 0.015625)"/>
      <use xlink:href="#DejaVuSerif-20" transform="translate(442.871094 0.015625)"/>
      <use xlink:href="#DejaVuSerif-62" transform="translate(474.658203 0.015625)"/>
      <use xlink:href="#DejaVuSerif-65" transform="translate(538.671875 0.015625)"/>
      <use xlink:href="#DejaVuSerif-74" transform="translate(597.851562 0.015625)"/>
      <use xlink:href="#DejaVuSerif-77" transform="translate(638.037109 0.015625)"/>
      <use xlink:href="#DejaVuSerif-65" transform="translate(723.632812 0.015625)"/>
      <use xlink:href="#DejaVuSerif-65" transform="translate(782.8125 0.015625)"/>
      <use xlink:href="#DejaVuSerif-6e" transform="translate(841.992188 0.015625)"/>
      <use xlink:href="#DejaVuSerif-20" transform="translate(906.396484 0.015625)"/>
      <use xlink:href="#DejaVuSerif-4f" transform="translate(938.183594 0.015625)"/>
      <use xlink:href="#DejaVuSerif-62" transform="translate(1020.166016 0.015625)"/>
      <use xlink:href="#DejaVuSerif-6a" transform="translate(1084.179688 0.015625)"/>
      <use xlink:href="#DejaVuSerif-65" transform="translate(1115.185547 0.015625)"/>
      <use xlink:href="#DejaVuSerif-63" transform="translate(1174.365234 0.015625)"/>
      <use xlink:href="#DejaVuSerif-74" transform="translate(1230.371094 0.015625)"/>
      <use xlink:href="#DejaVuSerif-20" transform="translate(1270.556641 0.015625)"/>
      <use xlink:href="#DejaVuSerif-43" transform="translate(1302.34375 0.015625)"/>
      <use xlink:href="#DejaVuSerif-65" transform="translate(1378.857422 0.015625)"/>
      <use xlink:href="#DejaVuSerif-6e" transform="translate(1438.037109 0.015625)"/>
      <use xlink:href="#DejaVuSerif-74" transform="translate(1502.441406 0.015625)"/>
      <use xlink:href="#DejaVuSerif-65" transform="translate(1542.626953 0.015625)"/>
      <use xlink:href="#DejaVuSerif-72" transform="translate(1601.806641 0.015625)"/>
      <use xlink:href="#DejaVuSerif-73" transform="translate(1649.609375 0.015625)"/>
      <use xlink:href="#DejaVuSerif-20" transform="translate(1700.927734 0.015625)"/>
      <use xlink:href="#DejaVuSerif-2f" transform="translate(1732.714844 0.015625)"/>
      <use xlink:href="#DejaVuSerif-20" transform="translate(1766.40625 0.015625)"/>
      <use xlink:href="#DejaVuSans-Oblique-6d" transform="translate(1798.193359 0.015625)"/>
     </g>
    </g>
   </g>
   <g id="matplotlib.axis_2">
    <g id="ytick_1">
     <g id="line2d_7">
      <defs>
       <path id="m059a071aa5" d="M 0 0 
L -3.5 0 
" style="stroke: #000000; stroke-width: 0.8"/>
      </defs>
      <g>
       <use xlink:href="#m059a071aa5" x="127.42" y="558.834682" style="stroke: #000000; stroke-width: 0.8"/>
      </g>
     </g>
     <g id="text_8">
      <!-- 0.0 -->
      <g transform="translate(69.53 570.992182)scale(0.32 -0.32)">
       <defs>
        <path id="DejaVuSerif-2e" d="M 603 325 
Q 603 500 722 622 
Q 841 744 1019 744 
Q 1191 744 1312 622 
Q 1434 500 1434 325 
Q 1434 153 1312 31 
Q 1191 -91 1019 -91 
Q 841 -91 722 29 
Q 603 150 603 325 
z
" transform="scale(0.015625)"/>
       </defs>
       <use xlink:href="#DejaVuSerif-30"/>
       <use xlink:href="#DejaVuSerif-2e" x="63.623047"/>
       <use xlink:href="#DejaVuSerif-30" x="95.410156"/>
      </g>
     </g>
    </g>
    <g id="ytick_2">
     <g id="line2d_8">
      <g>
       <use xlink:href="#m059a071aa5" x="127.42" y="462.213409" style="stroke: #000000; stroke-width: 0.8"/>
      </g>
     </g>
     <g id="text_9">
      <!-- 0.2 -->
      <g transform="translate(69.53 474.370909)scale(0.32 -0.32)">
       <use xlink:href="#DejaVuSerif-30"/>
       <use xlink:href="#DejaVuSerif-2e" x="63.623047"/>
       <use xlink:href="#DejaVuSerif-32" x="95.410156"/>
      </g>
     </g>
    </g>
    <g id="ytick_3">
     <g id="line2d_9">
      <g>
       <use xlink:href="#m059a071aa5" x="127.42" y="365.592136" style="stroke: #000000; stroke-width: 0.8"/>
      </g>
     </g>
     <g id="text_10">
      <!-- 0.4 -->
      <g transform="translate(69.53 377.749636)scale(0.32 -0.32)">
       <use xlink:href="#DejaVuSerif-30"/>
       <use xlink:href="#DejaVuSerif-2e" x="63.623047"/>
       <use xlink:href="#DejaVuSerif-34" x="95.410156"/>
      </g>
     </g>
    </g>
    <g id="ytick_4">
     <g id="line2d_10">
      <g>
       <use xlink:href="#m059a071aa5" x="127.42" y="268.970864" style="stroke: #000000; stroke-width: 0.8"/>
      </g>
     </g>
     <g id="text_11">
      <!-- 0.6 -->
      <g transform="translate(69.53 281.128364)scale(0.32 -0.32)">
       <use xlink:href="#DejaVuSerif-30"/>
       <use xlink:href="#DejaVuSerif-2e" x="63.623047"/>
       <use xlink:href="#DejaVuSerif-36" x="95.410156"/>
      </g>
     </g>
    </g>
    <g id="ytick_5">
     <g id="line2d_11">
      <g>
       <use xlink:href="#m059a071aa5" x="127.42" y="172.349591" style="stroke: #000000; stroke-width: 0.8"/>
      </g>
     </g>
     <g id="text_12">
      <!-- 0.8 -->
      <g transform="translate(69.53 184.507091)scale(0.32 -0.32)">
       <use xlink:href="#DejaVuSerif-30"/>
       <use xlink:href="#DejaVuSerif-2e" x="63.623047"/>
       <use xlink:href="#DejaVuSerif-38" x="95.410156"/>
      </g>
     </g>
    </g>
    <g id="ytick_6">
     <g id="line2d_12">
      <g>
       <use xlink:href="#m059a071aa5" x="127.42" y="75.728318" style="stroke: #000000; stroke-width: 0.8"/>
      </g>
     </g>
     <g id="text_13">
      <!-- 1.0 -->
      <g transform="translate(69.53 87.885818)scale(0.32 -0.32)">
       <use xlink:href="#DejaVuSerif-31"/>
       <use xlink:href="#DejaVuSerif-2e" x="63.623047"/>
       <use xlink:href="#DejaVuSerif-30" x="95.410156"/>
      </g>
     </g>
    </g>
    <g id="text_14">
     <!-- Metric Result / max(Metric Result) -->
     <g transform="translate(58.875 600.4065)rotate(-90)scale(0.32 -0.32)">
      <defs>
       <path id="DejaVuSerif-4d" d="M 353 0 
L 353 331 
L 947 331 
L 947 4331 
L 319 4331 
L 319 4666 
L 1678 4666 
L 3316 1344 
L 4953 4666 
L 6228 4666 
L 6228 4331 
L 5606 4331 
L 5606 331 
L 6203 331 
L 6203 0 
L 4378 0 
L 4378 331 
L 4972 331 
L 4972 3938 
L 3372 684 
L 2931 684 
L 1331 3938 
L 1331 331 
L 1925 331 
L 1925 0 
L 353 0 
z
" transform="scale(0.015625)"/>
       <path id="DejaVuSerif-52" d="M 3066 2316 
Q 3284 2256 3442 2114 
Q 3600 1972 3725 1716 
L 4403 331 
L 4972 331 
L 4972 0 
L 3872 0 
L 3144 1484 
Q 2934 1916 2759 2042 
Q 2584 2169 2278 2169 
L 1581 2169 
L 1581 331 
L 2241 331 
L 2241 0 
L 353 0 
L 353 331 
L 947 331 
L 947 4331 
L 353 4331 
L 353 4666 
L 2719 4666 
Q 3400 4666 3770 4341 
Q 4141 4016 4141 3419 
Q 4141 2938 3870 2661 
Q 3600 2384 3066 2316 
z
M 1581 2503 
L 2503 2503 
Q 2975 2503 3200 2726 
Q 3425 2950 3425 3419 
Q 3425 3888 3200 4109 
Q 2975 4331 2503 4331 
L 1581 4331 
L 1581 2503 
z
" transform="scale(0.015625)"/>
       <path id="DejaVuSerif-75" d="M 2266 3322 
L 3341 3322 
L 3341 331 
L 3884 331 
L 3884 0 
L 2766 0 
L 2766 588 
Q 2606 256 2353 82 
Q 2100 -91 1766 -91 
Q 1213 -91 952 223 
Q 691 538 691 1209 
L 691 2988 
L 172 2988 
L 172 3322 
L 1269 3322 
L 1269 1388 
Q 1269 781 1417 556 
Q 1566 331 1947 331 
Q 2347 331 2556 625 
Q 2766 919 2766 1478 
L 2766 2988 
L 2266 2988 
L 2266 3322 
z
" transform="scale(0.015625)"/>
       <path id="DejaVuSerif-6c" d="M 1313 331 
L 1856 331 
L 1856 0 
L 184 0 
L 184 331 
L 738 331 
L 738 4531 
L 184 4531 
L 184 4863 
L 1313 4863 
L 1313 331 
z
" transform="scale(0.015625)"/>
       <path id="DejaVuSerif-6d" d="M 3316 2675 
Q 3481 3041 3739 3227 
Q 3997 3413 4341 3413 
Q 4863 3413 5119 3089 
Q 5375 2766 5375 2113 
L 5375 331 
L 5894 331 
L 5894 0 
L 4300 0 
L 4300 331 
L 4800 331 
L 4800 2047 
Q 4800 2556 4650 2772 
Q 4500 2988 4153 2988 
Q 3769 2988 3567 2697 
Q 3366 2406 3366 1850 
L 3366 331 
L 3866 331 
L 3866 0 
L 2291 0 
L 2291 331 
L 2791 331 
L 2791 2069 
Q 2791 2566 2641 2777 
Q 2491 2988 2144 2988 
Q 1759 2988 1557 2697 
Q 1356 2406 1356 1850 
L 1356 331 
L 1856 331 
L 1856 0 
L 263 0 
L 263 331 
L 781 331 
L 781 2994 
L 231 2994 
L 231 3322 
L 1356 3322 
L 1356 2731 
Q 1516 3063 1762 3238 
Q 2009 3413 2322 3413 
Q 2709 3413 2968 3220 
Q 3228 3028 3316 2675 
z
" transform="scale(0.015625)"/>
       <path id="DejaVuSerif-78" d="M 1863 2028 
L 2559 2988 
L 2113 2988 
L 2113 3322 
L 3391 3322 
L 3391 2988 
L 2950 2988 
L 2059 1759 
L 3097 331 
L 3531 331 
L 3531 0 
L 1997 0 
L 1997 331 
L 2419 331 
L 1697 1325 
L 972 331 
L 1403 331 
L 1403 0 
L 141 0 
L 141 331 
L 581 331 
L 1497 1594 
L 488 2988 
L 78 2988 
L 78 3322 
L 1563 3322 
L 1563 2988 
L 1166 2988 
L 1863 2028 
z
" transform="scale(0.015625)"/>
       <path id="DejaVuSerif-28" d="M 2041 -997 
Q 1281 -656 893 83 
Q 506 822 506 1931 
Q 506 3044 893 3783 
Q 1281 4522 2041 4863 
L 2041 4556 
Q 1559 4225 1350 3623 
Q 1141 3022 1141 1931 
Q 1141 844 1350 242 
Q 1559 -359 2041 -691 
L 2041 -997 
z
" transform="scale(0.015625)"/>
       <path id="DejaVuSerif-29" d="M 453 -997 
L 453 -691 
Q 934 -359 1145 242 
Q 1356 844 1356 1931 
Q 1356 3022 1145 3623 
Q 934 4225 453 4556 
L 453 4863 
Q 1216 4522 1603 3783 
Q 1991 3044 1991 1931 
Q 1991 822 1603 83 
Q 1216 -656 453 -997 
z
" transform="scale(0.015625)"/>
      </defs>
      <use xlink:href="#DejaVuSerif-4d"/>
      <use xlink:href="#DejaVuSerif-65" x="102.392578"/>
      <use xlink:href="#DejaVuSerif-74" x="161.572266"/>
      <use xlink:href="#DejaVuSerif-72" x="201.757812"/>
      <use xlink:href="#DejaVuSerif-69" x="249.560547"/>
      <use xlink:href="#DejaVuSerif-63" x="281.542969"/>
      <use xlink:href="#DejaVuSerif-20" x="337.548828"/>
      <use xlink:href="#DejaVuSerif-52" x="369.335938"/>
      <use xlink:href="#DejaVuSerif-65" x="444.628906"/>
      <use xlink:href="#DejaVuSerif-73" x="503.808594"/>
      <use xlink:href="#DejaVuSerif-75" x="555.126953"/>
      <use xlink:href="#DejaVuSerif-6c" x="619.53125"/>
      <use xlink:href="#DejaVuSerif-74" x="651.513672"/>
      <use xlink:href="#DejaVuSerif-20" x="691.699219"/>
      <use xlink:href="#DejaVuSerif-2f" x="723.486328"/>
      <use xlink:href="#DejaVuSerif-20" x="757.177734"/>
      <use xlink:href="#DejaVuSerif-6d" x="788.964844"/>
      <use xlink:href="#DejaVuSerif-61" x="883.789062"/>
      <use xlink:href="#DejaVuSerif-78" x="943.408203"/>
      <use xlink:href="#DejaVuSerif-28" x="999.804688"/>
      <use xlink:href="#DejaVuSerif-4d" x="1038.818359"/>
      <use xlink:href="#DejaVuSerif-65" x="1141.210938"/>
      <use xlink:href="#DejaVuSerif-74" x="1200.390625"/>
      <use xlink:href="#DejaVuSerif-72" x="1240.576172"/>
      <use xlink:href="#DejaVuSerif-69" x="1288.378906"/>
      <use xlink:href="#DejaVuSerif-63" x="1320.361328"/>
      <use xlink:href="#DejaVuSerif-20" x="1376.367188"/>
      <use xlink:href="#DejaVuSerif-52" x="1408.154297"/>
      <use xlink:href="#DejaVuSerif-65" x="1483.447266"/>
      <use xlink:href="#DejaVuSerif-73" x="1542.626953"/>
      <use xlink:href="#DejaVuSerif-75" x="1593.945312"/>
      <use xlink:href="#DejaVuSerif-6c" x="1658.349609"/>
      <use xlink:href="#DejaVuSerif-74" x="1690.332031"/>
      <use xlink:href="#DejaVuSerif-29" x="1730.517578"/>
     </g>
    </g>
   </g>
   <g id="line2d_13">
    <path d="M 161.948182 558.834682 
L 506.884373 317.764606 
L 507.575627 316.798394 
L 852.511818 75.728318 
L 852.511818 75.728318 
" clip-path="url(#p873aca64f6)" style="fill: none; stroke: #ff00ff; stroke-width: 1.5; stroke-linecap: square"/>
    <defs>
     <path id="ma51dfd2f54" d="M 0 8 
C 2.121625 8 4.156639 7.15707 5.656854 5.656854 
C 7.15707 4.156639 8 2.121625 8 0 
C 8 -2.121625 7.15707 -4.156639 5.656854 -5.656854 
C 4.156639 -7.15707 2.121625 -8 0 -8 
C -2.121625 -8 -4.156639 -7.15707 -5.656854 -5.656854 
C -7.15707 -4.156639 -8 -2.121625 -8 0 
C -8 2.121625 -7.15707 4.156639 -5.656854 5.656854 
C -4.156639 7.15707 -2.121625 8 0 8 
z
" style="stroke: #ff00ff"/>
    </defs>
    <g clip-path="url(#p873aca64f6)">
     <use xlink:href="#ma51dfd2f54" x="161.948182" y="558.834682" style="fill: #ff00ff; stroke: #ff00ff"/>
     <use xlink:href="#ma51dfd2f54" x="237.98622" y="505.692982" style="fill: #ff00ff; stroke: #ff00ff"/>
     <use xlink:href="#ma51dfd2f54" x="314.024258" y="452.551282" style="fill: #ff00ff; stroke: #ff00ff"/>
     <use xlink:href="#ma51dfd2f54" x="390.062296" y="399.409582" style="fill: #ff00ff; stroke: #ff00ff"/>
     <use xlink:href="#ma51dfd2f54" x="466.100334" y="346.267882" style="fill: #ff00ff; stroke: #ff00ff"/>
     <use xlink:href="#ma51dfd2f54" x="541.447117" y="293.126182" style="fill: #ff00ff; stroke: #ff00ff"/>
     <use xlink:href="#ma51dfd2f54" x="617.485155" y="239.984482" style="fill: #ff00ff; stroke: #ff00ff"/>
     <use xlink:href="#ma51dfd2f54" x="693.523193" y="186.842782" style="fill: #ff00ff; stroke: #ff00ff"/>
     <use xlink:href="#ma51dfd2f54" x="769.561231" y="133.701082" style="fill: #ff00ff; stroke: #ff00ff"/>
     <use xlink:href="#ma51dfd2f54" x="845.599269" y="80.559382" style="fill: #ff00ff; stroke: #ff00ff"/>
    </g>
   </g>
   <g id="line2d_14">
    <path d="M 161.948182 558.834682 
L 164.021946 553.037405 
L 164.713201 550.621874 
L 169.551986 537.094895 
L 170.243241 535.645576 
L 173.699515 525.983449 
L 174.39077 524.53413 
L 175.77328 520.669279 
L 176.464535 519.21996 
L 177.847044 515.355109 
L 178.538299 513.90579 
L 179.920809 510.040939 
L 180.612064 508.59162 
L 181.303319 506.659195 
L 181.994574 505.209875 
L 182.685829 503.27745 
L 183.377083 501.828131 
L 184.068338 499.895705 
L 185.450848 496.997067 
L 186.142103 495.064642 
L 186.833358 493.615323 
L 187.524613 491.682897 
L 188.907123 488.784259 
L 189.598377 486.851834 
L 191.672142 482.503876 
L 192.363397 480.571451 
L 196.510926 471.875536 
L 197.202181 469.943111 
L 204.805985 454.000601 
L 205.49724 453.034388 
L 209.644769 444.338474 
L 210.336024 443.372261 
L 212.409789 439.024304 
L 213.101044 438.058091 
L 214.483554 435.159453 
L 215.174808 434.19324 
L 216.557318 431.294602 
L 217.248573 430.328389 
L 218.631083 427.429751 
L 219.322338 426.463538 
L 220.704848 423.5649 
L 221.396102 422.598687 
L 222.087357 421.149368 
L 222.778612 420.183155 
L 223.469867 418.733836 
L 224.161122 417.767624 
L 224.852377 416.318305 
L 225.543632 415.352092 
L 226.234887 413.902773 
L 226.926142 412.93656 
L 227.617396 411.487241 
L 228.308651 410.521028 
L 228.999906 409.071709 
L 230.382416 407.139284 
L 231.073671 405.689965 
L 231.764926 404.723752 
L 232.456181 403.274433 
L 233.838691 401.342007 
L 234.529945 399.892688 
L 235.912455 397.960263 
L 236.60371 396.510944 
L 238.677475 393.612305 
L 239.36873 392.162986 
L 241.442494 389.264348 
L 242.133749 387.815029 
L 245.590024 382.983965 
L 246.281279 381.534646 
L 251.120063 374.771157 
L 251.811318 373.321838 
L 262.871396 357.862435 
L 263.562651 357.379328 
L 269.09269 349.649626 
L 269.783945 349.16652 
L 273.240219 344.335456 
L 273.931474 343.85235 
L 276.696494 339.987499 
L 277.387749 339.504393 
L 279.461513 336.605755 
L 280.152768 336.122648 
L 282.226533 333.22401 
L 282.917788 332.740904 
L 284.300298 330.808478 
L 284.991552 330.325372 
L 286.374062 328.392946 
L 287.065317 327.90984 
L 288.447827 325.977415 
L 289.139082 325.494308 
L 290.521592 323.561883 
L 291.212846 323.078776 
L 291.904101 322.112564 
L 292.595356 321.629457 
L 293.977866 319.697032 
L 294.669121 319.213925 
L 295.360376 318.247713 
L 296.051631 317.764606 
L 297.434141 315.832181 
L 298.125395 315.349075 
L 298.81665 314.382862 
L 299.507905 313.899755 
L 300.19916 312.933543 
L 300.890415 312.450436 
L 302.272925 310.518011 
L 302.96418 310.034905 
L 303.655435 309.068692 
L 304.346689 308.585585 
L 305.037944 307.619373 
L 305.729199 307.136266 
L 306.420454 306.170054 
L 307.111709 305.686947 
L 307.802964 304.720735 
L 308.494219 304.237628 
L 309.185474 303.271415 
L 310.567983 302.305203 
L 311.259238 301.33899 
L 311.950493 300.855884 
L 312.641748 299.889671 
L 313.333003 299.406565 
L 314.024258 298.440352 
L 314.715513 297.957245 
L 315.406768 296.991033 
L 316.789277 296.02482 
L 317.480532 295.058607 
L 318.171787 294.575501 
L 318.863042 293.609288 
L 319.554297 293.126182 
L 320.245552 292.159969 
L 321.628062 291.193756 
L 322.319317 290.227544 
L 323.701826 289.261331 
L 324.393081 288.295118 
L 325.084336 287.812012 
L 325.775591 286.845799 
L 327.158101 285.879586 
L 327.849356 284.913374 
L 329.231866 283.947161 
L 329.92312 282.980948 
L 331.30563 282.014735 
L 331.996885 281.048523 
L 334.07065 279.599204 
L 334.761905 278.632991 
L 336.144414 277.666778 
L 336.835669 276.700565 
L 338.909434 275.251246 
L 339.600689 274.285034 
L 340.983199 273.318821 
L 341.674454 272.352608 
L 343.748218 270.903289 
L 344.439473 269.937076 
L 347.204493 268.004651 
L 347.895748 267.038438 
L 349.969512 265.589119 
L 350.660767 264.622906 
L 354.117042 262.207375 
L 354.808296 261.241162 
L 357.573316 259.308736 
L 358.264571 258.342524 
L 362.4121 255.443885 
L 363.103355 254.477673 
L 367.250885 251.579035 
L 367.942139 250.612822 
L 374.163433 246.264865 
L 374.854688 245.298652 
L 384.532257 238.535163 
L 385.223512 237.56895 
L 405.269904 223.558865 
L 405.961158 223.558865 
L 416.329982 216.31227 
L 417.021237 216.31227 
L 423.242531 211.964313 
L 423.933786 211.964313 
L 429.463825 208.099462 
L 430.15508 208.099462 
L 433.611354 205.68393 
L 434.302609 205.68393 
L 437.758883 203.268398 
L 438.450138 203.268398 
L 441.215158 201.335973 
L 441.906413 201.335973 
L 444.671432 199.403547 
L 445.362687 199.403547 
L 448.127707 197.471122 
L 448.818962 197.471122 
L 450.892726 196.021803 
L 451.583981 196.021803 
L 453.657746 194.572484 
L 454.349001 194.572484 
L 457.11402 192.640058 
L 457.805275 192.640058 
L 459.87904 191.190739 
L 460.570295 191.190739 
L 461.952805 190.224526 
L 462.64406 190.224526 
L 464.717824 188.775207 
L 465.409079 188.775207 
L 467.482844 187.325888 
L 468.174099 187.325888 
L 469.556608 186.359675 
L 470.247863 186.359675 
L 472.321628 184.910356 
L 473.012883 184.910356 
L 474.395393 183.944144 
L 475.086648 183.944144 
L 476.469157 182.977931 
L 477.160412 182.977931 
L 479.234177 181.528612 
L 479.925432 181.528612 
L 481.307942 180.562399 
L 481.999196 180.562399 
L 483.381706 179.596186 
L 484.072961 179.596186 
L 485.455471 178.629974 
L 486.146726 178.629974 
L 487.529236 177.663761 
L 488.22049 177.663761 
L 489.603 176.697548 
L 490.294255 176.697548 
L 491.676765 175.731335 
L 492.36802 175.731335 
L 493.75053 174.765123 
L 494.441785 174.765123 
L 495.824294 173.79891 
L 496.515549 173.79891 
L 497.898059 172.832697 
L 498.589314 172.832697 
L 499.280569 172.349591 
L 499.971824 172.349591 
L 501.354333 171.383378 
L 502.045588 171.383378 
L 503.428098 170.417165 
L 504.119353 170.417165 
L 505.501863 169.450953 
L 506.193118 169.450953 
L 506.884373 168.967846 
L 507.575627 168.967846 
L 508.958137 168.001634 
L 509.649392 168.001634 
L 511.031902 167.035421 
L 511.723157 167.035421 
L 512.414412 166.552315 
L 513.105667 166.552315 
L 514.488176 165.586102 
L 515.179431 165.586102 
L 515.870686 165.102995 
L 516.561941 165.102995 
L 517.944451 164.136783 
L 518.635706 164.136783 
L 519.326961 163.653676 
L 520.018215 163.653676 
L 521.400725 162.687464 
L 522.09198 162.687464 
L 522.783235 162.204357 
L 523.47449 162.204357 
L 524.857 161.238145 
L 525.548255 161.238145 
L 526.23951 160.755038 
L 526.930764 160.755038 
L 527.622019 160.271932 
L 528.313274 160.271932 
L 529.695784 159.305719 
L 530.387039 159.305719 
L 531.078294 158.822613 
L 531.769549 158.822613 
L 532.460804 158.339506 
L 533.152058 158.339506 
L 534.534568 157.373294 
L 535.225823 157.373294 
L 535.917078 156.890187 
L 536.608333 156.890187 
L 537.299588 156.407081 
L 537.990843 156.407081 
L 539.373352 155.440868 
L 540.064607 155.440868 
L 540.755862 154.957762 
L 541.447117 154.957762 
L 542.138372 154.474655 
L 542.829627 154.474655 
L 543.520882 153.991549 
L 544.212137 153.991549 
L 545.594646 153.025336 
L 546.285901 153.025336 
L 546.977156 152.54223 
L 547.668411 152.54223 
L 548.359666 152.059124 
L 549.050921 152.059124 
L 549.742176 151.576017 
L 550.433431 151.576017 
L 551.124686 151.092911 
L 551.81594 151.092911 
L 552.507195 150.609805 
L 553.19845 150.609805 
L 554.58096 149.643592 
L 555.272215 149.643592 
L 555.96347 149.160485 
L 556.654725 149.160485 
L 557.34598 148.677379 
L 558.037235 148.677379 
L 558.728489 148.194273 
L 559.419744 148.194273 
L 560.110999 147.711166 
L 560.802254 147.711166 
L 561.493509 147.22806 
L 562.184764 147.22806 
L 562.876019 146.744954 
L 563.567274 146.744954 
L 564.258529 146.261847 
L 564.949783 146.261847 
L 565.641038 145.778741 
L 566.332293 145.778741 
L 567.023548 145.295635 
L 567.714803 145.295635 
L 568.406058 144.812528 
L 569.097313 144.812528 
L 569.788568 144.329422 
L 570.479823 144.329422 
L 571.171077 143.846315 
L 571.862332 143.846315 
L 572.553587 143.363209 
L 573.244842 143.363209 
L 573.936097 142.880103 
L 574.627352 142.880103 
L 575.318607 142.396996 
L 576.009862 142.396996 
L 576.701117 141.91389 
L 577.392371 141.91389 
L 578.083626 141.430784 
L 578.774881 141.430784 
L 579.466136 140.947677 
L 580.157391 140.947677 
L 580.848646 140.464571 
L 581.539901 140.464571 
L 582.231156 139.981465 
L 582.922411 139.981465 
L 583.613665 139.498358 
L 584.30492 139.498358 
L 584.996175 139.015252 
L 585.68743 139.015252 
L 586.378685 138.532145 
L 587.06994 138.532145 
L 587.761195 138.049039 
L 588.45245 138.049039 
L 589.143705 137.565933 
L 589.83496 137.565933 
L 590.526214 137.082826 
L 591.908724 137.082826 
L 592.599979 136.59972 
L 593.291234 136.59972 
L 593.982489 136.116614 
L 594.673744 136.116614 
L 595.364999 135.633507 
L 596.056254 135.633507 
L 596.747508 135.150401 
L 597.438763 135.150401 
L 598.130018 134.667295 
L 598.821273 134.667295 
L 599.512528 134.184188 
L 600.203783 134.184188 
L 600.895038 133.701082 
L 602.277548 133.701082 
L 602.968802 133.217975 
L 603.660057 133.217975 
L 604.351312 132.734869 
L 605.042567 132.734869 
L 605.733822 132.251763 
L 606.425077 132.251763 
L 607.116332 131.768656 
L 607.807587 131.768656 
L 608.498842 131.28555 
L 609.881351 131.28555 
L 610.572606 130.802444 
L 611.263861 130.802444 
L 611.955116 130.319337 
L 612.646371 130.319337 
L 613.337626 129.836231 
L 614.720136 129.836231 
L 615.41139 129.353125 
L 616.102645 129.353125 
L 616.7939 128.870018 
L 617.485155 128.870018 
L 618.17641 128.386912 
L 618.867665 128.386912 
L 619.55892 127.903805 
L 620.94143 127.903805 
L 621.632685 127.420699 
L 622.323939 127.420699 
L 623.015194 126.937593 
L 623.706449 126.937593 
L 624.397704 126.454486 
L 625.780214 126.454486 
L 626.471469 125.97138 
L 627.162724 125.97138 
L 627.853979 125.488274 
L 628.545233 125.488274 
L 629.236488 125.005167 
L 630.618998 125.005167 
L 631.310253 124.522061 
L 632.001508 124.522061 
L 632.692763 124.038955 
L 634.075273 124.038955 
L 634.766527 123.555848 
L 635.457782 123.555848 
L 636.149037 123.072742 
L 636.840292 123.072742 
L 637.531547 122.589635 
L 638.914057 122.589635 
L 639.605312 122.106529 
L 640.296567 122.106529 
L 640.987821 121.623423 
L 642.370331 121.623423 
L 643.061586 121.140316 
L 643.752841 121.140316 
L 644.444096 120.65721 
L 645.826606 120.65721 
L 646.517861 120.174104 
L 647.209115 120.174104 
L 647.90037 119.690997 
L 649.28288 119.690997 
L 649.974135 119.207891 
L 650.66539 119.207891 
L 651.356645 118.724785 
L 652.739155 118.724785 
L 653.43041 118.241678 
L 654.121664 118.241678 
L 654.812919 117.758572 
L 656.195429 117.758572 
L 656.886684 117.275465 
L 658.269194 117.275465 
L 658.960449 116.792359 
L 659.651704 116.792359 
L 660.342958 116.309253 
L 661.725468 116.309253 
L 662.416723 115.826146 
L 663.107978 115.826146 
L 663.799233 115.34304 
L 665.181743 115.34304 
L 665.872998 114.859934 
L 667.255507 114.859934 
L 667.946762 114.376827 
L 668.638017 114.376827 
L 669.329272 113.893721 
L 670.711782 113.893721 
L 671.403037 113.410615 
L 672.785546 113.410615 
L 673.476801 112.927508 
L 674.168056 112.927508 
L 674.859311 112.444402 
L 676.241821 112.444402 
L 676.933076 111.961295 
L 678.315586 111.961295 
L 679.00684 111.478189 
L 680.38935 111.478189 
L 681.080605 110.995083 
L 681.77186 110.995083 
L 682.463115 110.511976 
L 683.845625 110.511976 
L 684.53688 110.02887 
L 685.919389 110.02887 
L 686.610644 109.545764 
L 687.993154 109.545764 
L 688.684409 109.062657 
L 689.375664 109.062657 
L 690.066919 108.579551 
L 691.449429 108.579551 
L 692.140683 108.096445 
L 693.523193 108.096445 
L 694.214448 107.613338 
L 695.596958 107.613338 
L 696.288213 107.130232 
L 697.670723 107.130232 
L 698.361977 106.647125 
L 699.744487 106.647125 
L 700.435742 106.164019 
L 701.818252 106.164019 
L 702.509507 105.680913 
L 703.892017 105.680913 
L 704.583271 105.197806 
L 705.274526 105.197806 
L 705.965781 104.7147 
L 707.348291 104.7147 
L 708.039546 104.231594 
L 709.422056 104.231594 
L 710.113311 103.748487 
L 711.49582 103.748487 
L 712.187075 103.265381 
L 713.569585 103.265381 
L 714.26084 102.782275 
L 715.64335 102.782275 
L 716.334605 102.299168 
L 717.717114 102.299168 
L 718.408369 101.816062 
L 719.790879 101.816062 
L 720.482134 101.332955 
L 721.864644 101.332955 
L 722.555899 100.849849 
L 724.629663 100.849849 
L 725.320918 100.366743 
L 726.703428 100.366743 
L 727.394683 99.883636 
L 728.777193 99.883636 
L 729.468448 99.40053 
L 730.850957 99.40053 
L 731.542212 98.917424 
L 732.924722 98.917424 
L 733.615977 98.434317 
L 734.998487 98.434317 
L 735.689742 97.951211 
L 737.072251 97.951211 
L 737.763506 97.468105 
L 739.837271 97.468105 
L 740.528526 96.984998 
L 741.911036 96.984998 
L 742.60229 96.501892 
L 743.9848 96.501892 
L 744.676055 96.018785 
L 746.058565 96.018785 
L 746.74982 95.535679 
L 748.823584 95.535679 
L 749.514839 95.052573 
L 750.897349 95.052573 
L 751.588604 94.569466 
L 752.971114 94.569466 
L 753.662369 94.08636 
L 755.044879 94.08636 
L 755.736133 93.603254 
L 757.809898 93.603254 
L 758.501153 93.120147 
L 759.883663 93.120147 
L 760.574918 92.637041 
L 762.648682 92.637041 
L 763.339937 92.153935 
L 764.722447 92.153935 
L 765.413702 91.670828 
L 766.796212 91.670828 
L 767.487467 91.187722 
L 769.561231 91.187722 
L 770.252486 90.704615 
L 771.634996 90.704615 
L 772.326251 90.221509 
L 774.400015 90.221509 
L 775.09127 89.738403 
L 776.47378 89.738403 
L 777.165035 89.255296 
L 779.2388 89.255296 
L 779.930055 88.77219 
L 781.312564 88.77219 
L 782.003819 88.289084 
L 784.077584 88.289084 
L 784.768839 87.805977 
L 786.151349 87.805977 
L 786.842604 87.322871 
L 788.916368 87.322871 
L 789.607623 86.839765 
L 791.681388 86.839765 
L 792.372643 86.356658 
L 793.755152 86.356658 
L 794.446407 85.873552 
L 796.520172 85.873552 
L 797.211427 85.390445 
L 799.285192 85.390445 
L 799.976446 84.907339 
L 801.358956 84.907339 
L 802.050211 84.424233 
L 804.123976 84.424233 
L 804.815231 83.941126 
L 806.888995 83.941126 
L 807.58025 83.45802 
L 809.654015 83.45802 
L 810.34527 82.974914 
L 812.419034 82.974914 
L 813.110289 82.491807 
L 814.492799 82.491807 
L 815.184054 82.008701 
L 817.257819 82.008701 
L 817.949074 81.525595 
L 820.022838 81.525595 
L 820.714093 81.042488 
L 822.787858 81.042488 
L 823.479113 80.559382 
L 825.552877 80.559382 
L 826.244132 80.076275 
L 828.317897 80.076275 
L 829.009152 79.593169 
L 831.082917 79.593169 
L 831.774171 79.110063 
L 833.847936 79.110063 
L 834.539191 78.626956 
L 836.612956 78.626956 
L 837.304211 78.14385 
L 839.377975 78.14385 
L 840.06923 77.660744 
L 842.142995 77.660744 
L 842.83425 77.177637 
L 844.908014 77.177637 
L 845.599269 76.694531 
L 847.673034 76.694531 
L 848.364289 76.211425 
L 850.438054 76.211425 
L 851.129308 75.728318 
L 852.511818 75.728318 
L 852.511818 75.728318 
" clip-path="url(#p873aca64f6)" style="fill: none; stroke: #0000ff; stroke-width: 1.5; stroke-linecap: square"/>
    <defs>
     <path id="m64d0fd1b72" d="M -2.666667 8 
L 2.666667 8 
L 2.666667 2.666667 
L 8 2.666667 
L 8 -2.666667 
L 2.666667 -2.666667 
L 2.666667 -8 
L -2.666667 -8 
L -2.666667 -2.666667 
L -8 -2.666667 
L -8 2.666667 
L -2.666667 2.666667 
z
" style="stroke: #0000ff; stroke-linejoin: miter"/>
    </defs>
    <g clip-path="url(#p873aca64f6)">
     <use xlink:href="#m64d0fd1b72" x="168.169476" y="540.959746" style="fill: #0000ff; stroke: #0000ff; stroke-linejoin: miter"/>
     <use xlink:href="#m64d0fd1b72" x="204.11473" y="455.44992" style="fill: #0000ff; stroke: #0000ff; stroke-linejoin: miter"/>
     <use xlink:href="#m64d0fd1b72" x="250.428808" y="375.73737" style="fill: #0000ff; stroke: #0000ff; stroke-linejoin: miter"/>
     <use xlink:href="#m64d0fd1b72" x="307.802964" y="304.720735" style="fill: #0000ff; stroke: #0000ff; stroke-linejoin: miter"/>
     <use xlink:href="#m64d0fd1b72" x="376.928453" y="243.849333" style="fill: #0000ff; stroke: #0000ff; stroke-linejoin: miter"/>
     <use xlink:href="#m64d0fd1b72" x="453.657746" y="194.572484" style="fill: #0000ff; stroke: #0000ff; stroke-linejoin: miter"/>
     <use xlink:href="#m64d0fd1b72" x="534.534568" y="157.373294" style="fill: #0000ff; stroke: #0000ff; stroke-linejoin: miter"/>
     <use xlink:href="#m64d0fd1b72" x="618.17641" y="128.386912" style="fill: #0000ff; stroke: #0000ff; stroke-linejoin: miter"/>
     <use xlink:href="#m64d0fd1b72" x="703.892017" y="105.680913" style="fill: #0000ff; stroke: #0000ff; stroke-linejoin: miter"/>
     <use xlink:href="#m64d0fd1b72" x="790.298878" y="86.839765" style="fill: #0000ff; stroke: #0000ff; stroke-linejoin: miter"/>
    </g>
   </g>
   <g id="line2d_15">
    <path d="M 161.948182 558.834682 
L 506.884373 317.764606 
L 507.575627 316.798394 
L 852.511818 75.728318 
L 852.511818 75.728318 
" clip-path="url(#p873aca64f6)" style="fill: none; stroke: #ffa500; stroke-width: 1.5; stroke-linecap: square"/>
    <defs>
     <path id="mc3261c8bde" d="M 0 -8 
L -1.796112 -2.472136 
L -7.608452 -2.472136 
L -2.90617 0.944272 
L -4.702282 6.472136 
L -0 3.055728 
L 4.702282 6.472136 
L 2.90617 0.944272 
L 7.608452 -2.472136 
L 1.796112 -2.472136 
z
" style="stroke: #ffa500; stroke-linejoin: bevel"/>
    </defs>
    <g clip-path="url(#p873aca64f6)">
     <use xlink:href="#mc3261c8bde" x="192.363397" y="537.578002" style="fill: #ffa500; stroke: #ffa500; stroke-linejoin: bevel"/>
     <use xlink:href="#mc3261c8bde" x="268.401435" y="484.436302" style="fill: #ffa500; stroke: #ffa500; stroke-linejoin: bevel"/>
     <use xlink:href="#mc3261c8bde" x="344.439473" y="431.294602" style="fill: #ffa500; stroke: #ffa500; stroke-linejoin: bevel"/>
     <use xlink:href="#mc3261c8bde" x="420.477511" y="378.152902" style="fill: #ffa500; stroke: #ffa500; stroke-linejoin: bevel"/>
     <use xlink:href="#mc3261c8bde" x="496.515549" y="325.011202" style="fill: #ffa500; stroke: #ffa500; stroke-linejoin: bevel"/>
     <use xlink:href="#mc3261c8bde" x="571.862332" y="271.869502" style="fill: #ffa500; stroke: #ffa500; stroke-linejoin: bevel"/>
     <use xlink:href="#mc3261c8bde" x="647.90037" y="218.727802" style="fill: #ffa500; stroke: #ffa500; stroke-linejoin: bevel"/>
     <use xlink:href="#mc3261c8bde" x="723.938408" y="165.586102" style="fill: #ffa500; stroke: #ffa500; stroke-linejoin: bevel"/>
     <use xlink:href="#mc3261c8bde" x="799.976446" y="112.444402" style="fill: #ffa500; stroke: #ffa500; stroke-linejoin: bevel"/>
    </g>
   </g>
   <g id="line2d_16">
    <path d="M 161.948182 558.834682 
L 506.884373 317.764606 
L 507.575627 316.798394 
L 852.511818 75.728318 
L 852.511818 75.728318 
" clip-path="url(#p873aca64f6)" style="fill: none; stroke: #008000; stroke-width: 1.5; stroke-linecap: square"/>
    <defs>
     <path id="me453e93daa" d="M -4 8 
L 0 4 
L 4 8 
L 8 4 
L 4 0 
L 8 -4 
L 4 -8 
L 0 -4 
L -4 -8 
L -8 -4 
L -4 0 
L -8 4 
z
" style="stroke: #008000; stroke-linejoin: miter"/>
    </defs>
    <g clip-path="url(#p873aca64f6)">
     <use xlink:href="#me453e93daa" x="207.571005" y="526.949662" style="fill: #008000; stroke: #008000; stroke-linejoin: miter"/>
     <use xlink:href="#me453e93daa" x="283.609043" y="473.807962" style="fill: #008000; stroke: #008000; stroke-linejoin: miter"/>
     <use xlink:href="#me453e93daa" x="359.647081" y="420.666262" style="fill: #008000; stroke: #008000; stroke-linejoin: miter"/>
     <use xlink:href="#me453e93daa" x="435.685119" y="367.524562" style="fill: #008000; stroke: #008000; stroke-linejoin: miter"/>
     <use xlink:href="#me453e93daa" x="511.031902" y="314.382862" style="fill: #008000; stroke: #008000; stroke-linejoin: miter"/>
     <use xlink:href="#me453e93daa" x="587.06994" y="261.241162" style="fill: #008000; stroke: #008000; stroke-linejoin: miter"/>
     <use xlink:href="#me453e93daa" x="663.107978" y="208.099462" style="fill: #008000; stroke: #008000; stroke-linejoin: miter"/>
     <use xlink:href="#me453e93daa" x="739.146016" y="154.957762" style="fill: #008000; stroke: #008000; stroke-linejoin: miter"/>
     <use xlink:href="#me453e93daa" x="815.184054" y="101.816062" style="fill: #008000; stroke: #008000; stroke-linejoin: miter"/>
    </g>
   </g>
   <g id="line2d_17">
    <path d="M 161.948182 558.834682 
L 506.884373 317.764606 
L 507.575627 316.798394 
L 852.511818 75.728318 
L 852.511818 75.728318 
" clip-path="url(#p873aca64f6)" style="fill: none; stroke: #ff0000; stroke-width: 1.5; stroke-linecap: square"/>
    <defs>
     <path id="md1679a76b6" d="M -8 8 
L 8 8 
L 8 -8 
L -8 -8 
z
" style="stroke: #ff0000; stroke-linejoin: miter"/>
    </defs>
    <g clip-path="url(#p873aca64f6)">
     <use xlink:href="#md1679a76b6" x="222.778612" y="516.321322" style="fill: #ff0000; stroke: #ff0000; stroke-linejoin: miter"/>
     <use xlink:href="#md1679a76b6" x="298.81665" y="463.179622" style="fill: #ff0000; stroke: #ff0000; stroke-linejoin: miter"/>
     <use xlink:href="#md1679a76b6" x="374.854688" y="410.037922" style="fill: #ff0000; stroke: #ff0000; stroke-linejoin: miter"/>
     <use xlink:href="#md1679a76b6" x="450.892726" y="356.896222" style="fill: #ff0000; stroke: #ff0000; stroke-linejoin: miter"/>
     <use xlink:href="#md1679a76b6" x="526.23951" y="303.754522" style="fill: #ff0000; stroke: #ff0000; stroke-linejoin: miter"/>
     <use xlink:href="#md1679a76b6" x="602.277548" y="250.612822" style="fill: #ff0000; stroke: #ff0000; stroke-linejoin: miter"/>
     <use xlink:href="#md1679a76b6" x="678.315586" y="197.471122" style="fill: #ff0000; stroke: #ff0000; stroke-linejoin: miter"/>
     <use xlink:href="#md1679a76b6" x="754.353624" y="144.329422" style="fill: #ff0000; stroke: #ff0000; stroke-linejoin: miter"/>
     <use xlink:href="#md1679a76b6" x="830.391662" y="91.187722" style="fill: #ff0000; stroke: #ff0000; stroke-linejoin: miter"/>
    </g>
   </g>
   <g id="line2d_18">
    <path d="M 161.948182 558.834682 
L 163.330692 556.902256 
L 164.021946 556.41915 
L 166.786966 552.554299 
L 167.478221 552.071193 
L 170.934495 547.240129 
L 171.62575 546.757023 
L 174.39077 542.892172 
L 175.082025 542.409065 
L 177.847044 538.544215 
L 178.538299 538.061108 
L 181.303319 534.196257 
L 181.994574 533.713151 
L 184.759593 529.8483 
L 185.450848 529.365194 
L 188.215868 525.500343 
L 188.907123 525.017236 
L 192.363397 520.186173 
L 193.054652 519.703066 
L 195.819671 515.838215 
L 196.510926 515.355109 
L 199.275946 511.490258 
L 199.967201 511.007152 
L 202.040966 508.108514 
L 202.73222 507.625407 
L 205.49724 503.760556 
L 206.188495 503.27745 
L 208.953514 499.412599 
L 209.644769 498.929493 
L 212.409789 495.064642 
L 213.101044 494.581535 
L 215.174808 491.682897 
L 215.866063 491.199791 
L 218.631083 487.33494 
L 219.322338 486.851834 
L 222.087357 482.986983 
L 222.778612 482.503876 
L 224.852377 479.605238 
L 225.543632 479.122132 
L 227.617396 476.223494 
L 228.308651 475.740387 
L 231.073671 471.875536 
L 231.764926 471.39243 
L 233.838691 468.493792 
L 234.529945 468.010685 
L 236.60371 465.112047 
L 237.294965 464.628941 
L 239.36873 461.730303 
L 240.059985 461.247196 
L 242.133749 458.348558 
L 242.825004 457.865452 
L 244.898769 454.966814 
L 245.590024 454.483707 
L 247.663788 451.585069 
L 248.355043 451.101963 
L 250.428808 448.203325 
L 251.120063 447.720218 
L 253.193827 444.82158 
L 253.885082 444.338474 
L 255.958847 441.439835 
L 256.650102 440.956729 
L 258.723867 438.058091 
L 259.415121 437.574985 
L 260.797631 435.642559 
L 261.488886 435.159453 
L 263.562651 432.260815 
L 264.253906 431.777708 
L 265.636416 429.845283 
L 266.32767 429.362176 
L 268.401435 426.463538 
L 269.09269 425.980432 
L 270.4752 424.048006 
L 271.166455 423.5649 
L 273.240219 420.666262 
L 273.931474 420.183155 
L 275.313984 418.25073 
L 276.005239 417.767624 
L 277.387749 415.835198 
L 278.079004 415.352092 
L 280.152768 412.453454 
L 280.844023 411.970347 
L 282.226533 410.037922 
L 282.917788 409.554815 
L 284.300298 407.62239 
L 284.991552 407.139284 
L 286.374062 405.206858 
L 287.065317 404.723752 
L 288.447827 402.791326 
L 289.139082 402.30822 
L 290.521592 400.375795 
L 291.212846 399.892688 
L 292.595356 397.960263 
L 293.286611 397.477156 
L 294.669121 395.544731 
L 295.360376 395.061625 
L 296.742886 393.129199 
L 297.434141 392.646093 
L 298.81665 390.713667 
L 299.507905 390.230561 
L 300.890415 388.298135 
L 301.58167 387.815029 
L 302.272925 386.848816 
L 302.96418 386.36571 
L 304.346689 384.433285 
L 305.037944 383.950178 
L 306.420454 382.017753 
L 307.111709 381.534646 
L 308.494219 379.602221 
L 309.185474 379.119115 
L 309.876729 378.152902 
L 310.567983 377.669795 
L 311.950493 375.73737 
L 312.641748 375.254264 
L 314.024258 373.321838 
L 314.715513 372.838732 
L 315.406768 371.872519 
L 316.098023 371.389413 
L 317.480532 369.456987 
L 318.171787 368.973881 
L 318.863042 368.007668 
L 319.554297 367.524562 
L 320.936807 365.592136 
L 321.628062 365.10903 
L 322.319317 364.142817 
L 323.010571 363.659711 
L 324.393081 361.727285 
L 325.084336 361.244179 
L 325.775591 360.277966 
L 326.466846 359.79486 
L 327.158101 358.828647 
L 327.849356 358.345541 
L 329.231866 356.413115 
L 329.92312 355.930009 
L 330.614375 354.963796 
L 331.30563 354.48069 
L 331.996885 353.514477 
L 332.68814 353.031371 
L 334.07065 351.098945 
L 334.761905 350.615839 
L 335.45316 349.649626 
L 336.144414 349.16652 
L 336.835669 348.200307 
L 337.526924 347.717201 
L 338.909434 345.784775 
L 339.600689 345.301669 
L 340.291944 344.335456 
L 340.983199 343.85235 
L 341.674454 342.886137 
L 342.365708 342.403031 
L 343.056963 341.436818 
L 343.748218 340.953712 
L 344.439473 339.987499 
L 345.130728 339.504393 
L 345.821983 338.53818 
L 346.513238 338.055074 
L 347.895748 336.122648 
L 348.587002 335.639542 
L 349.278257 334.673329 
L 349.969512 334.190223 
L 350.660767 333.22401 
L 351.352022 332.740904 
L 352.043277 331.774691 
L 352.734532 331.291585 
L 353.425787 330.325372 
L 354.117042 329.842265 
L 354.808296 328.876053 
L 355.499551 328.392946 
L 356.190806 327.426734 
L 356.882061 326.943627 
L 357.573316 325.977415 
L 358.264571 325.494308 
L 358.955826 324.528095 
L 359.647081 324.044989 
L 360.338336 323.078776 
L 361.02959 322.59567 
L 361.720845 321.629457 
L 362.4121 321.146351 
L 363.103355 320.180138 
L 363.79461 319.697032 
L 364.485865 318.730819 
L 365.868375 317.764606 
L 366.55963 316.798394 
L 367.250885 316.315287 
L 367.942139 315.349075 
L 368.633394 314.865968 
L 369.324649 313.899755 
L 370.015904 313.416649 
L 370.707159 312.450436 
L 371.398414 311.96733 
L 372.089669 311.001117 
L 372.780924 310.518011 
L 373.472179 309.551798 
L 374.854688 308.585585 
L 375.545943 307.619373 
L 376.237198 307.136266 
L 376.928453 306.170054 
L 377.619708 305.686947 
L 378.310963 304.720735 
L 379.002218 304.237628 
L 379.693473 303.271415 
L 381.075982 302.305203 
L 381.767237 301.33899 
L 382.458492 300.855884 
L 383.149747 299.889671 
L 384.532257 298.923458 
L 385.223512 297.957245 
L 385.914767 297.474139 
L 386.606021 296.507926 
L 387.297276 296.02482 
L 387.988531 295.058607 
L 389.371041 294.092395 
L 390.062296 293.126182 
L 390.753551 292.643075 
L 391.444806 291.676863 
L 392.827315 290.71065 
L 393.51857 289.744437 
L 394.90108 288.778225 
L 395.592335 287.812012 
L 396.28359 287.328905 
L 396.974845 286.362693 
L 398.357355 285.39648 
L 399.04861 284.430267 
L 400.431119 283.464055 
L 401.122374 282.497842 
L 401.813629 282.014735 
L 402.504884 281.048523 
L 403.887394 280.08231 
L 404.578649 279.116097 
L 405.961158 278.149885 
L 406.652413 277.183672 
L 408.034923 276.217459 
L 408.726178 275.251246 
L 410.108688 274.285034 
L 410.799943 273.318821 
L 412.182452 272.352608 
L 412.873707 271.386395 
L 414.256217 270.420183 
L 414.947472 269.45397 
L 416.329982 268.487757 
L 417.021237 267.521545 
L 419.095001 266.072225 
L 419.786256 265.106013 
L 421.168766 264.1398 
L 421.860021 263.173587 
L 423.242531 262.207375 
L 423.933786 261.241162 
L 426.00755 259.791843 
L 426.698805 258.82563 
L 428.77257 257.376311 
L 429.463825 256.410098 
L 430.846335 255.443885 
L 431.537589 254.477673 
L 433.611354 253.028354 
L 434.302609 252.062141 
L 436.376374 250.612822 
L 437.067629 249.646609 
L 439.832648 247.714184 
L 440.523903 246.747971 
L 442.597668 245.298652 
L 443.288923 244.332439 
L 446.053942 242.400014 
L 446.745197 241.433801 
L 449.510217 239.501375 
L 450.201471 238.535163 
L 452.966491 236.602737 
L 453.657746 235.636525 
L 456.422765 233.704099 
L 457.11402 232.737886 
L 460.570295 230.322355 
L 461.26155 229.356142 
L 465.409079 226.457504 
L 466.100334 225.491291 
L 470.939118 222.109546 
L 471.630373 221.143334 
L 477.160412 217.278483 
L 477.851667 216.31227 
L 484.764216 211.481206 
L 485.455471 210.514994 
L 500.663079 199.886654 
L 501.354333 198.920441 
L 509.649392 193.123165 
L 510.340647 193.123165 
L 525.548255 182.494825 
L 526.23951 182.494825 
L 533.843313 177.180655 
L 534.534568 177.180655 
L 540.064607 173.315804 
L 540.755862 173.315804 
L 545.594646 169.934059 
L 546.285901 169.934059 
L 550.433431 167.035421 
L 551.124686 167.035421 
L 554.58096 164.619889 
L 555.272215 164.619889 
L 558.037235 162.687464 
L 558.728489 162.687464 
L 562.184764 160.271932 
L 562.876019 160.271932 
L 565.641038 158.339506 
L 566.332293 158.339506 
L 568.406058 156.890187 
L 569.097313 156.890187 
L 571.862332 154.957762 
L 572.553587 154.957762 
L 574.627352 153.508443 
L 575.318607 153.508443 
L 577.392371 152.059124 
L 578.083626 152.059124 
L 580.157391 150.609805 
L 580.848646 150.609805 
L 582.922411 149.160485 
L 583.613665 149.160485 
L 585.68743 147.711166 
L 586.378685 147.711166 
L 587.761195 146.744954 
L 588.45245 146.744954 
L 590.526214 145.295635 
L 591.217469 145.295635 
L 592.599979 144.329422 
L 593.291234 144.329422 
L 595.364999 142.880103 
L 596.056254 142.880103 
L 597.438763 141.91389 
L 598.130018 141.91389 
L 599.512528 140.947677 
L 600.203783 140.947677 
L 601.586293 139.981465 
L 602.277548 139.981465 
L 603.660057 139.015252 
L 604.351312 139.015252 
L 605.733822 138.049039 
L 606.425077 138.049039 
L 607.807587 137.082826 
L 608.498842 137.082826 
L 609.881351 136.116614 
L 610.572606 136.116614 
L 611.955116 135.150401 
L 612.646371 135.150401 
L 614.028881 134.184188 
L 614.720136 134.184188 
L 615.41139 133.701082 
L 616.102645 133.701082 
L 617.485155 132.734869 
L 618.17641 132.734869 
L 619.55892 131.768656 
L 620.250175 131.768656 
L 620.94143 131.28555 
L 621.632685 131.28555 
L 623.015194 130.319337 
L 623.706449 130.319337 
L 625.088959 129.353125 
L 625.780214 129.353125 
L 626.471469 128.870018 
L 627.162724 128.870018 
L 628.545233 127.903805 
L 629.236488 127.903805 
L 629.927743 127.420699 
L 630.618998 127.420699 
L 631.310253 126.937593 
L 632.001508 126.937593 
L 633.384018 125.97138 
L 634.075273 125.97138 
L 634.766527 125.488274 
L 635.457782 125.488274 
L 636.840292 124.522061 
L 637.531547 124.522061 
L 638.222802 124.038955 
L 638.914057 124.038955 
L 639.605312 123.555848 
L 640.296567 123.555848 
L 640.987821 123.072742 
L 641.679076 123.072742 
L 643.061586 122.106529 
L 643.752841 122.106529 
L 644.444096 121.623423 
L 645.135351 121.623423 
L 645.826606 121.140316 
L 646.517861 121.140316 
L 647.209115 120.65721 
L 647.90037 120.65721 
L 648.591625 120.174104 
L 649.28288 120.174104 
L 650.66539 119.207891 
L 651.356645 119.207891 
L 652.0479 118.724785 
L 652.739155 118.724785 
L 653.43041 118.241678 
L 654.121664 118.241678 
L 654.812919 117.758572 
L 655.504174 117.758572 
L 656.195429 117.275465 
L 656.886684 117.275465 
L 657.577939 116.792359 
L 658.269194 116.792359 
L 658.960449 116.309253 
L 659.651704 116.309253 
L 660.342958 115.826146 
L 661.034213 115.826146 
L 661.725468 115.34304 
L 662.416723 115.34304 
L 663.107978 114.859934 
L 663.799233 114.859934 
L 664.490488 114.376827 
L 665.181743 114.376827 
L 665.872998 113.893721 
L 666.564252 113.893721 
L 667.255507 113.410615 
L 667.946762 113.410615 
L 668.638017 112.927508 
L 669.329272 112.927508 
L 670.020527 112.444402 
L 670.711782 112.444402 
L 671.403037 111.961295 
L 672.094292 111.961295 
L 672.785546 111.478189 
L 673.476801 111.478189 
L 674.168056 110.995083 
L 674.859311 110.995083 
L 675.550566 110.511976 
L 676.933076 110.511976 
L 677.624331 110.02887 
L 678.315586 110.02887 
L 679.00684 109.545764 
L 679.698095 109.545764 
L 680.38935 109.062657 
L 681.080605 109.062657 
L 681.77186 108.579551 
L 682.463115 108.579551 
L 683.15437 108.096445 
L 684.53688 108.096445 
L 685.228134 107.613338 
L 685.919389 107.613338 
L 686.610644 107.130232 
L 687.301899 107.130232 
L 687.993154 106.647125 
L 689.375664 106.647125 
L 690.066919 106.164019 
L 690.758174 106.164019 
L 691.449429 105.680913 
L 692.140683 105.680913 
L 692.831938 105.197806 
L 694.214448 105.197806 
L 694.905703 104.7147 
L 695.596958 104.7147 
L 696.288213 104.231594 
L 696.979468 104.231594 
L 697.670723 103.748487 
L 699.053232 103.748487 
L 699.744487 103.265381 
L 700.435742 103.265381 
L 701.126997 102.782275 
L 702.509507 102.782275 
L 703.200762 102.299168 
L 703.892017 102.299168 
L 704.583271 101.816062 
L 705.965781 101.816062 
L 706.657036 101.332955 
L 707.348291 101.332955 
L 708.039546 100.849849 
L 709.422056 100.849849 
L 710.113311 100.366743 
L 711.49582 100.366743 
L 712.187075 99.883636 
L 712.87833 99.883636 
L 713.569585 99.40053 
L 714.952095 99.40053 
L 715.64335 98.917424 
L 717.025859 98.917424 
L 717.717114 98.434317 
L 719.099624 98.434317 
L 719.790879 97.951211 
L 720.482134 97.951211 
L 721.173389 97.468105 
L 722.555899 97.468105 
L 723.247154 96.984998 
L 724.629663 96.984998 
L 725.320918 96.501892 
L 726.703428 96.501892 
L 727.394683 96.018785 
L 728.777193 96.018785 
L 729.468448 95.535679 
L 730.850957 95.535679 
L 731.542212 95.052573 
L 732.924722 95.052573 
L 733.615977 94.569466 
L 734.998487 94.569466 
L 735.689742 94.08636 
L 737.072251 94.08636 
L 737.763506 93.603254 
L 739.146016 93.603254 
L 739.837271 93.120147 
L 741.219781 93.120147 
L 741.911036 92.637041 
L 743.293545 92.637041 
L 743.9848 92.153935 
L 745.36731 92.153935 
L 746.058565 91.670828 
L 748.13233 91.670828 
L 748.823584 91.187722 
L 750.206094 91.187722 
L 750.897349 90.704615 
L 752.279859 90.704615 
L 752.971114 90.221509 
L 755.044879 90.221509 
L 755.736133 89.738403 
L 757.118643 89.738403 
L 757.809898 89.255296 
L 759.883663 89.255296 
L 760.574918 88.77219 
L 762.648682 88.77219 
L 763.339937 88.289084 
L 764.722447 88.289084 
L 765.413702 87.805977 
L 767.487467 87.805977 
L 768.178721 87.322871 
L 770.252486 87.322871 
L 770.943741 86.839765 
L 773.017506 86.839765 
L 773.708761 86.356658 
L 775.782525 86.356658 
L 776.47378 85.873552 
L 778.547545 85.873552 
L 779.2388 85.390445 
L 781.312564 85.390445 
L 782.003819 84.907339 
L 784.077584 84.907339 
L 784.768839 84.424233 
L 786.842604 84.424233 
L 787.533858 83.941126 
L 789.607623 83.941126 
L 790.298878 83.45802 
L 793.063898 83.45802 
L 793.755152 82.974914 
L 795.828917 82.974914 
L 796.520172 82.491807 
L 799.285192 82.491807 
L 799.976446 82.008701 
L 802.741466 82.008701 
L 803.432721 81.525595 
L 806.19774 81.525595 
L 806.888995 81.042488 
L 809.654015 81.042488 
L 810.34527 80.559382 
L 813.110289 80.559382 
L 813.801544 80.076275 
L 816.566564 80.076275 
L 817.257819 79.593169 
L 820.022838 79.593169 
L 820.714093 79.110063 
L 824.170368 79.110063 
L 824.861623 78.626956 
L 828.317897 78.626956 
L 829.009152 78.14385 
L 832.465426 78.14385 
L 833.156681 77.660744 
L 836.612956 77.660744 
L 837.304211 77.177637 
L 840.760485 77.177637 
L 841.45174 76.694531 
L 844.908014 76.694531 
L 845.599269 76.211425 
L 849.746799 76.211425 
L 850.438054 75.728318 
L 852.511818 75.728318 
L 852.511818 75.728318 
" clip-path="url(#p873aca64f6)" style="fill: none; stroke: #a52a2a; stroke-width: 1.5; stroke-linecap: square"/>
    <defs>
     <path id="mb6769f3dd9" d="M 0 -8 
L -8 8 
L 8 8 
z
" style="stroke: #a52a2a; stroke-linejoin: miter"/>
    </defs>
    <g clip-path="url(#p873aca64f6)">
     <use xlink:href="#mb6769f3dd9" x="219.322338" y="486.851834" style="fill: #a52a2a; stroke: #a52a2a; stroke-linejoin: miter"/>
     <use xlink:href="#mb6769f3dd9" x="277.387749" y="415.835198" style="fill: #a52a2a; stroke: #a52a2a; stroke-linejoin: miter"/>
     <use xlink:href="#mb6769f3dd9" x="338.218179" y="346.750988" style="fill: #a52a2a; stroke: #a52a2a; stroke-linejoin: miter"/>
     <use xlink:href="#mb6769f3dd9" x="401.813629" y="282.014735" style="fill: #a52a2a; stroke: #a52a2a; stroke-linejoin: miter"/>
     <use xlink:href="#mb6769f3dd9" x="470.939118" y="222.109546" style="fill: #a52a2a; stroke: #a52a2a; stroke-linejoin: miter"/>
     <use xlink:href="#mb6769f3dd9" x="546.977156" y="169.450953" style="fill: #a52a2a; stroke: #a52a2a; stroke-linejoin: miter"/>
     <use xlink:href="#mb6769f3dd9" x="626.471469" y="128.870018" style="fill: #a52a2a; stroke: #a52a2a; stroke-linejoin: miter"/>
     <use xlink:href="#mb6769f3dd9" x="710.113311" y="100.366743" style="fill: #a52a2a; stroke: #a52a2a; stroke-linejoin: miter"/>
     <use xlink:href="#mb6769f3dd9" x="797.211427" y="82.491807" style="fill: #a52a2a; stroke: #a52a2a; stroke-linejoin: miter"/>
    </g>
   </g>
   <g id="patch_3">
    <path d="M 127.42 582.99 
L 127.42 51.573 
" style="fill: none; stroke: #000000; stroke-width: 0.8; stroke-linejoin: miter; stroke-linecap: square"/>
   </g>
   <g id="patch_4">
    <path d="M 887.04 582.99 
L 887.04 51.573 
" style="fill: none; stroke: #000000; stroke-width: 0.8; stroke-linejoin: miter; stroke-linecap: square"/>
   </g>
   <g id="patch_5">
    <path d="M 127.42 582.99 
L 887.04 582.99 
" style="fill: none; stroke: #000000; stroke-width: 0.8; stroke-linejoin: miter; stroke-linecap: square"/>
   </g>
   <g id="patch_6">
    <path d="M 127.42 51.573 
L 887.04 51.573 
" style="fill: none; stroke: #000000; stroke-width: 0.8; stroke-linejoin: miter; stroke-linecap: square"/>
   </g>
   <g id="legend_1">
    <g id="patch_7">
     <path d="M 600.47 566.99 
L 864.64 566.99 
Q 871.04 566.99 871.04 560.59 
L 871.04 277.285 
Q 871.04 270.885 864.64 270.885 
L 600.47 270.885 
Q 594.07 270.885 594.07 277.285 
L 594.07 560.59 
Q 594.07 566.99 600.47 566.99 
z
" style="fill: #ffffff; opacity: 0.8; stroke: #cccccc; stroke-linejoin: miter"/>
    </g>
    <g id="line2d_19">
     <path d="M 606.87 296.8 
L 638.87 296.8 
L 670.87 296.8 
" style="fill: none; stroke: #ff00ff; stroke-width: 1.5; stroke-linecap: square"/>
     <g>
      <use xlink:href="#ma51dfd2f54" x="638.87" y="296.8" style="fill: #ff00ff; stroke: #ff00ff"/>
     </g>
    </g>
    <g id="text_15">
     <!-- GWD -->
     <g transform="translate(696.47 308)scale(0.32 -0.32)">
      <defs>
       <path id="DejaVuSerif-47" d="M 4097 3272 
Q 3988 3856 3641 4136 
Q 3294 4416 2675 4416 
Q 1869 4416 1472 3897 
Q 1075 3378 1075 2328 
Q 1075 1300 1484 772 
Q 1894 244 2688 244 
Q 3041 244 3362 331 
Q 3684 419 3975 594 
L 3975 1797 
L 3097 1797 
L 3097 2131 
L 4609 2131 
L 4609 391 
Q 4194 150 3714 29 
Q 3234 -91 2688 -91 
Q 1631 -91 995 570 
Q 359 1231 359 2328 
Q 359 3434 996 4092 
Q 1634 4750 2713 4750 
Q 3113 4750 3539 4658 
Q 3966 4566 4447 4378 
L 4447 3272 
L 4097 3272 
z
" transform="scale(0.015625)"/>
       <path id="DejaVuSerif-57" d="M 4878 0 
L 4366 0 
L 3297 3794 
L 2228 0 
L 1716 0 
L 494 4331 
L 31 4331 
L 31 4666 
L 1734 4666 
L 1734 4331 
L 1153 4331 
L 2125 884 
L 3188 4666 
L 3694 4666 
L 4775 844 
L 5753 4331 
L 5216 4331 
L 5216 4666 
L 6559 4666 
L 6559 4331 
L 6100 4331 
L 4878 0 
z
" transform="scale(0.015625)"/>
      </defs>
      <use xlink:href="#DejaVuSerif-47"/>
      <use xlink:href="#DejaVuSerif-57" x="79.882812"/>
      <use xlink:href="#DejaVuSerif-44" x="182.666016"/>
     </g>
    </g>
    <g id="line2d_20">
     <path d="M 606.87 343.77 
L 638.87 343.77 
L 670.87 343.77 
" style="fill: none; stroke: #0000ff; stroke-width: 1.5; stroke-linecap: square"/>
     <g>
      <use xlink:href="#m64d0fd1b72" x="638.87" y="343.77" style="fill: #0000ff; stroke: #0000ff; stroke-linejoin: miter"/>
     </g>
    </g>
    <g id="text_16">
     <!-- 1 - GIoU -->
     <g transform="translate(696.47 354.97)scale(0.32 -0.32)">
      <defs>
       <path id="DejaVuSerif-2d" d="M 281 1959 
L 1881 1959 
L 1881 1472 
L 281 1472 
L 281 1959 
z
" transform="scale(0.015625)"/>
       <path id="DejaVuSerif-49" d="M 1581 331 
L 2175 331 
L 2175 0 
L 353 0 
L 353 331 
L 947 331 
L 947 4331 
L 353 4331 
L 353 4666 
L 2175 4666 
L 2175 4331 
L 1581 4331 
L 1581 331 
z
" transform="scale(0.015625)"/>
       <path id="DejaVuSerif-6f" d="M 1925 219 
Q 2388 219 2623 584 
Q 2859 950 2859 1663 
Q 2859 2375 2623 2739 
Q 2388 3103 1925 3103 
Q 1463 3103 1227 2739 
Q 991 2375 991 1663 
Q 991 950 1228 584 
Q 1466 219 1925 219 
z
M 1925 -91 
Q 1200 -91 759 389 
Q 319 869 319 1663 
Q 319 2456 758 2934 
Q 1197 3413 1925 3413 
Q 2653 3413 3092 2934 
Q 3531 2456 3531 1663 
Q 3531 869 3092 389 
Q 2653 -91 1925 -91 
z
" transform="scale(0.015625)"/>
       <path id="DejaVuSerif-55" d="M 897 4331 
L 300 4331 
L 300 4666 
L 2125 4666 
L 2125 4331 
L 1528 4331 
L 1528 1919 
Q 1528 1025 1820 672 
Q 2113 319 2828 319 
Q 3544 319 3836 672 
Q 4128 1025 4128 1919 
L 4128 4331 
L 3531 4331 
L 3531 4666 
L 5106 4666 
L 5106 4331 
L 4513 4331 
L 4513 1856 
Q 4513 791 4103 350 
Q 3694 -91 2713 -91 
Q 1731 -91 1314 353 
Q 897 797 897 1856 
L 897 4331 
z
" transform="scale(0.015625)"/>
      </defs>
      <use xlink:href="#DejaVuSerif-31"/>
      <use xlink:href="#DejaVuSerif-20" x="63.623047"/>
      <use xlink:href="#DejaVuSerif-2d" x="95.410156"/>
      <use xlink:href="#DejaVuSerif-20" x="129.199219"/>
      <use xlink:href="#DejaVuSerif-47" x="160.986328"/>
      <use xlink:href="#DejaVuSerif-49" x="240.869141"/>
      <use xlink:href="#DejaVuSerif-6f" x="280.371094"/>
      <use xlink:href="#DejaVuSerif-55" x="340.576172"/>
     </g>
    </g>
    <g id="line2d_21">
     <path d="M 606.87 390.74 
L 638.87 390.74 
L 670.87 390.74 
" style="fill: none; stroke: #ffa500; stroke-width: 1.5; stroke-linecap: square"/>
     <g>
      <use xlink:href="#mc3261c8bde" x="638.87" y="390.74" style="fill: #ffa500; stroke: #ffa500; stroke-linejoin: bevel"/>
     </g>
    </g>
    <g id="text_17">
     <!-- OSPA-100 -->
     <g transform="translate(696.47 401.94)scale(0.32 -0.32)">
      <defs>
       <path id="DejaVuSerif-53" d="M 594 225 
L 594 1288 
L 953 1284 
Q 969 753 1261 498 
Q 1553 244 2150 244 
Q 2706 244 2998 464 
Q 3291 684 3291 1106 
Q 3291 1444 3114 1625 
Q 2938 1806 2369 1978 
L 1753 2163 
Q 1084 2366 811 2669 
Q 538 2972 538 3500 
Q 538 4094 959 4422 
Q 1381 4750 2144 4750 
Q 2469 4750 2856 4679 
Q 3244 4609 3681 4475 
L 3681 3481 
L 3328 3481 
Q 3275 3975 2998 4195 
Q 2722 4416 2156 4416 
Q 1663 4416 1405 4214 
Q 1147 4013 1147 3628 
Q 1147 3294 1340 3103 
Q 1534 2913 2163 2725 
L 2741 2553 
Q 3375 2363 3645 2067 
Q 3916 1772 3916 1275 
Q 3916 597 3481 253 
Q 3047 -91 2188 -91 
Q 1803 -91 1404 -12 
Q 1006 66 594 225 
z
" transform="scale(0.015625)"/>
       <path id="DejaVuSerif-50" d="M 1581 2375 
L 2406 2375 
Q 2872 2375 3115 2626 
Q 3359 2878 3359 3353 
Q 3359 3831 3115 4081 
Q 2872 4331 2406 4331 
L 1581 4331 
L 1581 2375 
z
M 353 0 
L 353 331 
L 947 331 
L 947 4331 
L 353 4331 
L 353 4666 
L 2559 4666 
Q 3259 4666 3668 4311 
Q 4078 3956 4078 3353 
Q 4078 2753 3668 2397 
Q 3259 2041 2559 2041 
L 1581 2041 
L 1581 331 
L 2303 331 
L 2303 0 
L 353 0 
z
" transform="scale(0.015625)"/>
       <path id="DejaVuSerif-41" d="M 1281 1691 
L 2994 1691 
L 2138 3909 
L 1281 1691 
z
M -38 0 
L -38 331 
L 372 331 
L 2034 4666 
L 2559 4666 
L 4225 331 
L 4684 331 
L 4684 0 
L 2988 0 
L 2988 331 
L 3506 331 
L 3116 1356 
L 1153 1356 
L 763 331 
L 1275 331 
L 1275 0 
L -38 0 
z
" transform="scale(0.015625)"/>
      </defs>
      <use xlink:href="#DejaVuSerif-4f"/>
      <use xlink:href="#DejaVuSerif-53" x="81.982422"/>
      <use xlink:href="#DejaVuSerif-50" x="150.488281"/>
      <use xlink:href="#DejaVuSerif-41" x="208.648438"/>
      <use xlink:href="#DejaVuSerif-2d" x="280.865234"/>
      <use xlink:href="#DejaVuSerif-31" x="314.654297"/>
      <use xlink:href="#DejaVuSerif-30" x="378.277344"/>
      <use xlink:href="#DejaVuSerif-30" x="441.900391"/>
     </g>
    </g>
    <g id="line2d_22">
     <path d="M 606.87 437.71 
L 638.87 437.71 
L 670.87 437.71 
" style="fill: none; stroke: #008000; stroke-width: 1.5; stroke-linecap: square"/>
     <g>
      <use xlink:href="#me453e93daa" x="638.87" y="437.71" style="fill: #008000; stroke: #008000; stroke-linejoin: miter"/>
     </g>
    </g>
    <g id="text_18">
     <!-- GWS -->
     <g transform="translate(696.47 448.91)scale(0.32 -0.32)">
      <use xlink:href="#DejaVuSerif-47"/>
      <use xlink:href="#DejaVuSerif-57" x="79.882812"/>
      <use xlink:href="#DejaVuSerif-53" x="182.666016"/>
     </g>
    </g>
    <g id="line2d_23">
     <path d="M 606.87 488.91 
L 638.87 488.91 
L 670.87 488.91 
" style="fill: none; stroke: #ff0000; stroke-width: 1.5; stroke-linecap: square"/>
     <g>
      <use xlink:href="#md1679a76b6" x="638.87" y="488.91" style="fill: #ff0000; stroke: #ff0000; stroke-linejoin: miter"/>
     </g>
    </g>
    <g id="text_19">
     <!-- $\sqrt{\mathrm{KLD}}$ -->
     <g transform="translate(696.47 500.11)scale(0.32 -0.32)">
      <defs>
       <path id="STIXSizeOneSym-Regular-221a" d="M 6970 9933 
L 3373 -1888 
L 3104 -1888 
L 1626 2918 
Q 1555 3149 1465 3251 
Q 1376 3354 1229 3354 
Q 1011 3354 794 3181 
L 717 3309 
L 1766 4115 
L 1926 4115 
L 3379 -602 
L 3405 -602 
L 6605 9933 
L 6970 9933 
z
" transform="scale(0.015625)"/>
       <path id="DejaVuSans-4b" d="M 628 4666 
L 1259 4666 
L 1259 2694 
L 3353 4666 
L 4166 4666 
L 1850 2491 
L 4331 0 
L 3500 0 
L 1259 2247 
L 1259 0 
L 628 0 
L 628 4666 
z
" transform="scale(0.015625)"/>
       <path id="DejaVuSans-4c" d="M 628 4666 
L 1259 4666 
L 1259 531 
L 3531 531 
L 3531 0 
L 628 0 
L 628 4666 
z
" transform="scale(0.015625)"/>
       <path id="DejaVuSans-44" d="M 1259 4147 
L 1259 519 
L 2022 519 
Q 2988 519 3436 956 
Q 3884 1394 3884 2338 
Q 3884 3275 3436 3711 
Q 2988 4147 2022 4147 
L 1259 4147 
z
M 628 4666 
L 1925 4666 
Q 3281 4666 3915 4102 
Q 4550 3538 4550 2338 
Q 4550 1131 3912 565 
Q 3275 0 1925 0 
L 628 0 
L 628 4666 
z
" transform="scale(0.015625)"/>
      </defs>
      <use xlink:href="#STIXSizeOneSym-Regular-221a" transform="translate(0 17.09375)scale(0.563912)"/>
      <use xlink:href="#DejaVuSans-4b" transform="translate(72.088364 0.84375)"/>
      <use xlink:href="#DejaVuSans-4c" transform="translate(137.664536 0.84375)"/>
      <use xlink:href="#DejaVuSans-44" transform="translate(193.377426 0.84375)"/>
      <path d="M 59.588364 97.5 
L 59.588364 103.75 
L 282.879379 103.75 
L 282.879379 97.5 
L 59.588364 97.5 
z
"/>
     </g>
    </g>
    <g id="line2d_24">
     <path d="M 606.87 535.88 
L 638.87 535.88 
L 670.87 535.88 
" style="fill: none; stroke: #a52a2a; stroke-width: 1.5; stroke-linecap: square"/>
     <g>
      <use xlink:href="#mb6769f3dd9" x="638.87" y="535.88" style="fill: #a52a2a; stroke: #a52a2a; stroke-linejoin: miter"/>
     </g>
    </g>
    <g id="text_20">
     <!-- Hellinger -->
     <g transform="translate(696.47 547.08)scale(0.32 -0.32)">
      <defs>
       <path id="DejaVuSerif-48" d="M 353 0 
L 353 331 
L 947 331 
L 947 4331 
L 353 4331 
L 353 4666 
L 2175 4666 
L 2175 4331 
L 1581 4331 
L 1581 2719 
L 4000 2719 
L 4000 4331 
L 3406 4331 
L 3406 4666 
L 5228 4666 
L 5228 4331 
L 4634 4331 
L 4634 331 
L 5228 331 
L 5228 0 
L 3406 0 
L 3406 331 
L 4000 331 
L 4000 2338 
L 1581 2338 
L 1581 331 
L 2175 331 
L 2175 0 
L 353 0 
z
" transform="scale(0.015625)"/>
       <path id="DejaVuSerif-67" d="M 3359 2988 
L 3359 72 
Q 3359 -644 2965 -1033 
Q 2572 -1422 1844 -1422 
Q 1516 -1422 1216 -1362 
Q 916 -1303 641 -1184 
L 641 -488 
L 941 -488 
Q 997 -813 1206 -963 
Q 1416 -1113 1806 -1113 
Q 2313 -1113 2548 -827 
Q 2784 -541 2784 72 
L 2784 519 
Q 2616 206 2355 57 
Q 2094 -91 1709 -91 
Q 1097 -91 708 395 
Q 319 881 319 1663 
Q 319 2444 706 2928 
Q 1094 3413 1709 3413 
Q 2094 3413 2355 3264 
Q 2616 3116 2784 2803 
L 2784 3322 
L 3909 3322 
L 3909 2988 
L 3359 2988 
z
M 2784 1825 
Q 2784 2422 2554 2737 
Q 2325 3053 1888 3053 
Q 1444 3053 1217 2703 
Q 991 2353 991 1663 
Q 991 975 1217 622 
Q 1444 269 1888 269 
Q 2325 269 2554 583 
Q 2784 897 2784 1497 
L 2784 1825 
z
" transform="scale(0.015625)"/>
      </defs>
      <use xlink:href="#DejaVuSerif-48"/>
      <use xlink:href="#DejaVuSerif-65" x="87.207031"/>
      <use xlink:href="#DejaVuSerif-6c" x="146.386719"/>
      <use xlink:href="#DejaVuSerif-6c" x="178.369141"/>
      <use xlink:href="#DejaVuSerif-69" x="210.351562"/>
      <use xlink:href="#DejaVuSerif-6e" x="242.333984"/>
      <use xlink:href="#DejaVuSerif-67" x="306.738281"/>
      <use xlink:href="#DejaVuSerif-65" x="370.751953"/>
      <use xlink:href="#DejaVuSerif-72" x="429.931641"/>
     </g>
    </g>
   </g>
  </g>
 </g>
 <defs>
  <clipPath id="p873aca64f6">
   <rect x="127.42" y="51.573" width="759.62" height="531.417"/>
  </clipPath>
 </defs>
</svg>
